<?xml version="1.0" encoding="UTF-8" standalone="no"?>
<!-- Created with Inkscape (http://www.inkscape.org/) -->

<svg
   width="100mm"
   height="100mm"
   viewBox="0 0 100 100"
   version="1.1"
   id="svg69202"
   inkscape:version="1.1.1 (c3084ef, 2021-09-22)"
   sodipodi:docname="back_art.svg"
   xmlns:inkscape="http://www.inkscape.org/namespaces/inkscape"
   xmlns:sodipodi="http://sodipodi.sourceforge.net/DTD/sodipodi-0.dtd"
   xmlns="http://www.w3.org/2000/svg"
   xmlns:svg="http://www.w3.org/2000/svg">
  <sodipodi:namedview
     id="namedview69204"
     pagecolor="#ffffff"
     bordercolor="#666666"
     borderopacity="1.0"
     inkscape:pageshadow="2"
     inkscape:pageopacity="0.0"
     inkscape:pagecheckerboard="0"
     inkscape:document-units="mm"
     showgrid="false"
     width="100mm"
     inkscape:snap-global="true"
     showguides="true"
     inkscape:guide-bbox="true"
     inkscape:zoom="0.77754839"
     inkscape:cx="215.42068"
     inkscape:cy="250.1452"
     inkscape:window-width="1312"
     inkscape:window-height="847"
     inkscape:window-x="0"
     inkscape:window-y="25"
     inkscape:window-maximized="0"
     inkscape:current-layer="layer1">
    <sodipodi:guide
       position="50,50"
       orientation="-1,0"
       id="guide75614"
       inkscape:label=""
       inkscape:locked="false"
       inkscape:color="rgb(0,0,255)" />
  </sodipodi:namedview>
  <defs
     id="defs69199" />
  <g
     inkscape:label="Layer 1"
     inkscape:groupmode="layer"
     id="layer1">
    <g
       aria-label="Illuminate This"
       transform="rotate(-30)"
       id="text70066"
       style="font-size:10.5833px;line-height:1.25;font-family:Futura;-inkscape-font-specification:Futura;stroke-width:0.264583">
      <path
         d="m -33.905535,73.754405 0.37207,-0.95498 q 1.103809,0.483691 2.418457,0.483691 1.599903,0 2.914551,-1.066601 0.768945,-0.607715 1.289844,-1.364258 0.5333,-0.756543 1.128613,-2.058789 l 0.09922,-0.198438 q -1.029395,-0.657324 -1.525489,-1.785937 -0.483691,-1.141016 -0.483691,-2.827735 0,-1.16582 0.359668,-2.505273 0.359668,-1.351855 0.992187,-2.517676 0.533301,-1.041797 1.153418,-1.624707 0.620118,-0.595312 1.165821,-0.595312 0.74414,0 1.141015,0.892969 0.396875,0.892968 0.396875,2.54248 0,1.252637 -0.285254,2.790527 -0.272851,1.525489 -0.781347,3.063379 -0.508496,1.537891 -1.066602,2.567285 0.359668,0.136426 0.756543,0.136426 0.396875,0 0.830957,-0.136426 l -0.111621,0.334864 q -0.322461,0.09922 -0.79375,0.09922 -0.483691,0 -0.892969,-0.09922 -1.004589,1.711523 -2.182812,2.827734 -1.16582,1.103808 -2.554883,1.637109 -1.37666,0.533301 -3.026172,0.533301 -0.79375,0 -1.314648,-0.173633 z m 8.408789,-5.55625 q 0.471289,-1.066601 0.917773,-2.802929 0.471289,-1.773535 0.79375,-3.633887 0.322461,-1.872754 0.322461,-2.864941 0,-0.84336 -0.198437,-1.302246 -0.198438,-0.458887 -0.595313,-0.458887 -0.570508,0 -1.16582,1.128613 -0.58291,1.116211 -0.967383,2.877344 -0.37207,1.761133 -0.37207,3.435449 0,2.740918 1.265039,3.621484 z"
         style="font-size:25.4px;font-family:'Savoye LET';-inkscape-font-specification:'Savoye LET, Normal'"
         id="path88746" />
      <path
         d="m -17.931317,55.981847 -3.261816,14.299902 -0.111621,0.483691 q -0.161231,0.682129 -0.161231,1.153418 0,0.384473 0.136426,0.63252 0.148828,0.235644 0.359668,0.235644 0.384472,0 1.227832,-0.917773 l 0.198437,0.173633 -0.124023,0.136426 q -0.706934,0.830957 -1.041797,1.128613 -0.334863,0.285254 -0.620117,0.285254 -0.37207,0 -0.657324,-0.409278 -0.272852,-0.421679 -0.272852,-0.95498 0,-0.37207 0.161231,-1.178223 l 2.864941,-14.436328 z"
         style="font-size:25.4px;font-family:'Savoye LET';-inkscape-font-specification:'Savoye LET, Normal'"
         id="path88748" />
      <path
         d="m -14.260223,55.981847 -3.261816,14.299902 -0.111622,0.483691 q -0.16123,0.682129 -0.16123,1.153418 0,0.384473 0.136426,0.63252 0.148828,0.235644 0.359668,0.235644 0.384472,0 1.227832,-0.917773 l 0.198437,0.173633 -0.124023,0.136426 q -0.706934,0.830957 -1.041797,1.128613 -0.334863,0.285254 -0.620117,0.285254 -0.372071,0 -0.657324,-0.409278 -0.272852,-0.421679 -0.272852,-0.95498 0,-0.37207 0.16123,-1.178223 l 2.864942,-14.436328 z"
         style="font-size:25.4px;font-family:'Savoye LET';-inkscape-font-specification:'Savoye LET, Normal'"
         id="path88750" />
      <path
         d="m -12.722333,66.201378 -1.203028,4.799707 q -0.16123,0.644922 -0.16123,1.091406 0,0.434082 0.272852,0.694531 0.272851,0.26045 0.706933,0.26045 1.054199,0 2.195215,-1.723926 l 0.04961,-0.07441 q 0.0248,-0.124024 0.03721,-0.198438 l 0.781348,-4.34082 1.2154297,-0.508496 -1.0914062,4.080371 q -0.2728515,1.00459 -0.2728515,1.612305 0,0.396875 0.136426,0.644922 0.1364255,0.248046 0.3596677,0.248046 0.3844726,0 1.227832,-0.917773 l 0.1984375,0.173633 -0.1240235,0.136426 q -0.7069336,0.830957 -1.0417968,1.128613 -0.3348633,0.285254 -0.6201169,0.285254 -0.384473,0 -0.657325,-0.384473 -0.260449,-0.396875 -0.260449,-0.979785 0,-0.186035 0.0124,-0.347266 -1.289844,1.711524 -2.554883,1.711524 -0.63252,0 -1.016992,-0.359668 -0.372071,-0.372071 -0.372071,-0.979785 0,-0.471289 0.136426,-1.153418 l 0.843359,-4.39043 z"
         style="font-size:25.4px;font-family:'Savoye LET';-inkscape-font-specification:'Savoye LET, Normal'"
         id="path88752" />
      <path
         d="m -2.6020196,73.320323 -0.8185546,0.260449 0.9797851,-5.047753 q 0,0 0.086816,-0.434082 0.074414,-0.359668 0.074414,-0.595313 0,-0.545703 -0.4340821,-0.545703 -0.4092773,0 -0.9921874,0.558105 -0.5829102,0.545704 -1.2278321,1.5875 -0.4216796,0.669727 -0.7317382,1.289844 -0.2976563,0.620117 -0.5581055,1.327051 -0.2480469,0.694531 -0.4836914,1.599902 l -0.7689453,0.260449 1.2774414,-6.870898 1.190625,-0.508496 -1.0790039,4.502051 q 0.830957,-1.922364 1.8975586,-3.150196 1.0790038,-1.240234 1.9347655,-1.240234 0.9301758,0 0.9301758,1.054199 0,0.359668 -0.1860351,1.277442 l -0.4092774,1.847949 q 1.20302735,-2.306836 2.03398437,-3.249414 0.83095702,-0.954981 1.64951173,-0.954981 0.4588867,0 0.7193359,0.272852 0.2604492,0.272851 0.2604492,0.781348 0,0.409277 -0.2480469,1.413867 L 2.110871,70.281749 1.9868475,70.76544 q -0.1736328,0.768946 -0.1736328,1.141016 0,0.396875 0.1364258,0.644922 0.1364258,0.235644 0.3472656,0.235644 0.396875,0 1.2402344,-0.917773 l 0.1860351,0.173633 -0.111621,0.136426 q -0.7069336,0.830957 -1.0541992,1.128613 -0.3348633,0.285254 -0.6201172,0.285254 -0.3844727,0 -0.6573242,-0.384473 -0.2604493,-0.396875 -0.2604493,-0.979785 0,-0.359668 0.1612305,-1.178223 l 0.4588867,-2.567285 0.074414,-0.446484 q 0.074414,-0.37207 0.074414,-0.595313 0,-0.223242 -0.1364258,-0.359668 -0.1364258,-0.136425 -0.3720703,-0.136425 -0.2728516,0 -0.60771487,0.235644 -0.32246093,0.223242 -0.69453124,0.694531 -0.37207031,0.471289 -0.83095702,1.240235 -0.62011717,1.054199 -1.00458987,1.971972 -0.3844726,0.905371 -0.7441406,2.232422 z"
         style="font-size:25.4px;font-family:'Savoye LET';-inkscape-font-specification:'Savoye LET, Normal'"
         id="path88754" />
      <path
         d="m 7.2454391,61.339659 q 0.3224609,0 0.5208984,0.198438 0.1984375,0.198437 0.1984375,0.520898 0,0.310059 -0.2108398,0.520899 -0.2108398,0.210839 -0.5084961,0.210839 -0.2852539,0 -0.5084961,-0.223242 -0.2232422,-0.223242 -0.2232422,-0.508496 0,-0.297656 0.2108399,-0.508496 0.2108398,-0.21084 0.5208984,-0.21084 z m -0.359668,4.861719 -1.0914062,4.080371 q -0.2728515,1.00459 -0.2728515,1.612305 0,0.396875 0.1364257,0.644922 0.1364258,0.248046 0.359668,0.248046 0.3844726,0 1.227832,-0.917773 l 0.1984375,0.173633 -0.1240234,0.136426 q -0.7069336,0.830957 -1.0417969,1.128613 -0.3348633,0.285254 -0.6201172,0.285254 -0.3844726,0 -0.6573242,-0.384473 -0.2604492,-0.396875 -0.2604492,-0.979785 0,-0.37207 0.1488281,-1.178223 l 0.7813477,-4.34082 z"
         style="font-size:25.4px;font-family:'Savoye LET';-inkscape-font-specification:'Savoye LET, Normal'"
         id="path88756" />
      <path
         d="m 8.2004189,73.580772 1.3146484,-6.870898 1.1782227,-0.508496 -1.0666016,4.55166 q 1.0293946,-2.17041 2.0463866,-3.299023 1.016992,-1.128614 1.947168,-1.128614 0.458887,0 0.744141,0.310059 0.285254,0.297656 0.285254,0.806152 0,0.285254 -0.136426,0.806153 l -0.124024,0.520898 -0.37207,1.513086 -0.124023,0.483691 q -0.186036,0.744141 -0.186036,1.141016 0,0.396875 0.136426,0.644922 0.136426,0.235644 0.359668,0.235644 0.384473,0 1.227832,-0.917773 l 0.198438,0.173633 -0.124024,0.136426 q -0.706933,0.830957 -1.041797,1.128613 -0.334863,0.285254 -0.620117,0.285254 -0.384472,0 -0.657324,-0.384473 -0.260449,-0.396875 -0.260449,-0.979785 0,-0.396875 0.148828,-1.178223 l 0.483691,-2.629297 q 0.09922,-0.620117 0.09922,-0.868164 0,-0.260449 -0.136426,-0.396875 -0.136426,-0.136425 -0.37207,-0.136425 -0.855762,0 -2.108398,1.835547 -0.607715,0.880566 -1.00459,1.74873 -0.3968753,0.855762 -0.892969,2.38125 l -0.1116211,0.334863 z"
         style="font-size:25.4px;font-family:'Savoye LET';-inkscape-font-specification:'Savoye LET, Normal'"
         id="path88758" />
      <path
         d="m 23.306474,66.126964 -1.16582,4.539258 q -0.186035,0.74414 -0.186035,1.16582 0,0.37207 0.16123,0.644922 0.161231,0.272851 0.396875,0.272851 0.359668,0 1.190625,-0.880566 l 0.173633,0.173633 -0.136426,0.16123 q -0.657324,0.756543 -1.016992,1.066602 -0.347266,0.297656 -0.607715,0.297656 -0.396875,0 -0.694531,-0.409277 -0.285254,-0.42168 -0.285254,-0.967383 0,-0.396875 0.297656,-1.79834 l 0.09922,-0.471289 q -0.458887,1.066602 -1.227832,2.046387 -1.289844,1.637109 -2.468066,1.637109 -0.706934,0 -1.116211,-0.508496 -0.409278,-0.508496 -0.409278,-1.364258 0,-1.16582 0.657325,-2.443261 0.669726,-1.277442 1.649511,-2.095997 0.992188,-0.830957 1.922364,-0.830957 0.979785,0 1.463476,0.719336 l 0.136426,-0.471289 z m -1.426269,1.5875 q -0.148828,-0.471289 -0.508496,-0.731738 -0.347266,-0.272852 -0.806153,-0.272852 -0.545703,0 -1.153418,0.508496 -0.607715,0.496094 -1.116211,1.389063 -0.396875,0.706933 -0.669726,1.562695 -0.260449,0.855762 -0.260449,1.413867 0,0.63252 0.235644,0.992188 0.248047,0.359668 0.694531,0.359668 0.570508,0 1.190625,-0.533301 0.620118,-0.533301 1.227832,-1.525488 0.372071,-0.570508 0.582911,-1.141016 0.210839,-0.570508 0.471289,-1.5875 z"
         style="font-size:25.4px;font-family:'Savoye LET';-inkscape-font-specification:'Savoye LET, Normal'"
         id="path88760" />
      <path
         d="m 26.965167,66.833897 -0.942578,4.129981 q -0.148828,0.682129 -0.148828,0.967383 0,0.446484 0.21084,0.719336 0.21084,0.272851 0.558105,0.272851 0.334864,0 0.607715,-0.186035 0.285254,-0.198437 0.855762,-0.806152 l 0.148828,-0.148828 0.186035,0.186035 q -0.731738,0.892968 -1.227832,1.265039 -0.483691,0.359668 -0.95498,0.359668 -0.595313,0 -0.954981,-0.384473 -0.347265,-0.396875 -0.347265,-1.029394 0,-0.471289 0.186035,-1.364258 l 0.806152,-3.981153 H 24.75755 l 0.08682,-0.421679 h 1.190625 l 0.694532,-3.348633 1.190625,-0.471289 -0.868164,3.819922 h 2.009179 l -0.08682,0.421679 z"
         style="font-size:25.4px;font-family:'Savoye LET';-inkscape-font-specification:'Savoye LET, Normal'"
         id="path88762" />
      <path
         d="m 34.232938,71.534386 0.223242,0.186035 q -0.768945,1.016992 -1.500683,1.475879 -0.731738,0.446484 -1.575098,0.446484 -1.00459,0 -1.612304,-0.669726 -0.607715,-0.669727 -0.607715,-1.773536 0,-1.11621 0.58291,-2.257226 0.595312,-1.153418 1.475879,-1.897559 0.892969,-0.756543 1.761133,-0.756543 0.508496,0 0.830957,0.297657 0.334863,0.297656 0.334863,0.768945 0,0.95498 -1.041797,1.909961 -1.041797,0.95498 -2.840137,1.624707 -0.0124,0.09922 -0.0124,0.223242 0,0.855762 0.471289,1.401465 0.471289,0.533301 1.21543,0.533301 0.58291,0 1.128613,-0.359668 0.545703,-0.372071 1.16582,-1.153418 z m -3.96875,-0.942578 q 1.339453,-0.595313 2.058789,-1.327051 0.483692,-0.496094 0.781348,-1.066602 0.297656,-0.570508 0.297656,-1.029394 0,-0.58291 -0.5333,-0.58291 -0.806153,0 -1.63711,1.277441 -0.818555,1.265039 -0.967383,2.728516 z"
         style="font-size:25.4px;font-family:'Savoye LET';-inkscape-font-specification:'Savoye LET, Normal'"
         id="path88764" />
      <path
         d="m 39.218679,73.94044 0.458887,-1.116211 q 1.16582,0.496094 2.554883,0.496094 1.624707,0 2.877343,-0.868164 1.265039,-0.880566 2.257227,-2.678906 0.322461,-0.595313 0.632519,-1.351856 0.310059,-0.768945 0.768946,-2.145605 0.384472,-1.141016 0.74414,-2.455664 0.372071,-1.327051 0.620117,-2.418457 0.26045,-1.091406 0.496094,-2.430859 l 1.327051,-0.595313 -0.08682,-0.0124 -0.248046,-0.03721 q -2.815332,-0.347266 -5.407422,-0.347266 -1.327051,0 -2.232422,0.173633 -0.905371,0.173633 -1.537891,0.558105 -0.868164,0.545704 -0.868164,1.401465 0,1.748731 4.365625,1.984375 l -0.843359,0.880567 q -1.190625,-0.07441 -2.071191,-0.434082 -0.880567,-0.359668 -1.364258,-0.954981 -0.471289,-0.595312 -0.471289,-1.351855 0,-1.525489 1.922363,-2.455664 1.624707,-0.781348 4.774902,-0.781348 0.855762,0 2.182813,0.09922 1.339453,0.09922 2.765722,0.260449 1.42627,0.148828 2.368848,0.322461 l 0.223242,0.03721 -0.558105,1.116211 -0.223243,-0.03721 q -1.091406,-0.198438 -2.54248,-0.409277 l -0.08682,-0.0124 -0.03721,0.173633 -0.03721,0.173633 q -0.979786,4.477246 -2.021582,7.379394 -1.041797,2.889746 -2.344043,4.626074 -1.302246,1.736328 -3.038575,2.517676 -1.723925,0.781348 -4.080371,0.781348 -0.620117,0 -1.240234,-0.08682 z"
         style="font-size:25.4px;font-family:'Savoye LET';-inkscape-font-specification:'Savoye LET, Normal'"
         id="path88766" />
      <path
         d="m 53.022491,73.580772 3.299023,-16.966406 1.302246,-0.632519 -3.435449,15.106054 q 0.04961,-0.08682 0.04961,-0.111621 l 0.285254,-0.644922 q 0.731739,-1.661914 1.835547,-2.877343 1.041797,-1.128614 1.922363,-1.128614 0.471289,0 0.756543,0.310059 0.285254,0.297656 0.285254,0.806152 0,0.285254 -0.136426,0.806153 l -0.124023,0.520898 -0.384473,1.513086 -0.111621,0.483691 q -0.186035,0.744141 -0.186035,1.141016 0,0.396875 0.136426,0.644922 0.136426,0.235644 0.359668,0.235644 0.384473,0 1.227832,-0.917773 l 0.186035,0.173633 -0.111621,0.136426 q -0.706934,0.830957 -1.054199,1.128613 -0.334864,0.285254 -0.607715,0.285254 -0.384473,0 -0.657324,-0.409278 -0.272852,-0.409277 -0.272852,-0.95498 0,-0.334863 0.161231,-1.178223 l 0.471289,-2.629297 q 0.111621,-0.58291 0.111621,-0.868164 0,-0.260449 -0.136426,-0.396875 -0.136426,-0.136425 -0.37207,-0.136425 -0.458887,0 -1.0542,0.545703 -0.595312,0.533301 -1.203027,1.488281 -0.595312,0.95498 -1.041797,2.046387 -0.446484,1.079004 -0.669726,2.220019 z"
         style="font-size:25.4px;font-family:'Savoye LET';-inkscape-font-specification:'Savoye LET, Normal'"
         id="path88768" />
      <path
         d="m 63.849737,61.339659 q 0.322461,0 0.520898,0.198438 0.198438,0.198437 0.198438,0.520898 0,0.310059 -0.21084,0.520899 -0.21084,0.210839 -0.508496,0.210839 -0.285254,0 -0.508496,-0.223242 -0.223243,-0.223242 -0.223243,-0.508496 0,-0.297656 0.21084,-0.508496 0.21084,-0.21084 0.520899,-0.21084 z m -0.359668,4.861719 -1.091406,4.080371 q -0.272852,1.00459 -0.272852,1.612305 0,0.396875 0.136426,0.644922 0.136426,0.248046 0.359668,0.248046 0.384472,0 1.227832,-0.917773 l 0.198437,0.173633 -0.124023,0.136426 q -0.706934,0.830957 -1.041797,1.128613 -0.334863,0.285254 -0.620117,0.285254 -0.384473,0 -0.657324,-0.384473 -0.26045,-0.396875 -0.26045,-0.979785 0,-0.37207 0.148828,-1.178223 l 0.781348,-4.34082 z"
         style="font-size:25.4px;font-family:'Savoye LET';-inkscape-font-specification:'Savoye LET, Normal'"
         id="path88770" />
      <path
         d="m 63.99856,72.662999 0.694532,-0.818555 q 0.545703,1.289844 1.736328,1.289844 0.620117,0 1.054199,-0.396875 0.446484,-0.409277 0.446484,-0.942578 0,-0.384473 -0.21084,-0.657324 -0.210839,-0.272852 -1.004589,-0.917774 -0.731739,-0.595312 -0.992188,-0.930175 -0.248047,-0.347266 -0.248047,-0.79375 0,-0.582911 0.334864,-1.079004 0.347265,-0.496094 0.917773,-0.79375 0.570508,-0.310059 1.203027,-0.310059 0.558106,0 0.930176,0.285254 0.384473,0.272852 0.384473,0.706934 0,0.570507 -0.483692,0.781347 -0.07441,-0.58291 -0.446484,-0.905371 Q 67.954908,66.8463 67.3844,66.8463 q -0.508496,0 -0.892969,0.334863 -0.37207,0.322461 -0.37207,0.744141 0,0.520898 0.644922,1.029394 l 0.719336,0.58291 q 1.054199,0.830957 1.054199,1.699121 0,0.644922 -0.37207,1.21543 -0.359668,0.558106 -0.992188,0.892969 -0.620117,0.334863 -1.314648,0.334863 -1.103809,0 -1.860352,-1.016992 z"
         style="font-size:25.4px;font-family:'Savoye LET';-inkscape-font-specification:'Savoye LET, Normal'"
         id="path88772" />
    </g>
    <g
       aria-label="photon cannon edition"
       id="text77212"
       style="font-size:10.5833px;line-height:1.25;font-family:Futura;-inkscape-font-specification:Futura;stroke-width:0.264583">
      <path
         d="m 21.681086,81.451169 h -0.775147 v -5.181427 h 0.775147 v 0.36518 q 0.458198,-0.458198 1.040419,-0.458198 0.692465,0 1.140327,0.509875 0.454753,0.506429 0.454753,1.278131 0,0.754476 -0.451307,1.257461 -0.447863,0.499539 -1.129993,0.499539 -0.589111,0 -1.054199,-0.471979 z m 1.843127,-3.482994 q 0,-0.482314 -0.261828,-0.785482 -0.265272,-0.306614 -0.668349,-0.306614 -0.427192,0 -0.692464,0.296278 -0.265273,0.296279 -0.265273,0.778593 0,0.471978 0.265273,0.778592 0.261827,0.299723 0.689019,0.299723 0.403077,0 0.664904,-0.303168 0.268718,-0.303169 0.268718,-0.757922 z"
         style="font-size:7.05556px;-inkscape-font-specification:'Futura, Normal'"
         id="path88775" />
      <path
         d="m 25.136518,73.806497 h 0.775147 v 2.742298 q 0.413412,-0.372071 0.912951,-0.372071 0.568441,0 0.909506,0.368626 0.289388,0.320394 0.289388,1.023194 v 2.056723 h -0.775147 v -1.984376 q 0,-0.403077 -0.144694,-0.582222 -0.141249,-0.18259 -0.458198,-0.18259 -0.406521,0 -0.571886,0.251492 -0.16192,0.254937 -0.16192,0.875055 v 1.622641 h -0.775147 z"
         style="font-size:7.05556px;-inkscape-font-specification:'Futura, Normal'"
         id="path88777" />
      <path
         d="m 28.850334,77.923389 q 0,-0.726916 0.52021,-1.23679 0.52021,-0.509875 1.267796,-0.509875 0.751031,0 1.274686,0.51332 0.516765,0.513319 0.516765,1.260906 0,0.754476 -0.52021,1.26435 -0.523655,0.50643 -1.285022,0.50643 -0.754476,0 -1.26435,-0.516765 -0.509875,-0.509874 -0.509875,-1.281576 z m 0.792373,0.01378 q 0,0.502984 0.268717,0.795818 0.275608,0.296278 0.726916,0.296278 0.454753,0 0.726915,-0.292833 0.272163,-0.292833 0.272163,-0.782037 0,-0.489204 -0.272163,-0.782038 -0.275607,-0.296278 -0.726915,-0.296278 -0.444418,0 -0.720026,0.296278 -0.275607,0.296279 -0.275607,0.764812 z"
         style="font-size:7.05556px;-inkscape-font-specification:'Futura, Normal'"
         id="path88779" />
      <path
         d="m 34.100663,76.993212 v 2.632055 h -0.775147 v -2.632055 h -0.330729 v -0.72347 h 0.330729 v -1.2299 h 0.775147 v 1.2299 h 0.602892 v 0.72347 z"
         style="font-size:7.05556px;-inkscape-font-specification:'Futura, Normal'"
         id="path88781" />
      <path
         d="m 35.116966,77.923389 q 0,-0.726916 0.52021,-1.23679 0.52021,-0.509875 1.267796,-0.509875 0.751031,0 1.274686,0.51332 0.516765,0.513319 0.516765,1.260906 0,0.754476 -0.52021,1.26435 -0.523655,0.50643 -1.285022,0.50643 -0.754476,0 -1.26435,-0.516765 -0.509875,-0.509874 -0.509875,-1.281576 z m 0.792373,0.01378 q 0,0.502984 0.268717,0.795818 0.275608,0.296278 0.726916,0.296278 0.454753,0 0.726915,-0.292833 0.272163,-0.292833 0.272163,-0.782037 0,-0.489204 -0.272163,-0.782038 -0.275607,-0.296278 -0.726915,-0.296278 -0.444418,0 -0.720026,0.296278 -0.275607,0.296279 -0.275607,0.764812 z"
         style="font-size:7.05556px;-inkscape-font-specification:'Futura, Normal'"
         id="path88783" />
      <path
         d="m 39.523246,76.269742 h 0.778592 v 0.310059 q 0.406522,-0.403077 0.916396,-0.403077 0.585667,0 0.912951,0.368626 0.282498,0.313504 0.282498,1.023194 v 2.056723 h -0.778592 v -1.874133 q 0,-0.496094 -0.137804,-0.685575 -0.134359,-0.192925 -0.489204,-0.192925 -0.385851,0 -0.54777,0.254937 -0.158475,0.251492 -0.158475,0.8785 v 1.619196 h -0.778592 z"
         style="font-size:7.05556px;-inkscape-font-specification:'Futura, Normal'"
         id="path88785" />
      <path
         d="m 48.184221,76.414436 v 1.030084 q -0.265272,-0.323839 -0.475423,-0.444417 -0.206706,-0.124024 -0.485759,-0.124024 -0.437527,0 -0.726916,0.306614 -0.289388,0.306613 -0.289388,0.768257 0,0.471978 0.279053,0.775147 0.282498,0.303168 0.720026,0.303168 0.279053,0 0.492649,-0.120578 0.206705,-0.117134 0.485758,-0.454753 v 1.023194 q -0.471978,0.244602 -0.943956,0.244602 -0.778592,0 -1.302247,-0.502985 -0.523655,-0.506429 -0.523655,-1.25746 0,-0.751031 0.530545,-1.267796 0.530545,-0.516765 1.302247,-0.516765 0.496094,0 0.937066,0.237712 z"
         style="font-size:7.05556px;-inkscape-font-specification:'Futura, Normal'"
         id="path88787" />
      <path
         d="m 51.408833,76.269742 h 0.778592 v 3.355525 h -0.778592 v -0.3514 q -0.478869,0.447863 -1.030084,0.447863 -0.69591,0 -1.150663,-0.502985 -0.451308,-0.513319 -0.451308,-1.281576 0,-0.754476 0.451308,-1.257461 0.451308,-0.502984 1.129992,-0.502984 0.585667,0 1.050755,0.482314 z m -1.839682,1.667427 q 0,0.482314 0.258382,0.785482 0.265272,0.306614 0.668349,0.306614 0.430637,0 0.69591,-0.296278 0.265272,-0.306614 0.265272,-0.778592 0,-0.471979 -0.265272,-0.778592 -0.265273,-0.299724 -0.68902,-0.299724 -0.399631,0 -0.668349,0.303169 -0.265272,0.306613 -0.265272,0.757921 z"
         style="font-size:7.05556px;-inkscape-font-specification:'Futura, Normal'"
         id="path88789" />
      <path
         d="m 53.165834,76.269742 h 0.778592 v 0.310059 q 0.406522,-0.403077 0.916396,-0.403077 0.585667,0 0.912951,0.368626 0.282498,0.313504 0.282498,1.023194 v 2.056723 h -0.778592 v -1.874133 q 0,-0.496094 -0.137804,-0.685575 -0.134359,-0.192925 -0.489204,-0.192925 -0.385851,0 -0.547771,0.254937 -0.158474,0.251492 -0.158474,0.8785 v 1.619196 h -0.778592 z"
         style="font-size:7.05556px;-inkscape-font-specification:'Futura, Normal'"
         id="path88791" />
      <path
         d="m 57.038122,76.269742 h 0.778592 v 0.310059 q 0.406521,-0.403077 0.916396,-0.403077 0.585666,0 0.912951,0.368626 0.282498,0.313504 0.282498,1.023194 v 2.056723 h -0.778592 v -1.874133 q 0,-0.496094 -0.137804,-0.685575 -0.134359,-0.192925 -0.489204,-0.192925 -0.385851,0 -0.547771,0.254937 -0.158474,0.251492 -0.158474,0.8785 v 1.619196 h -0.778592 z"
         style="font-size:7.05556px;-inkscape-font-specification:'Futura, Normal'"
         id="path88793" />
      <path
         d="m 60.751939,77.923389 q 0,-0.726916 0.520209,-1.23679 0.52021,-0.509875 1.267796,-0.509875 0.751032,0 1.274687,0.51332 0.516764,0.513319 0.516764,1.260906 0,0.754476 -0.52021,1.26435 -0.523654,0.50643 -1.285021,0.50643 -0.754476,0 -1.264351,-0.516765 -0.509874,-0.509874 -0.509874,-1.281576 z m 0.792372,0.01378 q 0,0.502984 0.268718,0.795818 0.275608,0.296278 0.726915,0.296278 0.454753,0 0.726916,-0.292833 0.272163,-0.292833 0.272163,-0.782037 0,-0.489204 -0.272163,-0.782038 -0.275608,-0.296278 -0.726916,-0.296278 -0.444417,0 -0.720025,0.296278 -0.275608,0.296279 -0.275608,0.764812 z"
         style="font-size:7.05556px;-inkscape-font-specification:'Futura, Normal'"
         id="path88795" />
      <path
         d="m 65.154775,76.269742 h 0.778592 v 0.310059 q 0.406522,-0.403077 0.916396,-0.403077 0.585667,0 0.912951,0.368626 0.282498,0.313504 0.282498,1.023194 v 2.056723 H 67.26662 v -1.874133 q 0,-0.496094 -0.137804,-0.685575 -0.134359,-0.192925 -0.489204,-0.192925 -0.385851,0 -0.54777,0.254937 -0.158475,0.251492 -0.158475,0.8785 v 1.619196 h -0.778592 z"
         style="font-size:7.05556px;-inkscape-font-specification:'Futura, Normal'"
         id="path88797" />
      <path
         d="M 74.260168,78.130095 H 71.85549 q 0.031,0.413411 0.268717,0.658013 0.237712,0.241157 0.609783,0.241157 0.289388,0 0.478868,-0.137804 0.186035,-0.137804 0.423747,-0.509874 l 0.654569,0.36518 q -0.151585,0.258382 -0.320394,0.444418 -0.16881,0.18259 -0.361736,0.303168 -0.192925,0.117134 -0.416856,0.172255 -0.223932,0.05512 -0.485759,0.05512 -0.751032,0 -1.205784,-0.482314 -0.454753,-0.485759 -0.454753,-1.288466 0,-0.795818 0.440972,-1.288467 0.444418,-0.485759 1.178224,-0.485759 0.740696,0 1.171333,0.471979 0.427192,0.468533 0.427192,1.298801 z M 73.46435,77.496197 q -0.161919,-0.620118 -0.782037,-0.620118 -0.141249,0 -0.265272,0.04479 -0.124024,0.04134 -0.227377,0.124024 -0.09991,0.07924 -0.172255,0.192925 -0.07235,0.113689 -0.110243,0.258383 z"
         style="font-size:7.05556px;-inkscape-font-specification:'Futura, Normal'"
         id="path88799" />
      <path
         d="m 77.577795,73.806497 h 0.778592 v 5.81877 h -0.778592 v -0.3514 q -0.458198,0.447863 -1.036974,0.447863 -0.68902,0 -1.143773,-0.502985 -0.451307,-0.513319 -0.451307,-1.281576 0,-0.751031 0.451307,-1.254015 0.447863,-0.50643 1.126547,-0.50643 0.589112,0 1.0542,0.482314 z m -1.839682,4.130672 q 0,0.482314 0.258382,0.785482 0.265273,0.306614 0.668349,0.306614 0.430638,0 0.69591,-0.296278 0.265273,-0.306614 0.265273,-0.778592 0,-0.471979 -0.265273,-0.778592 -0.265272,-0.299724 -0.689019,-0.299724 -0.399632,0 -0.668349,0.303169 -0.265273,0.306613 -0.265273,0.757921 z"
         style="font-size:7.05556px;-inkscape-font-specification:'Futura, Normal'"
         id="path88801" />
      <path
         d="m 80.109941,76.269742 v 3.355525 h -0.775147 v -3.355525 z m -0.89228,-1.395265 q 0,-0.20326 0.148139,-0.3514 0.14814,-0.148139 0.354845,-0.148139 0.210151,0 0.358291,0.148139 0.148139,0.144694 0.148139,0.354845 0,0.210151 -0.148139,0.358291 -0.144695,0.148139 -0.354845,0.148139 -0.210151,0 -0.358291,-0.148139 -0.148139,-0.14814 -0.148139,-0.361736 z"
         style="font-size:7.05556px;-inkscape-font-specification:'Futura, Normal'"
         id="path88803" />
      <path
         d="m 81.897946,76.993212 v 2.632055 H 81.122799 V 76.993212 H 80.79207 v -0.72347 h 0.330729 v -1.2299 h 0.775147 v 1.2299 h 0.602893 v 0.72347 z"
         style="font-size:7.05556px;-inkscape-font-specification:'Futura, Normal'"
         id="path88805" />
      <path
         d="m 83.803087,76.269742 v 3.355525 H 83.02794 v -3.355525 z m -0.89228,-1.395265 q 0,-0.20326 0.148139,-0.3514 0.148139,-0.148139 0.354845,-0.148139 0.210151,0 0.35829,0.148139 0.14814,0.144694 0.14814,0.354845 0,0.210151 -0.14814,0.358291 -0.144694,0.148139 -0.354845,0.148139 -0.210151,0 -0.35829,-0.148139 -0.148139,-0.14814 -0.148139,-0.361736 z"
         style="font-size:7.05556px;-inkscape-font-specification:'Futura, Normal'"
         id="path88807" />
      <path
         d="m 84.633355,77.923389 q 0,-0.726916 0.52021,-1.23679 0.52021,-0.509875 1.267796,-0.509875 0.751031,0 1.274686,0.51332 0.516765,0.513319 0.516765,1.260906 0,0.754476 -0.52021,1.26435 -0.523655,0.50643 -1.285022,0.50643 -0.754476,0 -1.264351,-0.516765 -0.509874,-0.509874 -0.509874,-1.281576 z m 0.792373,0.01378 q 0,0.502984 0.268717,0.795818 0.275608,0.296278 0.726916,0.296278 0.454753,0 0.726915,-0.292833 0.272163,-0.292833 0.272163,-0.782037 0,-0.489204 -0.272163,-0.782038 -0.275607,-0.296278 -0.726915,-0.296278 -0.444418,0 -0.720026,0.296278 -0.275607,0.296279 -0.275607,0.764812 z"
         style="font-size:7.05556px;-inkscape-font-specification:'Futura, Normal'"
         id="path88809" />
      <path
         d="m 89.036188,76.269742 h 0.778592 v 0.310059 q 0.406521,-0.403077 0.916396,-0.403077 0.585666,0 0.912951,0.368626 0.282498,0.313504 0.282498,1.023194 v 2.056723 h -0.778593 v -1.874133 q 0,-0.496094 -0.137803,-0.685575 -0.134359,-0.192925 -0.489204,-0.192925 -0.385851,0 -0.547771,0.254937 -0.158474,0.251492 -0.158474,0.8785 v 1.619196 h -0.778592 z"
         style="font-size:7.05556px;-inkscape-font-specification:'Futura, Normal'"
         id="path88811" />
    </g>
    <g
       aria-label="v3.0"
       id="text83314"
       style="font-size:10.5833px;line-height:1.25;font-family:Futura;-inkscape-font-specification:Futura;stroke-width:0.264583">
      <path
         d="m 76.220444,89.564273 1.302242,2.826692 1.297075,-2.826692 h 1.307409 l -2.614819,5.3795 -2.594148,-5.3795 z"
         id="path88814" />
      <path
         d="m 82.912521,90.892353 v -1.028357 q 0.764809,0 1.028358,-0.170532 0.470254,-0.299722 0.470254,-0.961179 0,-0.511595 -0.341064,-0.831987 -0.335895,-0.325561 -0.873328,-0.325561 -0.50126,0 -0.775144,0.242878 -0.263549,0.248047 -0.39274,0.837156 h -1.19889 q 0.186035,-1.126543 0.764809,-1.648473 0.578774,-0.527098 1.617467,-0.527098 1.049029,0 1.710485,0.620115 0.661456,0.614948 0.661456,1.586462 0,1.095537 -0.868161,1.705317 0.992184,0.583941 0.992184,1.896519 0,1.074866 -0.723468,1.756993 -0.723467,0.682126 -1.855178,0.682126 -1.441767,0 -2.139397,-1.059363 -0.289387,-0.444416 -0.366902,-1.229895 h 1.162716 q 0.09302,0.578774 0.449584,0.888832 0.361734,0.30489 0.940508,0.30489 0.583942,0 0.966346,-0.387572 0.382405,-0.397908 0.382405,-1.007688 0,-0.806149 -0.573607,-1.147213 -0.335896,-0.19637 -1.038693,-0.19637 z"
         id="path88816" />
      <path
         d="m 87.620229,94.018768 q 0,-0.289387 0.211872,-0.50126 0.211873,-0.211873 0.506428,-0.211873 0.294555,0 0.506427,0.211873 0.211873,0.211873 0.211873,0.506427 0,0.299723 -0.211873,0.511595 -0.206705,0.206705 -0.506427,0.206705 -0.30489,0 -0.511595,-0.206705 -0.206705,-0.206705 -0.206705,-0.516762 z"
         id="path88818" />
      <path
         d="m 90.421083,90.556458 q 0,-1.906855 0.888832,-3.043733 0.795814,-1.028357 1.927525,-1.028357 1.13171,0 1.927524,1.028357 0.888832,1.136878 0.888832,3.095409 0,1.953363 -0.888832,3.090241 -0.795814,1.028357 -1.922357,1.028357 -1.126542,0 -1.932692,-1.028357 -0.888832,-1.136878 -0.888832,-3.141917 z m 1.183387,0.0052 q 0,1.32808 0.459918,2.206577 0.459919,0.862994 1.173052,0.862994 0.707964,0 1.173051,-0.862994 0.465086,-0.857826 0.465086,-2.165236 0,-1.307409 -0.465086,-2.170403 -0.465087,-0.857826 -1.173051,-0.857826 -0.702798,0 -1.167884,0.857826 -0.465086,0.852658 -0.465086,2.129062 z"
         id="path88820" />
    </g>
    <text
       xml:space="preserve"
       style="font-size:10.5833px;line-height:1.25;font-family:Futura;-inkscape-font-specification:Futura;stroke-width:0.264583"
       x="103.10452"
       y="123.18097"
       id="text86294"><tspan
         sodipodi:role="line"
         id="tspan86292"
         style="stroke-width:0.264583"
         x="103.10452"
         y="123.18097" /></text>
  </g>
</svg>
