  0
SECTION
  2
HEADER
  9
$ACADVER
  1
AC1014
  9
$HANDSEED
  5
FFFF
  9
$MEASUREMENT
 70
     1
  0
ENDSEC
  0
SECTION
  2
TABLES
  0
TABLE
  2
VPORT
  5
8
330
0
100
AcDbSymbolTable
 70
     4
  0
VPORT
  5
2E
330
8
100
AcDbSymbolTableRecord
100
AcDbViewportTableRecord
  2
*ACTIVE
 70
     0
 10
0.0
 20
0.0
 11
1.0
 21
1.0
 12
210.0
 22
148.5
 13
0.0
 23
0.0
 14
10.0
 24
10.0
 15
10.0
 25
10.0
 16
0.0
 26
0.0
 36
1.0
 17
0.0
 27
0.0
 37
0.0
 40
341.0
 41
1.24
 42
50.0
 43
0.0
 44
0.0
 50
0.0
 51
0.0
 71
     0
 72
   100
 73
     1
 74
     3
 75
     0
 76
     0
 77
     0
 78
     0
  0
ENDTAB
  0
TABLE
  2
LTYPE
  5
5
330
0
100
AcDbSymbolTable
 70
     1
  0
LTYPE
  5
14
330
5
100
AcDbSymbolTableRecord
100
AcDbLinetypeTableRecord
  2
BYBLOCK
 70
     0
  3

 72
    65
 73
     0
 40
0.0
  0
LTYPE
  5
15
330
5
100
AcDbSymbolTableRecord
100
AcDbLinetypeTableRecord
  2
BYLAYER
 70
     0
  3

 72
    65
 73
     0
 40
0.0
  0
LTYPE
  5
16
330
5
100
AcDbSymbolTableRecord
100
AcDbLinetypeTableRecord
  2
CONTINUOUS
 70
     0
  3
Solid line
 72
    65
 73
     0
 40
0.0
  0
ENDTAB
  0
TABLE
  2
LAYER
  5
2
100
AcDbSymbolTable
 70
2
  0
LAYER
  5
50
100
AcDbSymbolTableRecord
100
AcDbLayerTableRecord
  2
0
 70
0
  6
CONTINUOUS
  0
LAYER
  5
51
100
AcDbSymbolTableRecord
100
AcDbLayerTableRecord
  2
Layer_1
 70
0
  6
CONTINUOUS
  0
ENDTAB
  0
TABLE
  2
STYLE
  5
3
330
0
100
AcDbSymbolTable
 70
     1
  0
STYLE
  5
11
330
3
100
AcDbSymbolTableRecord
100
AcDbTextStyleTableRecord
  2
STANDARD
 70
     0
 40
0.0
 41
1.0
 50
0.0
 71
     0
 42
2.5
  3
txt
  4

  0
ENDTAB
  0
TABLE
  2
VIEW
  5
6
330
0
100
AcDbSymbolTable
 70
     0
  0
ENDTAB
  0
TABLE
  2
UCS
  5
7
330
0
100
AcDbSymbolTable
 70
     0
  0
ENDTAB
  0
TABLE
  2
APPID
  5
9
330
0
100
AcDbSymbolTable
 70
     2
  0
APPID
  5
12
330
9
100
AcDbSymbolTableRecord
100
AcDbRegAppTableRecord
  2
ACAD
 70
     0
  0
ENDTAB
  0
TABLE
  2
DIMSTYLE
  5
A
330
0
100
AcDbSymbolTable
 70
     1
  0
DIMSTYLE
105
27
330
A
100
AcDbSymbolTableRecord
100
AcDbDimStyleTableRecord
  2
ISO-25
 70
     0
  3

  4

  5

  6

  7

 40
1.0
 41
2.5
 42
0.625
 43
3.75
 44
1.25
 45
0.0
 46
0.0
 47
0.0
 48
0.0
140
2.5
141
2.5
142
0.0
143
0.03937007874016
144
1.0
145
0.0
146
1.0
147
0.625
 71
     0
 72
     0
 73
     0
 74
     0
 75
     0
 76
     0
 77
     1
 78
     8
170
     0
171
     3
172
     1
173
     0
174
     0
175
     0
176
     0
177
     0
178
     0
270
     2
271
     2
272
     2
273
     2
274
     3
340
11
275
     0
280
     0
281
     0
282
     0
283
     0
284
     8
285
     0
286
     0
287
     3
288
     0
  0
ENDTAB
  0
TABLE
  2
BLOCK_RECORD
  5
1
330
0
100
AcDbSymbolTable
 70
     1
  0
BLOCK_RECORD
  5
1F
330
1
100
AcDbSymbolTableRecord
100
AcDbBlockTableRecord
  2
*MODEL_SPACE
  0
BLOCK_RECORD
  5
1B
330
1
100
AcDbSymbolTableRecord
100
AcDbBlockTableRecord
  2
*PAPER_SPACE
  0
ENDTAB
  0
ENDSEC
  0
SECTION
  2
BLOCKS
  0
BLOCK
  5
20
330
1F
100
AcDbEntity
  8
0
100
AcDbBlockBegin
  2
*MODEL_SPACE
 70
     0
 10
0.0
 20
0.0
 30
0.0
  3
*MODEL_SPACE
  1

  0
ENDBLK
  5
21
330
1F
100
AcDbEntity
  8
0
100
AcDbBlockEnd
  0
BLOCK
  5
1C
330
1B
100
AcDbEntity
 67
     1
  8
0
100
AcDbBlockBegin
  2
*PAPER_SPACE
  1

  0
ENDBLK
  5
1D
330
1B
100
AcDbEntity
 67
     1
  8
0
100
AcDbBlockEnd
  0
ENDSEC
  0
SECTION
  2
ENTITIES
  0
SPLINE
  5
100
100
AcDbEntity
  8
Layer_1
 62
7
100
AcDbSpline
 70
8
 71
3
 72
8
 73
4
 74
0
 40
0
 40
0
 40
0
 40
0
 40
1
 40
1
 40
1
 40
1
 10
7.358880
 20
20.187116
 30
0.0
 10
8.157395
 20
20.275793
 30
0.0
 10
8.936158
 20
20.539240
 30
0.0
 10
9.695171
 20
20.977456
 30
0.0
  0
SPLINE
  5
101
100
AcDbEntity
  8
Layer_1
 62
7
100
AcDbSpline
 70
8
 71
3
 72
8
 73
4
 74
0
 40
0
 40
0
 40
0
 40
0
 40
1
 40
1
 40
1
 40
1
 10
9.695171
 20
20.977456
 30
0.0
 10
10.618875
 20
21.510757
 30
0.0
 10
11.282467
 20
22.304417
 30
0.0
 10
11.685945
 20
23.358435
 30
0.0
  0
SPLINE
  5
102
100
AcDbEntity
  8
Layer_1
 62
7
100
AcDbSpline
 70
8
 71
3
 72
8
 73
4
 74
0
 40
0
 40
0
 40
0
 40
0
 40
1
 40
1
 40
1
 40
1
 10
11.685945
 20
23.358435
 30
0.0
 10
11.927324
 20
23.965614
 30
0.0
 10
12.072294
 20
24.574416
 30
0.0
 10
12.120854
 20
25.184839
 30
0.0
  0
SPLINE
  5
103
100
AcDbEntity
  8
Layer_1
 62
7
100
AcDbSpline
 70
8
 71
3
 72
8
 73
4
 74
0
 40
0
 40
0
 40
0
 40
0
 40
1
 40
1
 40
1
 40
1
 10
12.120854
 20
25.184839
 30
0.0
 10
12.176574
 20
25.799396
 30
0.0
 10
12.159245
 20
26.581819
 30
0.0
 10
12.068867
 20
27.532109
 30
0.0
  0
LWPOLYLINE
  5
104
100
AcDbEntity
  8
Layer_1
 62
7
100
AcDbPolyline
 90
2
 70
0
 10
7.514148
 20
19.174044
 30
0.0
 10
7.358880
 20
20.187116
 30
0.0
  0
SPLINE
  5
105
100
AcDbEntity
  8
Layer_1
 62
7
100
AcDbSpline
 70
8
 71
3
 72
8
 73
4
 74
0
 40
0
 40
0
 40
0
 40
0
 40
1
 40
1
 40
1
 40
1
 10
12.055575
 20
27.753571
 30
0.0
 10
11.242146
 20
27.789946
 30
0.0
 10
10.504119
 20
28.051253
 30
0.0
 10
9.841494
 20
28.537494
 30
0.0
  0
SPLINE
  5
106
100
AcDbEntity
  8
Layer_1
 62
7
100
AcDbSpline
 70
8
 71
3
 72
8
 73
4
 74
0
 40
0
 40
0
 40
0
 40
0
 40
1
 40
1
 40
1
 40
1
 10
9.841494
 20
28.537494
 30
0.0
 10
9.181897
 20
29.035029
 30
0.0
 10
8.570978
 20
29.770711
 30
0.0
 10
8.008738
 20
30.744539
 30
0.0
  0
SPLINE
  5
107
100
AcDbEntity
  8
Layer_1
 62
7
100
AcDbSpline
 70
8
 71
3
 72
8
 73
4
 74
0
 40
0
 40
0
 40
0
 40
0
 40
1
 40
1
 40
1
 40
1
 10
8.008738
 20
30.744539
 30
0.0
 10
7.620131
 20
31.417625
 30
0.0
 10
7.306413
 20
32.200780
 30
0.0
 10
7.067583
 20
33.094003
 30
0.0
  0
SPLINE
  5
108
100
AcDbEntity
  8
Layer_1
 62
7
100
AcDbSpline
 70
8
 71
3
 72
8
 73
4
 74
0
 40
0
 40
0
 40
0
 40
0
 40
1
 40
1
 40
1
 40
1
 10
7.067583
 20
33.094003
 30
0.0
 10
6.824619
 20
33.994386
 30
0.0
 10
6.691426
 20
34.886541
 30
0.0
 10
6.668004
 20
35.770468
 30
0.0
  0
SPLINE
  5
109
100
AcDbEntity
  8
Layer_1
 62
7
100
AcDbSpline
 70
8
 71
3
 72
8
 73
4
 74
0
 40
0
 40
0
 40
0
 40
0
 40
1
 40
1
 40
1
 40
1
 10
6.668004
 20
35.770468
 30
0.0
 10
6.628640
 20
36.549716
 30
0.0
 10
6.690819
 20
37.210965
 30
0.0
 10
6.854540
 20
37.754214
 30
0.0
  0
SPLINE
  5
10a
100
AcDbEntity
  8
Layer_1
 62
7
100
AcDbSpline
 70
8
 71
3
 72
8
 73
4
 74
0
 40
0
 40
0
 40
0
 40
0
 40
1
 40
1
 40
1
 40
1
 10
6.854540
 20
37.754214
 30
0.0
 10
7.014128
 20
38.304624
 30
0.0
 10
7.251453
 20
38.670779
 30
0.0
 10
7.566515
 20
38.852680
 30
0.0
  0
SPLINE
  5
10b
100
AcDbEntity
  8
Layer_1
 62
7
100
AcDbSpline
 70
8
 71
3
 72
8
 73
4
 74
0
 40
0
 40
0
 40
0
 40
0
 40
1
 40
1
 40
1
 40
1
 10
7.566515
 20
38.852680
 30
0.0
 10
7.996144
 20
39.100727
 30
0.0
 10
8.474355
 20
39.033118
 30
0.0
 10
9.001147
 20
38.649854
 30
0.0
  0
SPLINE
  5
10c
100
AcDbEntity
  8
Layer_1
 62
7
100
AcDbSpline
 70
8
 71
3
 72
8
 73
4
 74
0
 40
0
 40
0
 40
0
 40
0
 40
1
 40
1
 40
1
 40
1
 10
9.001147
 20
38.649854
 30
0.0
 10
9.527939
 20
38.266590
 30
0.0
 10
10.066254
 20
37.598785
 30
0.0
 10
10.616091
 20
36.646439
 30
0.0
  0
SPLINE
  5
10d
100
AcDbEntity
  8
Layer_1
 62
7
100
AcDbSpline
 70
8
 71
3
 72
8
 73
4
 74
0
 40
0
 40
0
 40
0
 40
0
 40
1
 40
1
 40
1
 40
1
 10
10.616091
 20
36.646439
 30
0.0
 10
11.033637
 20
35.923228
 30
0.0
 10
11.416379
 20
35.070130
 30
0.0
 10
11.764317
 20
34.087145
 30
0.0
  0
SPLINE
  5
10e
100
AcDbEntity
  8
Layer_1
 62
7
100
AcDbSpline
 70
8
 71
3
 72
8
 73
4
 74
0
 40
0
 40
0
 40
0
 40
0
 40
1
 40
1
 40
1
 40
1
 10
11.764317
 20
34.087145
 30
0.0
 10
12.115283
 20
33.115453
 30
0.0
 10
12.400291
 20
32.100907
 30
0.0
 10
12.619341
 20
31.043507
 30
0.0
  0
SPLINE
  5
10f
100
AcDbEntity
  8
Layer_1
 62
7
100
AcDbSpline
 70
8
 71
3
 72
8
 73
4
 74
0
 40
0
 40
0
 40
0
 40
0
 40
1
 40
1
 40
1
 40
1
 10
12.619341
 20
31.043507
 30
0.0
 10
12.838391
 20
29.986107
 30
0.0
 10
12.958370
 20
29.067228
 30
0.0
 10
12.979279
 20
28.286872
 30
0.0
  0
SPLINE
  5
110
100
AcDbEntity
  8
Layer_1
 62
7
100
AcDbSpline
 70
8
 71
3
 72
8
 73
4
 74
0
 40
0
 40
0
 40
0
 40
0
 40
1
 40
1
 40
1
 40
1
 10
12.979279
 20
28.286872
 30
0.0
 10
13.232408
 20
28.327996
 30
0.0
 10
13.473541
 20
28.414703
 30
0.0
 10
13.702677
 20
28.546995
 30
0.0
  0
SPLINE
  5
111
100
AcDbEntity
  8
Layer_1
 62
7
100
AcDbSpline
 70
8
 71
3
 72
8
 73
4
 74
0
 40
0
 40
0
 40
0
 40
0
 40
1
 40
1
 40
1
 40
1
 10
13.702677
 20
28.546995
 30
0.0
 10
13.931813
 20
28.679287
 30
0.0
 10
14.148952
 20
28.857162
 30
0.0
 10
14.354094
 20
29.080622
 30
0.0
  0
LWPOLYLINE
  5
112
100
AcDbEntity
  8
Layer_1
 62
7
100
AcDbPolyline
 90
2
 70
0
 10
12.068867
 20
27.532109
 30
0.0
 10
12.055575
 20
27.753571
 30
0.0
  0
SPLINE
  5
113
100
AcDbEntity
  8
Layer_1
 62
7
100
AcDbSpline
 70
8
 71
3
 72
8
 73
4
 74
0
 40
0
 40
0
 40
0
 40
0
 40
1
 40
1
 40
1
 40
1
 10
14.424859
 20
28.734811
 30
0.0
 10
14.271760
 20
28.570039
 30
0.0
 10
14.059161
 20
28.409105
 30
0.0
 10
13.787062
 20
28.252009
 30
0.0
  0
SPLINE
  5
114
100
AcDbEntity
  8
Layer_1
 62
7
100
AcDbSpline
 70
8
 71
3
 72
8
 73
4
 74
0
 40
0
 40
0
 40
0
 40
0
 40
1
 40
1
 40
1
 40
1
 10
13.787062
 20
28.252009
 30
0.0
 10
13.507803
 20
28.090778
 30
0.0
 10
13.233488
 20
27.970593
 30
0.0
 10
12.964118
 20
27.891451
 30
0.0
  0
SPLINE
  5
115
100
AcDbEntity
  8
Layer_1
 62
7
100
AcDbSpline
 70
8
 71
3
 72
8
 73
4
 74
0
 40
0
 40
0
 40
0
 40
0
 40
1
 40
1
 40
1
 40
1
 10
12.964118
 20
27.891451
 30
0.0
 10
12.954626
 20
26.568440
 30
0.0
 10
12.795791
 20
25.388341
 30
0.0
 10
12.487614
 20
24.351156
 30
0.0
  0
SPLINE
  5
116
100
AcDbEntity
  8
Layer_1
 62
7
100
AcDbSpline
 70
8
 71
3
 72
8
 73
4
 74
0
 40
0
 40
0
 40
0
 40
0
 40
1
 40
1
 40
1
 40
1
 10
12.487614
 20
24.351156
 30
0.0
 10
12.182464
 20
23.325265
 30
0.0
 10
11.717784
 20
22.426859
 30
0.0
 10
11.093575
 20
21.655936
 30
0.0
  0
SPLINE
  5
117
100
AcDbEntity
  8
Layer_1
 62
7
100
AcDbSpline
 70
8
 71
3
 72
8
 73
4
 74
0
 40
0
 40
0
 40
0
 40
0
 40
1
 40
1
 40
1
 40
1
 10
11.093575
 20
21.655936
 30
0.0
 10
10.476527
 20
20.889148
 30
0.0
 10
9.691830
 20
20.230835
 30
0.0
 10
8.739484
 20
19.680998
 30
0.0
  0
SPLINE
  5
118
100
AcDbEntity
  8
Layer_1
 62
7
100
AcDbSpline
 70
8
 71
3
 72
8
 73
4
 74
0
 40
0
 40
0
 40
0
 40
0
 40
1
 40
1
 40
1
 40
1
 10
8.739484
 20
19.680998
 30
0.0
 10
8.281212
 20
19.416415
 30
0.0
 10
7.872767
 20
19.247430
 30
0.0
 10
7.514149
 20
19.174045
 30
0.0
  0
LWPOLYLINE
  5
119
100
AcDbEntity
  8
Layer_1
 62
7
100
AcDbPolyline
 90
2
 70
0
 10
14.354094
 20
29.080622
 30
0.0
 10
14.424859
 20
28.734811
 30
0.0
  0
SPLINE
  5
11a
100
AcDbEntity
  8
Layer_1
 62
7
100
AcDbSpline
 70
8
 71
3
 72
8
 73
4
 74
0
 40
0
 40
0
 40
0
 40
0
 40
1
 40
1
 40
1
 40
1
 10
12.018248
 20
28.190292
 30
0.0
 10
11.934813
 20
28.963191
 30
0.0
 10
11.732596
 20
29.925289
 30
0.0
 10
11.411598
 20
31.076586
 30
0.0
  0
SPLINE
  5
11b
100
AcDbEntity
  8
Layer_1
 62
7
100
AcDbSpline
 70
8
 71
3
 72
8
 73
4
 74
0
 40
0
 40
0
 40
0
 40
0
 40
1
 40
1
 40
1
 40
1
 10
11.411598
 20
31.076586
 30
0.0
 10
11.092518
 20
32.257634
 30
0.0
 10
10.716007
 20
33.438938
 30
0.0
 10
10.282062
 20
34.620500
 30
0.0
  0
SPLINE
  5
11c
100
AcDbEntity
  8
Layer_1
 62
7
100
AcDbSpline
 70
8
 71
3
 72
8
 73
4
 74
0
 40
0
 40
0
 40
0
 40
0
 40
1
 40
1
 40
1
 40
1
 10
10.282062
 20
34.620500
 30
0.0
 10
9.843984
 20
35.809222
 30
0.0
 10
9.459580
 20
36.690003
 30
0.0
 10
9.128851
 20
37.262842
 30
0.0
  0
SPLINE
  5
11d
100
AcDbEntity
  8
Layer_1
 62
7
100
AcDbSpline
 70
8
 71
3
 72
8
 73
4
 74
0
 40
0
 40
0
 40
0
 40
0
 40
1
 40
1
 40
1
 40
1
 10
9.128851
 20
37.262842
 30
0.0
 10
8.847731
 20
37.749756
 30
0.0
 10
8.573406
 20
38.092609
 30
0.0
 10
8.305877
 20
38.291402
 30
0.0
  0
SPLINE
  5
11e
100
AcDbEntity
  8
Layer_1
 62
7
100
AcDbSpline
 70
8
 71
3
 72
8
 73
4
 74
0
 40
0
 40
0
 40
0
 40
0
 40
1
 40
1
 40
1
 40
1
 10
8.305877
 20
38.291402
 30
0.0
 10
8.038346
 20
38.490194
 30
0.0
 10
7.790013
 20
38.523445
 30
0.0
 10
7.560877
 20
38.391153
 30
0.0
  0
SPLINE
  5
11f
100
AcDbEntity
  8
Layer_1
 62
7
100
AcDbSpline
 70
8
 71
3
 72
8
 73
4
 74
0
 40
0
 40
0
 40
0
 40
0
 40
1
 40
1
 40
1
 40
1
 10
7.560877
 20
38.391153
 30
0.0
 10
7.231494
 20
38.200984
 30
0.0
 10
7.083053
 20
37.680878
 30
0.0
 10
7.115554
 20
36.830836
 30
0.0
  0
SPLINE
  5
120
100
AcDbEntity
  8
Layer_1
 62
7
100
AcDbSpline
 70
8
 71
3
 72
8
 73
4
 74
0
 40
0
 40
0
 40
0
 40
0
 40
1
 40
1
 40
1
 40
1
 10
7.115554
 20
36.830836
 30
0.0
 10
7.151081
 20
35.992087
 30
0.0
 10
7.351379
 20
35.000239
 30
0.0
 10
7.716447
 20
33.855291
 30
0.0
  0
SPLINE
  5
121
100
AcDbEntity
  8
Layer_1
 62
7
100
AcDbSpline
 70
8
 71
3
 72
8
 73
4
 74
0
 40
0
 40
0
 40
0
 40
0
 40
1
 40
1
 40
1
 40
1
 10
7.716447
 20
33.855291
 30
0.0
 10
8.088677
 20
32.714477
 30
0.0
 10
8.553845
 20
31.660737
 30
0.0
 10
9.111950
 20
30.694070
 30
0.0
  0
SPLINE
  5
122
100
AcDbEntity
  8
Layer_1
 62
7
100
AcDbSpline
 70
8
 71
3
 72
8
 73
4
 74
0
 40
0
 40
0
 40
0
 40
0
 40
1
 40
1
 40
1
 40
1
 10
9.111950
 20
30.694070
 30
0.0
 10
10.025589
 20
29.111600
 30
0.0
 10
10.994355
 20
28.277008
 30
0.0
 10
12.018248
 20
28.190292
 30
0.0
  0
LWPOLYLINE
  5
123
100
AcDbEntity
  8
Layer_1
 62
7
100
AcDbPolyline
 90
1
 70
1
 10
7.514149
 20
19.174045
 30
0.0
  0
LWPOLYLINE
  5
124
100
AcDbEntity
  8
Layer_1
 62
7
100
AcDbPolyline
 90
1
 70
1
 10
12.018248
 20
28.190292
 30
0.0
  0
SPLINE
  5
125
100
AcDbEntity
  8
Layer_1
 62
7
100
AcDbSpline
 70
8
 71
3
 72
8
 73
4
 74
0
 40
0
 40
0
 40
0
 40
0
 40
1
 40
1
 40
1
 40
1
 10
16.932262
 20
28.062954
 30
0.0
 10
17.066551
 20
27.615383
 30
0.0
 10
17.212244
 20
27.255548
 30
0.0
 10
17.369341
 20
26.983449
 30
0.0
  0
SPLINE
  5
126
100
AcDbEntity
  8
Layer_1
 62
7
100
AcDbSpline
 70
8
 71
3
 72
8
 73
4
 74
0
 40
0
 40
0
 40
0
 40
0
 40
1
 40
1
 40
1
 40
1
 10
17.369341
 20
26.983449
 30
0.0
 10
17.497498
 20
26.761474
 30
0.0
 10
17.642301
 20
26.601619
 30
0.0
 10
17.803749
 20
26.503884
 30
0.0
  0
SPLINE
  5
127
100
AcDbEntity
  8
Layer_1
 62
7
100
AcDbSpline
 70
8
 71
3
 72
8
 73
4
 74
0
 40
0
 40
0
 40
0
 40
0
 40
1
 40
1
 40
1
 40
1
 10
17.803749
 20
26.503884
 30
0.0
 10
17.968223
 20
26.417444
 30
0.0
 10
18.111324
 20
26.409364
 30
0.0
 10
18.233053
 20
26.479644
 30
0.0
  0
SPLINE
  5
128
100
AcDbEntity
  8
Layer_1
 62
7
100
AcDbSpline
 70
8
 71
3
 72
8
 73
4
 74
0
 40
0
 40
0
 40
0
 40
0
 40
1
 40
1
 40
1
 40
1
 10
18.233053
 20
26.479644
 30
0.0
 10
18.455028
 20
26.607802
 30
0.0
 10
18.656510
 20
27.077379
 30
0.0
 10
18.837500
 20
27.888375
 30
0.0
  0
LWPOLYLINE
  5
129
100
AcDbEntity
  8
Layer_1
 62
7
100
AcDbPolyline
 90
3
 70
0
 10
12.461947
 20
42.552640
 30
0.0
 10
16.787083
 20
28.537653
 30
0.0
 10
16.932262
 20
28.062954
 30
0.0
  0
SPLINE
  5
12a
100
AcDbEntity
  8
Layer_1
 62
7
100
AcDbSpline
 70
8
 71
3
 72
8
 73
4
 74
0
 40
0
 40
0
 40
0
 40
0
 40
1
 40
1
 40
1
 40
1
 10
19.056974
 20
27.657063
 30
0.0
 10
18.925811
 20
26.941665
 30
0.0
 10
18.813172
 20
26.442230
 30
0.0
 10
18.719058
 20
26.158757
 30
0.0
  0
SPLINE
  5
12b
100
AcDbEntity
  8
Layer_1
 62
7
100
AcDbSpline
 70
8
 71
3
 72
8
 73
4
 74
0
 40
0
 40
0
 40
0
 40
0
 40
1
 40
1
 40
1
 40
1
 10
18.719058
 20
26.158757
 30
0.0
 10
18.620809
 20
25.882445
 30
0.0
 10
18.489339
 20
25.696746
 30
0.0
 10
18.324648
 20
25.601661
 30
0.0
  0
SPLINE
  5
12c
100
AcDbEntity
  8
Layer_1
 62
7
100
AcDbSpline
 70
8
 71
3
 72
8
 73
4
 74
0
 40
0
 40
0
 40
0
 40
0
 40
1
 40
1
 40
1
 40
1
 10
18.324648
 20
25.601661
 30
0.0
 10
18.109833
 20
25.477638
 30
0.0
 10
17.851867
 20
25.486232
 30
0.0
 10
17.550749
 20
25.627445
 30
0.0
  0
SPLINE
  5
12d
100
AcDbEntity
  8
Layer_1
 62
7
100
AcDbSpline
 70
8
 71
3
 72
8
 73
4
 74
0
 40
0
 40
0
 40
0
 40
0
 40
1
 40
1
 40
1
 40
1
 10
17.550749
 20
25.627445
 30
0.0
 10
17.252658
 20
25.779950
 30
0.0
 10
17.014730
 20
26.010154
 30
0.0
 10
16.836963
 20
26.318055
 30
0.0
  0
SPLINE
  5
12e
100
AcDbEntity
  8
Layer_1
 62
7
100
AcDbSpline
 70
8
 71
3
 72
8
 73
4
 74
0
 40
0
 40
0
 40
0
 40
0
 40
1
 40
1
 40
1
 40
1
 10
16.836963
 20
26.318055
 30
0.0
 10
16.712939
 20
26.532870
 30
0.0
 10
16.563112
 20
26.899866
 30
0.0
 10
16.387481
 20
27.419042
 30
0.0
  0
LWPOLYLINE
  5
12f
100
AcDbEntity
  8
Layer_1
 62
7
100
AcDbPolyline
 90
3
 70
0
 10
18.837500
 20
27.888375
 30
0.0
 10
19.096168
 20
27.837223
 30
0.0
 10
19.056974
 20
27.657063
 30
0.0
  0
LWPOLYLINE
  5
130
100
AcDbEntity
  8
Layer_1
 62
7
100
AcDbPolyline
 90
3
 70
0
 10
16.387481
 20
27.419042
 30
0.0
 10
11.650429
 20
41.353739
 30
0.0
 10
12.461947
 20
42.552640
 30
0.0
  0
SPLINE
  5
131
100
AcDbEntity
  8
Layer_1
 62
7
100
AcDbSpline
 70
8
 71
3
 72
8
 73
4
 74
0
 40
0
 40
0
 40
0
 40
0
 40
1
 40
1
 40
1
 40
1
 10
20.111522
 20
29.898501
 30
0.0
 10
20.245812
 20
29.450930
 30
0.0
 10
20.391505
 20
29.091095
 30
0.0
 10
20.548601
 20
28.818996
 30
0.0
  0
SPLINE
  5
132
100
AcDbEntity
  8
Layer_1
 62
7
100
AcDbSpline
 70
8
 71
3
 72
8
 73
4
 74
0
 40
0
 40
0
 40
0
 40
0
 40
1
 40
1
 40
1
 40
1
 10
20.548601
 20
28.818996
 30
0.0
 10
20.676759
 20
28.597021
 30
0.0
 10
20.821562
 20
28.437166
 30
0.0
 10
20.983010
 20
28.339431
 30
0.0
  0
SPLINE
  5
133
100
AcDbEntity
  8
Layer_1
 62
7
100
AcDbSpline
 70
8
 71
3
 72
8
 73
4
 74
0
 40
0
 40
0
 40
0
 40
0
 40
1
 40
1
 40
1
 40
1
 10
20.983010
 20
28.339431
 30
0.0
 10
21.147484
 20
28.252991
 30
0.0
 10
21.290585
 20
28.244911
 30
0.0
 10
21.412313
 20
28.315191
 30
0.0
  0
SPLINE
  5
134
100
AcDbEntity
  8
Layer_1
 62
7
100
AcDbSpline
 70
8
 71
3
 72
8
 73
4
 74
0
 40
0
 40
0
 40
0
 40
0
 40
1
 40
1
 40
1
 40
1
 10
21.412313
 20
28.315191
 30
0.0
 10
21.634288
 20
28.443349
 30
0.0
 10
21.835771
 20
28.912926
 30
0.0
 10
22.016761
 20
29.723922
 30
0.0
  0
LWPOLYLINE
  5
135
100
AcDbEntity
  8
Layer_1
 62
7
100
AcDbPolyline
 90
3
 70
0
 10
15.641208
 20
44.388187
 30
0.0
 10
19.966344
 20
30.373200
 30
0.0
 10
20.111522
 20
29.898501
 30
0.0
  0
SPLINE
  5
136
100
AcDbEntity
  8
Layer_1
 62
7
100
AcDbSpline
 70
8
 71
3
 72
8
 73
4
 74
0
 40
0
 40
0
 40
0
 40
0
 40
1
 40
1
 40
1
 40
1
 10
22.236234
 20
29.492610
 30
0.0
 10
22.105072
 20
28.777212
 30
0.0
 10
21.992433
 20
28.277777
 30
0.0
 10
21.898318
 20
27.994304
 30
0.0
  0
SPLINE
  5
137
100
AcDbEntity
  8
Layer_1
 62
7
100
AcDbSpline
 70
8
 71
3
 72
8
 73
4
 74
0
 40
0
 40
0
 40
0
 40
0
 40
1
 40
1
 40
1
 40
1
 10
21.898318
 20
27.994304
 30
0.0
 10
21.800070
 20
27.717992
 30
0.0
 10
21.668600
 20
27.532293
 30
0.0
 10
21.503908
 20
27.437208
 30
0.0
  0
SPLINE
  5
138
100
AcDbEntity
  8
Layer_1
 62
7
100
AcDbSpline
 70
8
 71
3
 72
8
 73
4
 74
0
 40
0
 40
0
 40
0
 40
0
 40
1
 40
1
 40
1
 40
1
 10
21.503908
 20
27.437208
 30
0.0
 10
21.289093
 20
27.313185
 30
0.0
 10
21.031127
 20
27.321779
 30
0.0
 10
20.730010
 20
27.462992
 30
0.0
  0
SPLINE
  5
139
100
AcDbEntity
  8
Layer_1
 62
7
100
AcDbSpline
 70
8
 71
3
 72
8
 73
4
 74
0
 40
0
 40
0
 40
0
 40
0
 40
1
 40
1
 40
1
 40
1
 10
20.730010
 20
27.462992
 30
0.0
 10
20.431919
 20
27.615497
 30
0.0
 10
20.193990
 20
27.845701
 30
0.0
 10
20.016223
 20
28.153602
 30
0.0
  0
SPLINE
  5
13a
100
AcDbEntity
  8
Layer_1
 62
7
100
AcDbSpline
 70
8
 71
3
 72
8
 73
4
 74
0
 40
0
 40
0
 40
0
 40
0
 40
1
 40
1
 40
1
 40
1
 10
20.016223
 20
28.153602
 30
0.0
 10
19.892200
 20
28.368417
 30
0.0
 10
19.742372
 20
28.735413
 30
0.0
 10
19.566741
 20
29.254589
 30
0.0
  0
LWPOLYLINE
  5
13b
100
AcDbEntity
  8
Layer_1
 62
7
100
AcDbPolyline
 90
3
 70
0
 10
22.016761
 20
29.723922
 30
0.0
 10
22.275429
 20
29.672770
 30
0.0
 10
22.236234
 20
29.492610
 30
0.0
  0
LWPOLYLINE
  5
13c
100
AcDbEntity
  8
Layer_1
 62
7
100
AcDbPolyline
 90
3
 70
0
 10
19.566741
 20
29.254589
 30
0.0
 10
14.829690
 20
43.189286
 30
0.0
 10
15.641208
 20
44.388187
 30
0.0
  0
SPLINE
  5
13d
100
AcDbEntity
  8
Layer_1
 62
7
100
AcDbSpline
 70
8
 71
3
 72
8
 73
4
 74
0
 40
0
 40
0
 40
0
 40
0
 40
1
 40
1
 40
1
 40
1
 10
23.440826
 20
31.548576
 30
0.0
 10
23.562714
 20
31.122487
 30
0.0
 10
23.698072
 20
30.780554
 30
0.0
 10
23.846900
 20
30.522776
 30
0.0
  0
SPLINE
  5
13e
100
AcDbEntity
  8
Layer_1
 62
7
100
AcDbSpline
 70
8
 71
3
 72
8
 73
4
 74
0
 40
0
 40
0
 40
0
 40
0
 40
1
 40
1
 40
1
 40
1
 10
23.846900
 20
30.522776
 30
0.0
 10
23.991594
 20
30.272159
 30
0.0
 10
24.186115
 20
30.117140
 30
0.0
 10
24.430462
 20
30.057720
 30
0.0
  0
SPLINE
  5
13f
100
AcDbEntity
  8
Layer_1
 62
7
100
AcDbSpline
 70
8
 71
3
 72
8
 73
4
 74
0
 40
0
 40
0
 40
0
 40
0
 40
1
 40
1
 40
1
 40
1
 10
24.430462
 20
30.057720
 30
0.0
 10
24.674809
 20
29.998300
 30
0.0
 10
24.922292
 20
30.040937
 30
0.0
 10
25.172909
 20
30.185631
 30
0.0
  0
SPLINE
  5
140
100
AcDbEntity
  8
Layer_1
 62
7
100
AcDbSpline
 70
8
 71
3
 72
8
 73
4
 74
0
 40
0
 40
0
 40
0
 40
0
 40
1
 40
1
 40
1
 40
1
 10
25.172909
 20
30.185631
 30
0.0
 10
25.781551
 20
30.537030
 30
0.0
 10
26.127934
 20
31.400554
 30
0.0
 10
26.212058
 20
32.776202
 30
0.0
  0
LWPOLYLINE
  5
141
100
AcDbEntity
  8
Layer_1
 62
7
100
AcDbPolyline
 90
2
 70
0
 10
22.082825
 20
36.306758
 30
0.0
 10
23.440826
 20
31.548576
 30
0.0
  0
SPLINE
  5
142
100
AcDbEntity
  8
Layer_1
 62
7
100
AcDbSpline
 70
8
 71
3
 72
8
 73
4
 74
0
 40
0
 40
0
 40
0
 40
0
 40
1
 40
1
 40
1
 40
1
 10
26.217817
 20
32.865448
 30
0.0
 10
26.190793
 20
32.945320
 30
0.0
 10
26.168462
 20
33.008805
 30
0.0
 10
26.150822
 20
33.055905
 30
0.0
  0
LWPOLYLINE
  5
143
100
AcDbEntity
  8
Layer_1
 62
7
100
AcDbPolyline
 90
2
 70
0
 10
26.212058
 20
32.776202
 30
0.0
 10
26.217817
 20
32.865448
 30
0.0
  0
SPLINE
  5
144
100
AcDbEntity
  8
Layer_1
 62
7
100
AcDbSpline
 70
8
 71
3
 72
8
 73
4
 74
0
 40
0
 40
0
 40
0
 40
0
 40
1
 40
1
 40
1
 40
1
 10
26.550425
 20
34.174517
 30
0.0
 10
26.727757
 20
33.503566
 30
0.0
 10
26.917709
 20
32.992658
 30
0.0
 10
27.120281
 20
32.641794
 30
0.0
  0
SPLINE
  5
145
100
AcDbEntity
  8
Layer_1
 62
7
100
AcDbSpline
 70
8
 71
3
 72
8
 73
4
 74
0
 40
0
 40
0
 40
0
 40
0
 40
1
 40
1
 40
1
 40
1
 10
27.120281
 20
32.641794
 30
0.0
 10
27.252572
 20
32.412658
 30
0.0
 10
27.399442
 20
32.249223
 30
0.0
 10
27.560890
 20
32.151488
 30
0.0
  0
SPLINE
  5
146
100
AcDbEntity
  8
Layer_1
 62
7
100
AcDbSpline
 70
8
 71
3
 72
8
 73
4
 74
0
 40
0
 40
0
 40
0
 40
0
 40
1
 40
1
 40
1
 40
1
 10
27.560890
 20
32.151488
 30
0.0
 10
27.722337
 20
32.053754
 30
0.0
 10
27.867506
 20
32.042094
 30
0.0
 10
27.996394
 20
32.116508
 30
0.0
  0
SPLINE
  5
147
100
AcDbEntity
  8
Layer_1
 62
7
100
AcDbSpline
 70
8
 71
3
 72
8
 73
4
 74
0
 40
0
 40
0
 40
0
 40
0
 40
1
 40
1
 40
1
 40
1
 10
27.996394
 20
32.116508
 30
0.0
 10
28.218370
 20
32.244665
 30
0.0
 10
28.419852
 20
32.714242
 30
0.0
 10
28.600842
 20
33.525239
 30
0.0
  0
LWPOLYLINE
  5
148
100
AcDbEntity
  8
Layer_1
 62
7
100
AcDbPolyline
 90
4
 70
0
 10
26.150822
 20
33.055905
 30
0.0
 10
24.657080
 20
37.205839
 30
0.0
 10
25.455425
 20
38.253925
 30
0.0
 10
26.550425
 20
34.174517
 30
0.0
  0
SPLINE
  5
149
100
AcDbEntity
  8
Layer_1
 62
7
100
AcDbSpline
 70
8
 71
3
 72
8
 73
4
 74
0
 40
0
 40
0
 40
0
 40
0
 40
1
 40
1
 40
1
 40
1
 10
28.820316
 20
33.293927
 30
0.0
 10
28.689153
 20
32.578529
 30
0.0
 10
28.576514
 20
32.079093
 30
0.0
 10
28.482400
 20
31.795621
 30
0.0
  0
SPLINE
  5
14a
100
AcDbEntity
  8
Layer_1
 62
7
100
AcDbSpline
 70
8
 71
3
 72
8
 73
4
 74
0
 40
0
 40
0
 40
0
 40
0
 40
1
 40
1
 40
1
 40
1
 10
28.482400
 20
31.795621
 30
0.0
 10
28.384151
 20
31.519308
 30
0.0
 10
28.252681
 20
31.333609
 30
0.0
 10
28.087990
 20
31.238525
 30
0.0
  0
SPLINE
  5
14b
100
AcDbEntity
  8
Layer_1
 62
7
100
AcDbSpline
 70
8
 71
3
 72
8
 73
4
 74
0
 40
0
 40
0
 40
0
 40
0
 40
1
 40
1
 40
1
 40
1
 10
28.087990
 20
31.238525
 30
0.0
 10
27.866014
 20
31.110367
 30
0.0
 10
27.612182
 20
31.111801
 30
0.0
 10
27.326493
 20
31.242826
 30
0.0
  0
SPLINE
  5
14c
100
AcDbEntity
  8
Layer_1
 62
7
100
AcDbSpline
 70
8
 71
3
 72
8
 73
4
 74
0
 40
0
 40
0
 40
0
 40
0
 40
1
 40
1
 40
1
 40
1
 10
27.326493
 20
31.242826
 30
0.0
 10
27.043831
 20
31.385145
 30
0.0
 10
26.805348
 20
31.624577
 30
0.0
 10
26.611045
 20
31.961120
 30
0.0
  0
SPLINE
  5
14d
100
AcDbEntity
  8
Layer_1
 62
7
100
AcDbSpline
 70
8
 71
3
 72
8
 73
4
 74
0
 40
0
 40
0
 40
0
 40
0
 40
1
 40
1
 40
1
 40
1
 10
26.611045
 20
31.961120
 30
0.0
 10
26.549033
 20
32.068527
 30
0.0
 10
26.494735
 20
32.170841
 30
0.0
 10
26.448151
 20
32.268061
 30
0.0
  0
SPLINE
  5
14e
100
AcDbEntity
  8
Layer_1
 62
7
100
AcDbSpline
 70
8
 71
3
 72
8
 73
4
 74
0
 40
0
 40
0
 40
0
 40
0
 40
1
 40
1
 40
1
 40
1
 10
26.448151
 20
32.268061
 30
0.0
 10
26.273967
 20
30.849964
 30
0.0
 10
25.821690
 20
29.930076
 30
0.0
 10
25.091319
 20
29.508396
 30
0.0
  0
SPLINE
  5
14f
100
AcDbEntity
  8
Layer_1
 62
7
100
AcDbSpline
 70
8
 71
3
 72
8
 73
4
 74
0
 40
0
 40
0
 40
0
 40
0
 40
1
 40
1
 40
1
 40
1
 10
25.091319
 20
29.508396
 30
0.0
 10
24.726134
 20
29.297556
 30
0.0
 10
24.372609
 20
29.231885
 30
0.0
 10
24.030744
 20
29.311382
 30
0.0
  0
SPLINE
  5
150
100
AcDbEntity
  8
Layer_1
 62
7
100
AcDbSpline
 70
8
 71
3
 72
8
 73
4
 74
0
 40
0
 40
0
 40
0
 40
0
 40
1
 40
1
 40
1
 40
1
 10
24.030744
 20
29.311382
 30
0.0
 10
23.691905
 20
29.402174
 30
0.0
 10
23.421200
 20
29.623001
 30
0.0
 10
23.218629
 20
29.973865
 30
0.0
  0
SPLINE
  5
151
100
AcDbEntity
  8
Layer_1
 62
7
100
AcDbSpline
 70
8
 71
3
 72
8
 73
4
 74
0
 40
0
 40
0
 40
0
 40
0
 40
1
 40
1
 40
1
 40
1
 10
23.218629
 20
29.973865
 30
0.0
 10
23.061532
 20
30.245964
 30
0.0
 10
22.908679
 20
30.601665
 30
0.0
 10
22.760068
 20
31.040968
 30
0.0
  0
LWPOLYLINE
  5
152
100
AcDbEntity
  8
Layer_1
 62
7
100
AcDbPolyline
 90
3
 70
0
 10
28.600842
 20
33.525239
 30
0.0
 10
28.859510
 20
33.474087
 30
0.0
 10
28.820316
 20
33.293927
 30
0.0
  0
LWPOLYLINE
  5
153
100
AcDbEntity
  8
Layer_1
 62
7
100
AcDbPolyline
 90
3
 70
0
 10
22.760068
 20
31.040968
 30
0.0
 10
21.295223
 20
35.264871
 30
0.0
 10
22.082825
 20
36.306758
 30
0.0
  0
SPLINE
  5
154
100
AcDbEntity
  8
Layer_1
 62
7
100
AcDbSpline
 70
8
 71
3
 72
8
 73
4
 74
0
 40
0
 40
0
 40
0
 40
0
 40
1
 40
1
 40
1
 40
1
 10
32.152724
 20
39.428270
 30
0.0
 10
32.152724
 20
39.428270
 30
0.0
 10
32.105439
 20
39.568048
 30
0.0
 10
32.010868
 20
39.847604
 30
0.0
  0
SPLINE
  5
155
100
AcDbEntity
  8
Layer_1
 62
7
100
AcDbSpline
 70
8
 71
3
 72
8
 73
4
 74
0
 40
0
 40
0
 40
0
 40
0
 40
1
 40
1
 40
1
 40
1
 10
32.010868
 20
39.847604
 30
0.0
 10
31.933942
 20
40.080063
 30
0.0
 10
31.856204
 20
40.264318
 30
0.0
 10
31.777656
 20
40.400367
 30
0.0
  0
SPLINE
  5
156
100
AcDbEntity
  8
Layer_1
 62
7
100
AcDbSpline
 70
8
 71
3
 72
8
 73
4
 74
0
 40
0
 40
0
 40
0
 40
0
 40
1
 40
1
 40
1
 40
1
 10
31.777656
 20
40.400367
 30
0.0
 10
31.595755
 20
40.715429
 30
0.0
 10
31.379496
 20
40.800613
 30
0.0
 10
31.128878
 20
40.655919
 30
0.0
  0
SPLINE
  5
157
100
AcDbEntity
  8
Layer_1
 62
7
100
AcDbSpline
 70
8
 71
3
 72
8
 73
4
 74
0
 40
0
 40
0
 40
0
 40
0
 40
1
 40
1
 40
1
 40
1
 10
31.128878
 20
40.655919
 30
0.0
 10
30.892582
 20
40.519493
 30
0.0
 10
30.699180
 20
40.193017
 30
0.0
 10
30.548671
 20
39.676492
 30
0.0
  0
SPLINE
  5
158
100
AcDbEntity
  8
Layer_1
 62
7
100
AcDbSpline
 70
8
 71
3
 72
8
 73
4
 74
0
 40
0
 40
0
 40
0
 40
0
 40
1
 40
1
 40
1
 40
1
 10
30.548671
 20
39.676492
 30
0.0
 10
30.394029
 20
39.167126
 30
0.0
 10
30.304168
 20
38.504216
 30
0.0
 10
30.279088
 20
37.687761
 30
0.0
  0
SPLINE
  5
159
100
AcDbEntity
  8
Layer_1
 62
7
100
AcDbSpline
 70
8
 71
3
 72
8
 73
4
 74
0
 40
0
 40
0
 40
0
 40
0
 40
1
 40
1
 40
1
 40
1
 10
30.279088
 20
37.687761
 30
0.0
 10
30.258873
 20
37.160534
 30
0.0
 10
30.262612
 20
36.666231
 30
0.0
 10
30.290306
 20
36.204854
 30
0.0
  0
SPLINE
  5
15a
100
AcDbEntity
  8
Layer_1
 62
7
100
AcDbSpline
 70
8
 71
3
 72
8
 73
4
 74
0
 40
0
 40
0
 40
0
 40
0
 40
1
 40
1
 40
1
 40
1
 10
30.290306
 20
36.204854
 30
0.0
 10
30.325159
 20
35.747610
 30
0.0
 10
30.385223
 20
35.271506
 30
0.0
 10
30.470498
 20
34.776541
 30
0.0
  0
SPLINE
  5
15b
100
AcDbEntity
  8
Layer_1
 62
7
100
AcDbSpline
 70
8
 71
3
 72
8
 73
4
 74
0
 40
0
 40
0
 40
0
 40
0
 40
1
 40
1
 40
1
 40
1
 10
30.470498
 20
34.776541
 30
0.0
 10
30.558798
 20
34.292871
 30
0.0
 10
30.685819
 20
33.750404
 30
0.0
 10
30.851560
 20
33.149140
 30
0.0
  0
LWPOLYLINE
  5
15c
100
AcDbEntity
  8
Layer_1
 62
7
100
AcDbPolyline
 90
3
 70
0
 10
34.406746
 20
35.201728
 30
0.0
 10
33.828082
 20
34.566895
 30
0.0
 10
32.152724
 20
39.428270
 30
0.0
  0
SPLINE
  5
15d
100
AcDbEntity
  8
Layer_1
 62
7
100
AcDbSpline
 70
8
 71
3
 72
8
 73
4
 74
0
 40
0
 40
0
 40
0
 40
0
 40
1
 40
1
 40
1
 40
1
 10
30.080150
 20
35.725495
 30
0.0
 10
29.919115
 20
37.112358
 30
0.0
 10
29.941860
 20
38.338001
 30
0.0
 10
30.148386
 20
39.402424
 30
0.0
  0
SPLINE
  5
15e
100
AcDbEntity
  8
Layer_1
 62
7
100
AcDbSpline
 70
8
 71
3
 72
8
 73
4
 74
0
 40
0
 40
0
 40
0
 40
0
 40
1
 40
1
 40
1
 40
1
 10
30.148386
 20
39.402424
 30
0.0
 10
30.357938
 20
40.478141
 30
0.0
 10
30.709751
 20
41.158627
 30
0.0
 10
31.203825
 20
41.443881
 30
0.0
  0
SPLINE
  5
15f
100
AcDbEntity
  8
Layer_1
 62
7
100
AcDbSpline
 70
8
 71
3
 72
8
 73
4
 74
0
 40
0
 40
0
 40
0
 40
0
 40
1
 40
1
 40
1
 40
1
 10
31.203825
 20
41.443881
 30
0.0
 10
31.740862
 20
41.753940
 30
0.0
 10
32.185081
 20
41.604648
 30
0.0
 10
32.536480
 20
40.996006
 30
0.0
  0
SPLINE
  5
160
100
AcDbEntity
  8
Layer_1
 62
7
100
AcDbSpline
 70
8
 71
3
 72
8
 73
4
 74
0
 40
0
 40
0
 40
0
 40
0
 40
1
 40
1
 40
1
 40
1
 10
32.536480
 20
40.996006
 30
0.0
 10
32.656370
 20
40.788351
 30
0.0
 10
32.815573
 20
40.388580
 30
0.0
 10
33.014090
 20
39.796691
 30
0.0
  0
LWPOLYLINE
  5
161
100
AcDbEntity
  8
Layer_1
 62
7
100
AcDbPolyline
 90
5
 70
0
 10
30.851560
 20
33.149140
 30
0.0
 10
30.315858
 20
32.539112
 30
0.0
 10
27.986706
 20
39.128205
 30
0.0
 10
28.763569
 20
40.163888
 30
0.0
 10
30.080150
 20
35.725495
 30
0.0
  0
SPLINE
  5
162
100
AcDbEntity
  8
Layer_1
 62
7
100
AcDbSpline
 70
8
 71
3
 72
8
 73
4
 74
0
 40
0
 40
0
 40
0
 40
0
 40
1
 40
1
 40
1
 40
1
 10
33.583620
 20
37.991682
 30
0.0
 10
33.509243
 20
39.724543
 30
0.0
 10
33.554834
 20
41.001565
 30
0.0
 10
33.720395
 20
41.822749
 30
0.0
  0
SPLINE
  5
163
100
AcDbEntity
  8
Layer_1
 62
7
100
AcDbSpline
 70
8
 71
3
 72
8
 73
4
 74
0
 40
0
 40
0
 40
0
 40
0
 40
1
 40
1
 40
1
 40
1
 10
33.720395
 20
41.822749
 30
0.0
 10
33.881821
 20
42.651093
 30
0.0
 10
34.198831
 20
43.201691
 30
0.0
 10
34.671424
 20
43.474542
 30
0.0
  0
SPLINE
  5
164
100
AcDbEntity
  8
Layer_1
 62
7
100
AcDbSpline
 70
8
 71
3
 72
8
 73
4
 74
0
 40
0
 40
0
 40
0
 40
0
 40
1
 40
1
 40
1
 40
1
 10
34.671424
 20
43.474542
 30
0.0
 10
34.936362
 20
43.627505
 30
0.0
 10
35.189492
 20
43.668628
 30
0.0
 10
35.430813
 20
43.597914
 30
0.0
  0
SPLINE
  5
165
100
AcDbEntity
  8
Layer_1
 62
7
100
AcDbSpline
 70
8
 71
3
 72
8
 73
4
 74
0
 40
0
 40
0
 40
0
 40
0
 40
1
 40
1
 40
1
 40
1
 10
35.430813
 20
43.597914
 30
0.0
 10
35.672134
 20
43.527199
 30
0.0
 10
35.877543
 20
43.345052
 30
0.0
 10
36.047042
 20
43.051471
 30
0.0
  0
SPLINE
  5
166
100
AcDbEntity
  8
Layer_1
 62
7
100
AcDbSpline
 70
8
 71
3
 72
8
 73
4
 74
0
 40
0
 40
0
 40
0
 40
0
 40
1
 40
1
 40
1
 40
1
 10
36.047042
 20
43.051471
 30
0.0
 10
36.183468
 20
42.815175
 30
0.0
 10
36.347508
 20
42.365685
 30
0.0
 10
36.539161
 20
41.703003
 30
0.0
  0
LWPOLYLINE
  5
167
100
AcDbEntity
  8
Layer_1
 62
7
100
AcDbPolyline
 90
2
 70
0
 10
33.014090
 20
39.796691
 30
0.0
 10
33.583620
 20
37.991682
 30
0.0
  0
SPLINE
  5
168
100
AcDbEntity
  8
Layer_1
 62
7
100
AcDbSpline
 70
8
 71
3
 72
8
 73
4
 74
0
 40
0
 40
0
 40
0
 40
0
 40
1
 40
1
 40
1
 40
1
 10
37.103380
 20
39.708755
 30
0.0
 10
37.259449
 20
39.206926
 30
0.0
 10
37.399495
 20
38.848604
 30
0.0
 10
37.523518
 20
38.633790
 30
0.0
  0
SPLINE
  5
169
100
AcDbEntity
  8
Layer_1
 62
7
100
AcDbSpline
 70
8
 71
3
 72
8
 73
4
 74
0
 40
0
 40
0
 40
0
 40
0
 40
1
 40
1
 40
1
 40
1
 10
37.523518
 20
38.633790
 30
0.0
 10
37.655810
 20
38.404654
 30
0.0
 10
37.802679
 20
38.241219
 30
0.0
 10
37.964127
 20
38.143484
 30
0.0
  0
SPLINE
  5
16a
100
AcDbEntity
  8
Layer_1
 62
7
100
AcDbSpline
 70
8
 71
3
 72
8
 73
4
 74
0
 40
0
 40
0
 40
0
 40
0
 40
1
 40
1
 40
1
 40
1
 10
37.964127
 20
38.143484
 30
0.0
 10
38.121441
 20
38.052910
 30
0.0
 10
38.260962
 20
38.042763
 30
0.0
 10
38.382690
 20
38.113043
 30
0.0
  0
SPLINE
  5
16b
100
AcDbEntity
  8
Layer_1
 62
7
100
AcDbSpline
 70
8
 71
3
 72
8
 73
4
 74
0
 40
0
 40
0
 40
0
 40
0
 40
1
 40
1
 40
1
 40
1
 10
38.382690
 20
38.113043
 30
0.0
 10
38.611826
 20
38.245335
 30
0.0
 10
38.816889
 20
38.716979
 30
0.0
 10
38.997878
 20
39.527975
 30
0.0
  0
LWPOLYLINE
  5
16c
100
AcDbEntity
  8
Layer_1
 62
7
100
AcDbPolyline
 90
3
 70
0
 10
36.539161
 20
41.703003
 30
0.0
 10
36.968942
 20
40.189655
 30
0.0
 10
37.103380
 20
39.708755
 30
0.0
  0
SPLINE
  5
16d
100
AcDbEntity
  8
Layer_1
 62
7
100
AcDbSpline
 70
8
 71
3
 72
8
 73
4
 74
0
 40
0
 40
0
 40
0
 40
0
 40
1
 40
1
 40
1
 40
1
 10
39.217352
 20
39.296663
 30
0.0
 10
39.086189
 20
38.581265
 30
0.0
 10
38.969970
 20
38.079763
 30
0.0
 10
38.868695
 20
37.792156
 30
0.0
  0
SPLINE
  5
16e
100
AcDbEntity
  8
Layer_1
 62
7
100
AcDbSpline
 70
8
 71
3
 72
8
 73
4
 74
0
 40
0
 40
0
 40
0
 40
0
 40
1
 40
1
 40
1
 40
1
 10
38.868695
 20
37.792156
 30
0.0
 10
38.770446
 20
37.515843
 30
0.0
 10
38.638976
 20
37.330145
 30
0.0
 10
38.474285
 20
37.235060
 30
0.0
  0
SPLINE
  5
16f
100
AcDbEntity
  8
Layer_1
 62
7
100
AcDbSpline
 70
8
 71
3
 72
8
 73
4
 74
0
 40
0
 40
0
 40
0
 40
0
 40
1
 40
1
 40
1
 40
1
 10
38.474285
 20
37.235060
 30
0.0
 10
38.252310
 20
37.106902
 30
0.0
 10
37.998478
 20
37.108336
 30
0.0
 10
37.712789
 20
37.239361
 30
0.0
  0
SPLINE
  5
170
100
AcDbEntity
  8
Layer_1
 62
7
100
AcDbSpline
 70
8
 71
3
 72
8
 73
4
 74
0
 40
0
 40
0
 40
0
 40
0
 40
1
 40
1
 40
1
 40
1
 10
37.712789
 20
37.239361
 30
0.0
 10
37.430127
 20
37.381681
 30
0.0
 10
37.191644
 20
37.621112
 30
0.0
 10
36.997341
 20
37.957655
 30
0.0
  0
SPLINE
  5
171
100
AcDbEntity
  8
Layer_1
 62
7
100
AcDbSpline
 70
8
 71
3
 72
8
 73
4
 74
0
 40
0
 40
0
 40
0
 40
0
 40
1
 40
1
 40
1
 40
1
 10
36.997341
 20
37.957655
 30
0.0
 10
36.877451
 20
38.165310
 30
0.0
 10
36.727624
 20
38.532305
 30
0.0
 10
36.547859
 20
39.058642
 30
0.0
  0
LWPOLYLINE
  5
172
100
AcDbEntity
  8
Layer_1
 62
7
100
AcDbPolyline
 90
3
 70
0
 10
38.997878
 20
39.527975
 30
0.0
 10
39.245806
 20
39.470622
 30
0.0
 10
39.217352
 20
39.296663
 30
0.0
  0
SPLINE
  5
173
100
AcDbEntity
  8
Layer_1
 62
7
100
AcDbSpline
 70
8
 71
3
 72
8
 73
4
 74
0
 40
0
 40
0
 40
0
 40
0
 40
1
 40
1
 40
1
 40
1
 10
35.502826
 20
41.935293
 30
0.0
 10
35.421766
 20
42.174912
 30
0.0
 10
35.344029
 20
42.359166
 30
0.0
 10
35.269614
 20
42.488056
 30
0.0
  0
SPLINE
  5
174
100
AcDbEntity
  8
Layer_1
 62
7
100
AcDbSpline
 70
8
 71
3
 72
8
 73
4
 74
0
 40
0
 40
0
 40
0
 40
0
 40
1
 40
1
 40
1
 40
1
 10
35.269614
 20
42.488056
 30
0.0
 10
35.195200
 20
42.616945
 30
0.0
 10
35.095873
 20
42.698034
 30
0.0
 10
34.971632
 20
42.731324
 30
0.0
  0
SPLINE
  5
175
100
AcDbEntity
  8
Layer_1
 62
7
100
AcDbSpline
 70
8
 71
3
 72
8
 73
4
 74
0
 40
0
 40
0
 40
0
 40
0
 40
1
 40
1
 40
1
 40
1
 10
34.971632
 20
42.731324
 30
0.0
 10
34.847392
 20
42.764614
 30
0.0
 10
34.717247
 20
42.741985
 30
0.0
 10
34.581197
 20
42.663437
 30
0.0
  0
SPLINE
  5
176
100
AcDbEntity
  8
Layer_1
 62
7
100
AcDbSpline
 70
8
 71
3
 72
8
 73
4
 74
0
 40
0
 40
0
 40
0
 40
0
 40
1
 40
1
 40
1
 40
1
 10
34.581197
 20
42.663437
 30
0.0
 10
34.423666
 20
42.572486
 30
0.0
 10
34.287508
 20
42.403176
 30
0.0
 10
34.172723
 20
42.155506
 30
0.0
  0
SPLINE
  5
177
100
AcDbEntity
  8
Layer_1
 62
7
100
AcDbSpline
 70
8
 71
3
 72
8
 73
4
 74
0
 40
0
 40
0
 40
0
 40
0
 40
1
 40
1
 40
1
 40
1
 10
34.172723
 20
42.155506
 30
0.0
 10
34.060964
 20
41.919130
 30
0.0
 10
33.976225
 20
41.602881
 30
0.0
 10
33.918507
 20
41.206759
 30
0.0
  0
SPLINE
  5
178
100
AcDbEntity
  8
Layer_1
 62
7
100
AcDbSpline
 70
8
 71
3
 72
8
 73
4
 74
0
 40
0
 40
0
 40
0
 40
0
 40
1
 40
1
 40
1
 40
1
 10
33.918507
 20
41.206759
 30
0.0
 10
33.860788
 20
40.810636
 30
0.0
 10
33.827617
 20
40.314118
 30
0.0
 10
33.818994
 20
39.717205
 30
0.0
  0
SPLINE
  5
179
100
AcDbEntity
  8
Layer_1
 62
7
100
AcDbSpline
 70
8
 71
3
 72
8
 73
4
 74
0
 40
0
 40
0
 40
0
 40
0
 40
1
 40
1
 40
1
 40
1
 10
33.818994
 20
39.717205
 30
0.0
 10
33.812369
 20
38.901857
 30
0.0
 10
33.851031
 20
38.165166
 30
0.0
 10
33.934980
 20
37.507132
 30
0.0
  0
SPLINE
  5
17a
100
AcDbEntity
  8
Layer_1
 62
7
100
AcDbSpline
 70
8
 71
3
 72
8
 73
4
 74
0
 40
0
 40
0
 40
0
 40
0
 40
1
 40
1
 40
1
 40
1
 10
33.934980
 20
37.507132
 30
0.0
 10
34.014795
 20
36.856259
 30
0.0
 10
34.172050
 20
36.087790
 30
0.0
 10
34.406746
 20
35.201728
 30
0.0
  0
LWPOLYLINE
  5
17b
100
AcDbEntity
  8
Layer_1
 62
7
100
AcDbPolyline
 90
3
 70
0
 10
36.547859
 20
39.058642
 30
0.0
 10
35.661624
 20
41.511419
 30
0.0
 10
35.502826
 20
41.935293
 30
0.0
  0
SPLINE
  5
17c
100
AcDbEntity
  8
Layer_1
 62
7
100
AcDbSpline
 70
8
 71
3
 72
8
 73
4
 74
0
 40
0
 40
0
 40
0
 40
0
 40
1
 40
1
 40
1
 40
1
 10
36.944564
 20
50.501017
 30
0.0
 10
37.130737
 20
50.608504
 30
0.0
 10
37.314180
 20
50.638036
 30
0.0
 10
37.494894
 20
50.589613
 30
0.0
  0
SPLINE
  5
17d
100
AcDbEntity
  8
Layer_1
 62
7
100
AcDbSpline
 70
8
 71
3
 72
8
 73
4
 74
0
 40
0
 40
0
 40
0
 40
0
 40
1
 40
1
 40
1
 40
1
 10
37.494894
 20
50.589613
 30
0.0
 10
37.675608
 20
50.541192
 30
0.0
 10
37.819708
 20
50.423894
 30
0.0
 10
37.927195
 20
50.237721
 30
0.0
  0
SPLINE
  5
17e
100
AcDbEntity
  8
Layer_1
 62
7
100
AcDbSpline
 70
8
 71
3
 72
8
 73
4
 74
0
 40
0
 40
0
 40
0
 40
0
 40
1
 40
1
 40
1
 40
1
 10
37.927195
 20
50.237721
 30
0.0
 10
38.030548
 20
50.058709
 30
0.0
 10
38.056500
 20
49.873198
 30
0.0
 10
38.005052
 20
49.681190
 30
0.0
  0
SPLINE
  5
17f
100
AcDbEntity
  8
Layer_1
 62
7
100
AcDbSpline
 70
8
 71
3
 72
8
 73
4
 74
0
 40
0
 40
0
 40
0
 40
0
 40
1
 40
1
 40
1
 40
1
 10
38.005052
 20
49.681190
 30
0.0
 10
37.953603
 20
49.489182
 30
0.0
 10
37.841953
 20
49.343568
 30
0.0
 10
37.670101
 20
49.244350
 30
0.0
  0
SPLINE
  5
180
100
AcDbEntity
  8
Layer_1
 62
7
100
AcDbSpline
 70
8
 71
3
 72
8
 73
4
 74
0
 40
0
 40
0
 40
0
 40
0
 40
1
 40
1
 40
1
 40
1
 10
37.670101
 20
49.244350
 30
0.0
 10
37.505409
 20
49.149265
 30
0.0
 10
37.321412
 20
49.128960
 30
0.0
 10
37.118109
 20
49.183435
 30
0.0
  0
SPLINE
  5
181
100
AcDbEntity
  8
Layer_1
 62
7
100
AcDbSpline
 70
8
 71
3
 72
8
 73
4
 74
0
 40
0
 40
0
 40
0
 40
0
 40
1
 40
1
 40
1
 40
1
 10
37.118109
 20
49.183435
 30
0.0
 10
36.914806
 20
49.237910
 30
0.0
 10
36.765613
 20
49.347493
 30
0.0
 10
36.670528
 20
49.512184
 30
0.0
  0
SPLINE
  5
182
100
AcDbEntity
  8
Layer_1
 62
7
100
AcDbSpline
 70
8
 71
3
 72
8
 73
4
 74
0
 40
0
 40
0
 40
0
 40
0
 40
1
 40
1
 40
1
 40
1
 10
36.670528
 20
49.512184
 30
0.0
 10
36.571309
 20
49.684036
 30
0.0
 10
36.547424
 20
49.865966
 30
0.0
 10
36.598873
 20
50.057975
 30
0.0
  0
SPLINE
  5
183
100
AcDbEntity
  8
Layer_1
 62
7
100
AcDbSpline
 70
8
 71
3
 72
8
 73
4
 74
0
 40
0
 40
0
 40
0
 40
0
 40
1
 40
1
 40
1
 40
1
 10
36.598873
 20
50.057975
 30
0.0
 10
36.650321
 20
50.249983
 30
0.0
 10
36.765551
 20
50.397664
 30
0.0
 10
36.944564
 20
50.501017
 30
0.0
  0
LWPOLYLINE
  5
184
100
AcDbEntity
  8
Layer_1
 62
7
100
AcDbPolyline
 90
1
 70
1
 10
34.406746
 20
35.201728
 30
0.0
  0
LWPOLYLINE
  5
185
100
AcDbEntity
  8
Layer_1
 62
7
100
AcDbPolyline
 90
1
 70
1
 10
36.944564
 20
50.501017
 30
0.0
  0
SPLINE
  5
186
100
AcDbEntity
  8
Layer_1
 62
7
100
AcDbSpline
 70
8
 71
3
 72
8
 73
4
 74
0
 40
0
 40
0
 40
0
 40
0
 40
1
 40
1
 40
1
 40
1
 10
40.158942
 20
42.031402
 30
0.0
 10
40.336274
 20
41.360452
 30
0.0
 10
40.526226
 20
40.849544
 30
0.0
 10
40.728798
 20
40.498680
 30
0.0
  0
SPLINE
  5
187
100
AcDbEntity
  8
Layer_1
 62
7
100
AcDbSpline
 70
8
 71
3
 72
8
 73
4
 74
0
 40
0
 40
0
 40
0
 40
0
 40
1
 40
1
 40
1
 40
1
 10
40.728798
 20
40.498680
 30
0.0
 10
40.861090
 20
40.269544
 30
0.0
 10
41.007959
 20
40.106108
 30
0.0
 10
41.169407
 20
40.008374
 30
0.0
  0
SPLINE
  5
188
100
AcDbEntity
  8
Layer_1
 62
7
100
AcDbSpline
 70
8
 71
3
 72
8
 73
4
 74
0
 40
0
 40
0
 40
0
 40
0
 40
1
 40
1
 40
1
 40
1
 10
41.169407
 20
40.008374
 30
0.0
 10
41.330854
 20
39.910639
 30
0.0
 10
41.476023
 20
39.898979
 30
0.0
 10
41.604912
 20
39.973393
 30
0.0
  0
SPLINE
  5
189
100
AcDbEntity
  8
Layer_1
 62
7
100
AcDbSpline
 70
8
 71
3
 72
8
 73
4
 74
0
 40
0
 40
0
 40
0
 40
0
 40
1
 40
1
 40
1
 40
1
 10
41.604912
 20
39.973393
 30
0.0
 10
41.826887
 20
40.101551
 30
0.0
 10
42.028369
 20
40.571128
 30
0.0
 10
42.209359
 20
41.382124
 30
0.0
  0
LWPOLYLINE
  5
18a
100
AcDbEntity
  8
Layer_1
 62
7
100
AcDbPolyline
 90
2
 70
0
 10
39.063942
 20
46.110810
 30
0.0
 10
40.158942
 20
42.031402
 30
0.0
  0
SPLINE
  5
18b
100
AcDbEntity
  8
Layer_1
 62
7
100
AcDbSpline
 70
8
 71
3
 72
8
 73
4
 74
0
 40
0
 40
0
 40
0
 40
0
 40
1
 40
1
 40
1
 40
1
 10
42.428833
 20
41.150812
 30
0.0
 10
42.297670
 20
40.435414
 30
0.0
 10
42.185031
 20
39.935979
 30
0.0
 10
42.090917
 20
39.652506
 30
0.0
  0
SPLINE
  5
18c
100
AcDbEntity
  8
Layer_1
 62
7
100
AcDbSpline
 70
8
 71
3
 72
8
 73
4
 74
0
 40
0
 40
0
 40
0
 40
0
 40
1
 40
1
 40
1
 40
1
 10
42.090917
 20
39.652506
 30
0.0
 10
41.992668
 20
39.376194
 30
0.0
 10
41.861198
 20
39.190495
 30
0.0
 10
41.696506
 20
39.095410
 30
0.0
  0
SPLINE
  5
18d
100
AcDbEntity
  8
Layer_1
 62
7
100
AcDbSpline
 70
8
 71
3
 72
8
 73
4
 74
0
 40
0
 40
0
 40
0
 40
0
 40
1
 40
1
 40
1
 40
1
 10
41.696506
 20
39.095410
 30
0.0
 10
41.474531
 20
38.967253
 30
0.0
 10
41.220699
 20
38.968687
 30
0.0
 10
40.935011
 20
39.099712
 30
0.0
  0
SPLINE
  5
18e
100
AcDbEntity
  8
Layer_1
 62
7
100
AcDbSpline
 70
8
 71
3
 72
8
 73
4
 74
0
 40
0
 40
0
 40
0
 40
0
 40
1
 40
1
 40
1
 40
1
 10
40.935011
 20
39.099712
 30
0.0
 10
40.652348
 20
39.242031
 30
0.0
 10
40.413866
 20
39.481463
 30
0.0
 10
40.219562
 20
39.818006
 30
0.0
  0
SPLINE
  5
18f
100
AcDbEntity
  8
Layer_1
 62
7
100
AcDbSpline
 70
8
 71
3
 72
8
 73
4
 74
0
 40
0
 40
0
 40
0
 40
0
 40
1
 40
1
 40
1
 40
1
 10
40.219562
 20
39.818006
 30
0.0
 10
40.095539
 20
40.032821
 30
0.0
 10
39.942132
 20
40.397749
 30
0.0
 10
39.759340
 20
40.912791
 30
0.0
  0
LWPOLYLINE
  5
190
100
AcDbEntity
  8
Layer_1
 62
7
100
AcDbPolyline
 90
3
 70
0
 10
42.209359
 20
41.382124
 30
0.0
 10
42.468027
 20
41.330972
 30
0.0
 10
42.428833
 20
41.150812
 30
0.0
  0
LWPOLYLINE
  5
191
100
AcDbEntity
  8
Layer_1
 62
7
100
AcDbPolyline
 90
3
 70
0
 10
39.759340
 20
40.912791
 30
0.0
 10
38.265597
 20
45.062725
 30
0.0
 10
39.063942
 20
46.110810
 30
0.0
  0
SPLINE
  5
192
100
AcDbEntity
  8
Layer_1
 62
7
100
AcDbSpline
 70
8
 71
3
 72
8
 73
4
 74
0
 40
0
 40
0
 40
0
 40
0
 40
1
 40
1
 40
1
 40
1
 10
43.713476
 20
43.539416
 30
0.0
 10
43.584327
 20
45.135634
 30
0.0
 10
43.625231
 20
46.429045
 30
0.0
 10
43.836187
 20
47.419647
 30
0.0
  0
SPLINE
  5
193
100
AcDbEntity
  8
Layer_1
 62
7
100
AcDbSpline
 70
8
 71
3
 72
8
 73
4
 74
0
 40
0
 40
0
 40
0
 40
0
 40
1
 40
1
 40
1
 40
1
 10
43.836187
 20
47.419647
 30
0.0
 10
44.047143
 20
48.410250
 30
0.0
 10
44.421140
 20
49.060581
 30
0.0
 10
44.958177
 20
49.370639
 30
0.0
  0
SPLINE
  5
194
100
AcDbEntity
  8
Layer_1
 62
7
100
AcDbSpline
 70
8
 71
3
 72
8
 73
4
 74
0
 40
0
 40
0
 40
0
 40
0
 40
1
 40
1
 40
1
 40
1
 10
44.958177
 20
49.370639
 30
0.0
 10
45.223115
 20
49.523602
 30
0.0
 10
45.489607
 20
49.558119
 30
0.0
 10
45.757651
 20
49.474191
 30
0.0
  0
SPLINE
  5
195
100
AcDbEntity
  8
Layer_1
 62
7
100
AcDbSpline
 70
8
 71
3
 72
8
 73
4
 74
0
 40
0
 40
0
 40
0
 40
0
 40
1
 40
1
 40
1
 40
1
 10
45.757651
 20
49.474191
 30
0.0
 10
46.021562
 20
49.397424
 30
0.0
 10
46.238266
 20
49.212250
 30
0.0
 10
46.407765
 20
48.918670
 30
0.0
  0
SPLINE
  5
196
100
AcDbEntity
  8
Layer_1
 62
7
100
AcDbSpline
 70
8
 71
3
 72
8
 73
4
 74
0
 40
0
 40
0
 40
0
 40
0
 40
1
 40
1
 40
1
 40
1
 10
46.407765
 20
48.918670
 30
0.0
 10
46.502849
 20
48.753978
 30
0.0
 10
46.597825
 20
48.498524
 30
0.0
 10
46.692693
 20
48.152308
 30
0.0
  0
LWPOLYLINE
  5
197
100
AcDbEntity
  8
Layer_1
 62
7
100
AcDbPolyline
 90
4
 70
0
 10
43.892157
 20
40.377392
 30
0.0
 10
41.595227
 20
46.985088
 30
0.0
 10
42.361350
 20
48.014570
 30
0.0
 10
43.713476
 20
43.539416
 30
0.0
  0
SPLINE
  5
198
100
AcDbEntity
  8
Layer_1
 62
7
100
AcDbSpline
 70
8
 71
3
 72
8
 73
4
 74
0
 40
0
 40
0
 40
0
 40
0
 40
1
 40
1
 40
1
 40
1
 10
47.414493
 20
45.661879
 30
0.0
 10
47.555132
 20
45.170237
 30
0.0
 10
47.691598
 20
44.809848
 30
0.0
 10
47.823889
 20
44.580712
 30
0.0
  0
SPLINE
  5
199
100
AcDbEntity
  8
Layer_1
 62
7
100
AcDbSpline
 70
8
 71
3
 72
8
 73
4
 74
0
 40
0
 40
0
 40
0
 40
0
 40
1
 40
1
 40
1
 40
1
 10
47.823889
 20
44.580712
 30
0.0
 10
47.956181
 20
44.351576
 30
0.0
 10
48.103051
 20
44.188141
 30
0.0
 10
48.264499
 20
44.090406
 30
0.0
  0
SPLINE
  5
19a
100
AcDbEntity
  8
Layer_1
 62
7
100
AcDbSpline
 70
8
 71
3
 72
8
 73
4
 74
0
 40
0
 40
0
 40
0
 40
0
 40
1
 40
1
 40
1
 40
1
 10
48.264499
 20
44.090406
 30
0.0
 10
48.421812
 20
43.999832
 30
0.0
 10
48.564913
 20
43.991752
 30
0.0
 10
48.693802
 20
44.066166
 30
0.0
  0
SPLINE
  5
19b
100
AcDbEntity
  8
Layer_1
 62
7
100
AcDbSpline
 70
8
 71
3
 72
8
 73
4
 74
0
 40
0
 40
0
 40
0
 40
0
 40
1
 40
1
 40
1
 40
1
 10
48.693802
 20
44.066166
 30
0.0
 10
48.915778
 20
44.194324
 30
0.0
 10
49.117260
 20
44.663901
 30
0.0
 10
49.298250
 20
45.474897
 30
0.0
  0
LWPOLYLINE
  5
19c
100
AcDbEntity
  8
Layer_1
 62
7
100
AcDbPolyline
 90
4
 70
0
 10
46.692693
 20
48.152308
 30
0.0
 10
46.845734
 20
47.639185
 30
0.0
 10
47.280055
 20
46.142779
 30
0.0
 10
47.414493
 20
45.661879
 30
0.0
  0
SPLINE
  5
19d
100
AcDbEntity
  8
Layer_1
 62
7
100
AcDbSpline
 70
8
 71
3
 72
8
 73
4
 74
0
 40
0
 40
0
 40
0
 40
0
 40
1
 40
1
 40
1
 40
1
 10
49.517723
 20
45.243585
 30
0.0
 10
49.386561
 20
44.528188
 30
0.0
 10
49.273922
 20
44.028752
 30
0.0
 10
49.179807
 20
43.745279
 30
0.0
  0
SPLINE
  5
19e
100
AcDbEntity
  8
Layer_1
 62
7
100
AcDbSpline
 70
8
 71
3
 72
8
 73
4
 74
0
 40
0
 40
0
 40
0
 40
0
 40
1
 40
1
 40
1
 40
1
 10
49.179807
 20
43.745279
 30
0.0
 10
49.081559
 20
43.468967
 30
0.0
 10
48.950089
 20
43.283268
 30
0.0
 10
48.785397
 20
43.188183
 30
0.0
  0
SPLINE
  5
19f
100
AcDbEntity
  8
Layer_1
 62
7
100
AcDbSpline
 70
8
 71
3
 72
8
 73
4
 74
0
 40
0
 40
0
 40
0
 40
0
 40
1
 40
1
 40
1
 40
1
 10
48.785397
 20
43.188183
 30
0.0
 10
48.563422
 20
43.060026
 30
0.0
 10
48.309590
 20
43.061460
 30
0.0
 10
48.023901
 20
43.192485
 30
0.0
  0
SPLINE
  5
1a0
100
AcDbEntity
  8
Layer_1
 62
7
100
AcDbSpline
 70
8
 71
3
 72
8
 73
4
 74
0
 40
0
 40
0
 40
0
 40
0
 40
1
 40
1
 40
1
 40
1
 10
48.023901
 20
43.192485
 30
0.0
 10
47.741239
 20
43.334804
 30
0.0
 10
47.502757
 20
43.574236
 30
0.0
 10
47.308453
 20
43.910779
 30
0.0
  0
SPLINE
  5
1a1
100
AcDbEntity
  8
Layer_1
 62
7
100
AcDbSpline
 70
8
 71
3
 72
8
 73
4
 74
0
 40
0
 40
0
 40
0
 40
0
 40
1
 40
1
 40
1
 40
1
 10
47.308453
 20
43.910779
 30
0.0
 10
47.176162
 20
44.139915
 30
0.0
 10
47.022754
 20
44.504843
 30
0.0
 10
46.848231
 20
45.005564
 30
0.0
  0
LWPOLYLINE
  5
1a2
100
AcDbEntity
  8
Layer_1
 62
7
100
AcDbPolyline
 90
3
 70
0
 10
49.298250
 20
45.474897
 30
0.0
 10
49.556918
 20
45.423746
 30
0.0
 10
49.517723
 20
45.243585
 30
0.0
  0
SPLINE
  5
1a3
100
AcDbEntity
  8
Layer_1
 62
7
100
AcDbSpline
 70
8
 71
3
 72
8
 73
4
 74
0
 40
0
 40
0
 40
0
 40
0
 40
1
 40
1
 40
1
 40
1
 10
45.952471
 20
47.524448
 30
0.0
 10
45.803050
 20
47.915546
 30
0.0
 10
45.686998
 20
48.182700
 30
0.0
 10
45.604316
 20
48.325910
 30
0.0
  0
SPLINE
  5
1a4
100
AcDbEntity
  8
Layer_1
 62
7
100
AcDbSpline
 70
8
 71
3
 72
8
 73
4
 74
0
 40
0
 40
0
 40
0
 40
0
 40
1
 40
1
 40
1
 40
1
 10
45.604316
 20
48.325910
 30
0.0
 10
45.517500
 20
48.476280
 30
0.0
 10
45.411971
 20
48.568110
 30
0.0
 10
45.287730
 20
48.601400
 30
0.0
  0
SPLINE
  5
1a5
100
AcDbEntity
  8
Layer_1
 62
7
100
AcDbSpline
 70
8
 71
3
 72
8
 73
4
 74
0
 40
0
 40
0
 40
0
 40
0
 40
1
 40
1
 40
1
 40
1
 10
45.287730
 20
48.601400
 30
0.0
 10
45.163490
 20
48.634690
 30
0.0
 10
45.033345
 20
48.612061
 30
0.0
 10
44.897296
 20
48.533513
 30
0.0
  0
SPLINE
  5
1a6
100
AcDbEntity
  8
Layer_1
 62
7
100
AcDbSpline
 70
8
 71
3
 72
8
 73
4
 74
0
 40
0
 40
0
 40
0
 40
0
 40
1
 40
1
 40
1
 40
1
 10
44.897296
 20
48.533513
 30
0.0
 10
44.403221
 20
48.248259
 30
0.0
 10
44.100504
 20
47.366983
 30
0.0
 10
43.989143
 20
45.889684
 30
0.0
  0
SPLINE
  5
1a7
100
AcDbEntity
  8
Layer_1
 62
7
100
AcDbSpline
 70
8
 71
3
 72
8
 73
4
 74
0
 40
0
 40
0
 40
0
 40
0
 40
1
 40
1
 40
1
 40
1
 10
43.989143
 20
45.889684
 30
0.0
 10
43.931800
 20
45.178717
 30
0.0
 10
43.933255
 20
44.506470
 30
0.0
 10
43.993507
 20
43.872944
 30
0.0
  0
SPLINE
  5
1a8
100
AcDbEntity
  8
Layer_1
 62
7
100
AcDbSpline
 70
8
 71
3
 72
8
 73
4
 74
0
 40
0
 40
0
 40
0
 40
0
 40
1
 40
1
 40
1
 40
1
 10
43.993507
 20
43.872944
 30
0.0
 10
44.049625
 20
43.246578
 30
0.0
 10
44.188722
 20
42.410342
 30
0.0
 10
44.410799
 20
41.364237
 30
0.0
  0
LWPOLYLINE
  5
1a9
100
AcDbEntity
  8
Layer_1
 62
7
100
AcDbPolyline
 90
2
 70
0
 10
46.848231
 20
45.005564
 30
0.0
 10
45.952471
 20
47.524448
 30
0.0
  0
LWPOLYLINE
  5
1aa
100
AcDbEntity
  8
Layer_1
 62
7
100
AcDbPolyline
 90
3
 70
0
 10
44.410799
 20
41.364237
 30
0.0
 10
44.481563
 20
41.018426
 30
0.0
 10
43.892157
 20
40.377392
 30
0.0
  0
SPLINE
  5
1ab
100
AcDbEntity
  8
Layer_1
 62
7
100
AcDbSpline
 70
8
 71
3
 72
8
 73
4
 74
0
 40
0
 40
0
 40
0
 40
0
 40
1
 40
1
 40
1
 40
1
 10
54.507480
 20
49.871584
 30
0.0
 10
54.648119
 20
49.379942
 30
0.0
 10
54.788719
 20
49.012393
 30
0.0
 10
54.929279
 20
48.768936
 30
0.0
  0
SPLINE
  5
1ac
100
AcDbEntity
  8
Layer_1
 62
7
100
AcDbSpline
 70
8
 71
3
 72
8
 73
4
 74
0
 40
0
 40
0
 40
0
 40
0
 40
1
 40
1
 40
1
 40
1
 10
54.929279
 20
48.768936
 30
0.0
 10
55.053302
 20
48.554122
 30
0.0
 10
55.207332
 20
48.394820
 30
0.0
 10
55.391369
 20
48.291032
 30
0.0
  0
SPLINE
  5
1ad
100
AcDbEntity
  8
Layer_1
 62
7
100
AcDbSpline
 70
8
 71
3
 72
8
 73
4
 74
0
 40
0
 40
0
 40
0
 40
0
 40
1
 40
1
 40
1
 40
1
 10
55.391369
 20
48.291032
 30
0.0
 10
55.575406
 20
48.187246
 30
0.0
 10
55.735449
 20
48.174626
 30
0.0
 10
55.871498
 20
48.253174
 30
0.0
  0
SPLINE
  5
1ae
100
AcDbEntity
  8
Layer_1
 62
7
100
AcDbSpline
 70
8
 71
3
 72
8
 73
4
 74
0
 40
0
 40
0
 40
0
 40
0
 40
1
 40
1
 40
1
 40
1
 10
55.871498
 20
48.253174
 30
0.0
 10
56.079153
 20
48.373063
 30
0.0
 10
56.276096
 20
48.825698
 30
0.0
 10
56.462327
 20
49.611079
 30
0.0
  0
LWPOLYLINE
  5
1af
100
AcDbEntity
  8
Layer_1
 62
7
100
AcDbPolyline
 90
2
 70
0
 10
53.247481
 20
54.385606
 30
0.0
 10
54.507480
 20
49.871584
 30
0.0
  0
SPLINE
  5
1b0
100
AcDbEntity
  8
Layer_1
 62
7
100
AcDbSpline
 70
8
 71
3
 72
8
 73
4
 74
0
 40
0
 40
0
 40
0
 40
0
 40
1
 40
1
 40
1
 40
1
 10
56.661981
 20
49.339683
 30
0.0
 10
56.534655
 20
48.683784
 30
0.0
 10
56.418842
 20
48.206384
 30
0.0
 10
56.314541
 20
47.907482
 30
0.0
  0
SPLINE
  5
1b1
100
AcDbEntity
  8
Layer_1
 62
7
100
AcDbSpline
 70
8
 71
3
 72
8
 73
4
 74
0
 40
0
 40
0
 40
0
 40
0
 40
1
 40
1
 40
1
 40
1
 10
56.314541
 20
47.907482
 30
0.0
 10
56.213265
 20
47.619875
 30
0.0
 10
56.087442
 20
47.432663
 30
0.0
 10
55.937072
 20
47.345847
 30
0.0
  0
SPLINE
  5
1b2
100
AcDbEntity
  8
Layer_1
 62
7
100
AcDbSpline
 70
8
 71
3
 72
8
 73
4
 74
0
 40
0
 40
0
 40
0
 40
0
 40
1
 40
1
 40
1
 40
1
 10
55.937072
 20
47.345847
 30
0.0
 10
55.707936
 20
47.213555
 30
0.0
 10
55.439230
 20
47.215948
 30
0.0
 10
55.130952
 20
47.353026
 30
0.0
  0
SPLINE
  5
1b3
100
AcDbEntity
  8
Layer_1
 62
7
100
AcDbSpline
 70
8
 71
3
 72
8
 73
4
 74
0
 40
0
 40
0
 40
0
 40
0
 40
1
 40
1
 40
1
 40
1
 10
55.130952
 20
47.353026
 30
0.0
 10
54.825701
 20
47.501398
 30
0.0
 10
54.582124
 20
47.733115
 30
0.0
 10
54.400223
 20
48.048177
 30
0.0
  0
SPLINE
  5
1b4
100
AcDbEntity
  8
Layer_1
 62
7
100
AcDbSpline
 70
8
 71
3
 72
8
 73
4
 74
0
 40
0
 40
0
 40
0
 40
0
 40
1
 40
1
 40
1
 40
1
 10
54.400223
 20
48.048177
 30
0.0
 10
54.267932
 20
48.277313
 30
0.0
 10
54.054134
 20
48.846058
 30
0.0
 10
53.758831
 20
49.754413
 30
0.0
  0
LWPOLYLINE
  5
1b5
100
AcDbEntity
  8
Layer_1
 62
7
100
AcDbPolyline
 90
3
 70
0
 10
56.462327
 20
49.611079
 30
0.0
 10
56.699514
 20
49.547525
 30
0.0
 10
56.661981
 20
49.339683
 30
0.0
  0
SPLINE
  5
1b6
100
AcDbEntity
  8
Layer_1
 62
7
100
AcDbSpline
 70
8
 71
3
 72
8
 73
4
 74
0
 40
0
 40
0
 40
0
 40
0
 40
1
 40
1
 40
1
 40
1
 10
53.609114
 20
50.212172
 30
0.0
 10
53.699709
 20
49.443406
 30
0.0
 10
53.686329
 20
48.648027
 30
0.0
 10
53.568973
 20
47.826032
 30
0.0
  0
SPLINE
  5
1b7
100
AcDbEntity
  8
Layer_1
 62
7
100
AcDbSpline
 70
8
 71
3
 72
8
 73
4
 74
0
 40
0
 40
0
 40
0
 40
0
 40
1
 40
1
 40
1
 40
1
 10
53.568973
 20
47.826032
 30
0.0
 10
53.369985
 20
46.450899
 30
0.0
 10
52.930367
 20
45.566962
 30
0.0
 10
52.250120
 20
45.174221
 30
0.0
  0
SPLINE
  5
1b8
100
AcDbEntity
  8
Layer_1
 62
7
100
AcDbSpline
 70
8
 71
3
 72
8
 73
4
 74
0
 40
0
 40
0
 40
0
 40
0
 40
1
 40
1
 40
1
 40
1
 10
52.250120
 20
45.174221
 30
0.0
 10
51.841971
 20
44.938577
 30
0.0
 10
51.435000
 20
44.899332
 30
0.0
 10
51.029205
 20
45.056486
 30
0.0
  0
SPLINE
  5
1b9
100
AcDbEntity
  8
Layer_1
 62
7
100
AcDbSpline
 70
8
 71
3
 72
8
 73
4
 74
0
 40
0
 40
0
 40
0
 40
0
 40
1
 40
1
 40
1
 40
1
 10
51.029205
 20
45.056486
 30
0.0
 10
50.623409
 20
45.213641
 30
0.0
 10
50.277885
 20
45.539255
 30
0.0
 10
49.992631
 20
46.033329
 30
0.0
  0
SPLINE
  5
1ba
100
AcDbEntity
  8
Layer_1
 62
7
100
AcDbSpline
 70
8
 71
3
 72
8
 73
4
 74
0
 40
0
 40
0
 40
0
 40
0
 40
1
 40
1
 40
1
 40
1
 10
49.992631
 20
46.033329
 30
0.0
 10
49.604024
 20
46.706416
 30
0.0
 10
49.386567
 20
47.521279
 30
0.0
 10
49.340260
 20
48.477918
 30
0.0
  0
SPLINE
  5
1bb
100
AcDbEntity
  8
Layer_1
 62
7
100
AcDbSpline
 70
8
 71
3
 72
8
 73
4
 74
0
 40
0
 40
0
 40
0
 40
0
 40
1
 40
1
 40
1
 40
1
 10
49.340260
 20
48.477918
 30
0.0
 10
49.301113
 20
49.438692
 30
0.0
 10
49.427953
 20
50.318672
 30
0.0
 10
49.720780
 20
51.117860
 30
0.0
  0
SPLINE
  5
1bc
100
AcDbEntity
  8
Layer_1
 62
7
100
AcDbSpline
 70
8
 71
3
 72
8
 73
4
 74
0
 40
0
 40
0
 40
0
 40
0
 40
1
 40
1
 40
1
 40
1
 10
49.720780
 20
51.117860
 30
0.0
 10
50.016635
 20
51.928343
 30
0.0
 10
50.433081
 20
52.488613
 30
0.0
 10
50.970118
 20
52.798672
 30
0.0
  0
SPLINE
  5
1bd
100
AcDbEntity
  8
Layer_1
 62
7
100
AcDbSpline
 70
8
 71
3
 72
8
 73
4
 74
0
 40
0
 40
0
 40
0
 40
0
 40
1
 40
1
 40
1
 40
1
 10
50.970118
 20
52.798672
 30
0.0
 10
51.535797
 20
53.125267
 30
0.0
 10
52.078156
 20
53.161525
 30
0.0
 10
52.597193
 20
52.907447
 30
0.0
  0
LWPOLYLINE
  5
1be
100
AcDbEntity
  8
Layer_1
 62
7
100
AcDbPolyline
 90
2
 70
0
 10
53.758831
 20
49.754413
 30
0.0
 10
53.609114
 20
50.212172
 30
0.0
  0
SPLINE
  5
1bf
100
AcDbEntity
  8
Layer_1
 62
7
100
AcDbSpline
 70
8
 71
3
 72
8
 73
4
 74
0
 40
0
 40
0
 40
0
 40
0
 40
1
 40
1
 40
1
 40
1
 10
52.806045
 20
52.297656
 30
0.0
 10
52.563023
 20
52.520146
 30
0.0
 10
52.294277
 20
52.646631
 30
0.0
 10
51.999806
 20
52.677112
 30
0.0
  0
SPLINE
  5
1c0
100
AcDbEntity
  8
Layer_1
 62
7
100
AcDbSpline
 70
8
 71
3
 72
8
 73
4
 74
0
 40
0
 40
0
 40
0
 40
0
 40
1
 40
1
 40
1
 40
1
 10
51.999806
 20
52.677112
 30
0.0
 10
51.708361
 20
52.718888
 30
0.0
 10
51.430169
 20
52.663295
 30
0.0
 10
51.165231
 20
52.510332
 30
0.0
  0
SPLINE
  5
1c1
100
AcDbEntity
  8
Layer_1
 62
7
100
AcDbSpline
 70
8
 71
3
 72
8
 73
4
 74
0
 40
0
 40
0
 40
0
 40
0
 40
1
 40
1
 40
1
 40
1
 10
51.165231
 20
52.510332
 30
0.0
 10
50.850169
 20
52.328431
 30
0.0
 10
50.601955
 20
51.989405
 30
0.0
 10
50.420590
 20
51.493253
 30
0.0
  0
SPLINE
  5
1c2
100
AcDbEntity
  8
Layer_1
 62
7
100
AcDbSpline
 70
8
 71
3
 72
8
 73
4
 74
0
 40
0
 40
0
 40
0
 40
0
 40
1
 40
1
 40
1
 40
1
 10
50.420590
 20
51.493253
 30
0.0
 10
50.235090
 20
51.004261
 30
0.0
 10
50.144378
 20
50.417238
 30
0.0
 10
50.148454
 20
49.732184
 30
0.0
  0
SPLINE
  5
1c3
100
AcDbEntity
  8
Layer_1
 62
7
100
AcDbSpline
 70
8
 71
3
 72
8
 73
4
 74
0
 40
0
 40
0
 40
0
 40
0
 40
1
 40
1
 40
1
 40
1
 10
50.148454
 20
49.732184
 30
0.0
 10
50.154963
 20
49.191744
 30
0.0
 10
50.222078
 20
48.629012
 30
0.0
 10
50.349802
 20
48.043987
 30
0.0
  0
SPLINE
  5
1c4
100
AcDbEntity
  8
Layer_1
 62
7
100
AcDbSpline
 70
8
 71
3
 72
8
 73
4
 74
0
 40
0
 40
0
 40
0
 40
0
 40
1
 40
1
 40
1
 40
1
 10
50.349802
 20
48.043987
 30
0.0
 10
50.484686
 20
47.463096
 30
0.0
 10
50.645145
 20
47.011540
 30
0.0
 10
50.831180
 20
46.689318
 30
0.0
  0
SPLINE
  5
1c5
100
AcDbEntity
  8
Layer_1
 62
7
100
AcDbSpline
 70
8
 71
3
 72
8
 73
4
 74
0
 40
0
 40
0
 40
0
 40
0
 40
1
 40
1
 40
1
 40
1
 10
50.831180
 20
46.689318
 30
0.0
 10
51.042020
 20
46.324132
 30
0.0
 10
51.275409
 20
46.076986
 30
0.0
 10
51.531348
 20
45.947880
 30
0.0
  0
SPLINE
  5
1c6
100
AcDbEntity
  8
Layer_1
 62
7
100
AcDbSpline
 70
8
 71
3
 72
8
 73
4
 74
0
 40
0
 40
0
 40
0
 40
0
 40
1
 40
1
 40
1
 40
1
 10
51.531348
 20
45.947880
 30
0.0
 10
51.794447
 20
45.822908
 30
0.0
 10
52.054885
 20
45.834836
 30
0.0
 10
52.312663
 20
45.983664
 30
0.0
  0
SPLINE
  5
1c7
100
AcDbEntity
  8
Layer_1
 62
7
100
AcDbSpline
 70
8
 71
3
 72
8
 73
4
 74
0
 40
0
 40
0
 40
0
 40
0
 40
1
 40
1
 40
1
 40
1
 10
52.312663
 20
45.983664
 30
0.0
 10
52.642046
 20
46.173833
 30
0.0
 10
52.896866
 20
46.526221
 30
0.0
 10
53.077124
 20
47.040828
 30
0.0
  0
SPLINE
  5
1c8
100
AcDbEntity
  8
Layer_1
 62
7
100
AcDbSpline
 70
8
 71
3
 72
8
 73
4
 74
0
 40
0
 40
0
 40
0
 40
0
 40
1
 40
1
 40
1
 40
1
 10
53.077124
 20
47.040828
 30
0.0
 10
53.257382
 20
47.555436
 30
0.0
 10
53.357579
 20
48.200445
 30
0.0
 10
53.377714
 20
48.975856
 30
0.0
  0
SPLINE
  5
1c9
100
AcDbEntity
  8
Layer_1
 62
7
100
AcDbSpline
 70
8
 71
3
 72
8
 73
4
 74
0
 40
0
 40
0
 40
0
 40
0
 40
1
 40
1
 40
1
 40
1
 10
53.377714
 20
48.975856
 30
0.0
 10
53.402360
 20
49.429262
 30
0.0
 10
53.380462
 20
49.855797
 30
0.0
 10
53.312022
 20
50.255460
 30
0.0
  0
SPLINE
  5
1ca
100
AcDbEntity
  8
Layer_1
 62
7
100
AcDbSpline
 70
8
 71
3
 72
8
 73
4
 74
0
 40
0
 40
0
 40
0
 40
0
 40
1
 40
1
 40
1
 40
1
 10
53.312022
 20
50.255460
 30
0.0
 10
53.243580
 20
50.655123
 30
0.0
 10
53.115046
 20
51.191943
 30
0.0
 10
52.926420
 20
51.865920
 30
0.0
  0
LWPOLYLINE
  5
1cb
100
AcDbEntity
  8
Layer_1
 62
7
100
AcDbPolyline
 90
3
 70
0
 10
52.597193
 20
52.907447
 30
0.0
 10
52.479697
 20
53.383808
 30
0.0
 10
53.247481
 20
54.385606
 30
0.0
  0
LWPOLYLINE
  5
1cc
100
AcDbEntity
  8
Layer_1
 62
7
100
AcDbPolyline
 90
2
 70
0
 10
52.926420
 20
51.865920
 30
0.0
 10
52.806045
 20
52.297656
 30
0.0
  0
SPLINE
  5
1cd
100
AcDbEntity
  8
Layer_1
 62
7
100
AcDbSpline
 70
8
 71
3
 72
8
 73
4
 74
0
 40
0
 40
0
 40
0
 40
0
 40
1
 40
1
 40
1
 40
1
 10
58.018162
 20
51.554773
 30
0.0
 10
58.159613
 20
51.111337
 30
0.0
 10
58.277880
 20
50.807273
 30
0.0
 10
58.372965
 20
50.642581
 30
0.0
  0
SPLINE
  5
1ce
100
AcDbEntity
  8
Layer_1
 62
7
100
AcDbSpline
 70
8
 71
3
 72
8
 73
4
 74
0
 40
0
 40
0
 40
0
 40
0
 40
1
 40
1
 40
1
 40
1
 10
58.372965
 20
50.642581
 30
0.0
 10
58.521793
 20
50.384803
 30
0.0
 10
58.702546
 20
50.212289
 30
0.0
 10
58.915226
 20
50.125038
 30
0.0
  0
SPLINE
  5
1cf
100
AcDbEntity
  8
Layer_1
 62
7
100
AcDbSpline
 70
8
 71
3
 72
8
 73
4
 74
0
 40
0
 40
0
 40
0
 40
0
 40
1
 40
1
 40
1
 40
1
 10
58.915226
 20
50.125038
 30
0.0
 10
59.127904
 20
50.037787
 30
0.0
 10
59.334491
 20
50.052040
 30
0.0
 10
59.534984
 20
50.167795
 30
0.0
  0
SPLINE
  5
1d0
100
AcDbEntity
  8
Layer_1
 62
7
100
AcDbSpline
 70
8
 71
3
 72
8
 73
4
 74
0
 40
0
 40
0
 40
0
 40
0
 40
1
 40
1
 40
1
 40
1
 10
59.534984
 20
50.167795
 30
0.0
 10
59.728318
 20
50.279416
 30
0.0
 10
59.872744
 20
50.434405
 30
0.0
 10
59.968263
 20
50.632763
 30
0.0
  0
SPLINE
  5
1d1
100
AcDbEntity
  8
Layer_1
 62
7
100
AcDbSpline
 70
8
 71
3
 72
8
 73
4
 74
0
 40
0
 40
0
 40
0
 40
0
 40
1
 40
1
 40
1
 40
1
 10
59.968263
 20
50.632763
 30
0.0
 10
60.066809
 20
50.842415
 30
0.0
 10
60.179488
 20
51.217758
 30
0.0
 10
60.306299
 20
51.758792
 30
0.0
  0
LWPOLYLINE
  5
1d2
100
AcDbEntity
  8
Layer_1
 62
7
100
AcDbPolyline
 90
2
 70
0
 10
56.769468
 20
55.602731
 30
0.0
 10
58.018162
 20
51.554773
 30
0.0
  0
SPLINE
  5
1d3
100
AcDbEntity
  8
Layer_1
 62
7
100
AcDbSpline
 70
8
 71
3
 72
8
 73
4
 74
0
 40
0
 40
0
 40
0
 40
0
 40
1
 40
1
 40
1
 40
1
 10
60.614902
 20
51.894001
 30
0.0
 10
60.490089
 20
51.134533
 30
0.0
 10
60.346484
 20
50.564709
 30
0.0
 10
60.184088
 20
50.184530
 30
0.0
  0
SPLINE
  5
1d4
100
AcDbEntity
  8
Layer_1
 62
7
100
AcDbSpline
 70
8
 71
3
 72
8
 73
4
 74
0
 40
0
 40
0
 40
0
 40
0
 40
1
 40
1
 40
1
 40
1
 10
60.184088
 20
50.184530
 30
0.0
 10
60.024718
 20
49.815645
 30
0.0
 10
59.808984
 20
49.552654
 30
0.0
 10
59.536885
 20
49.395558
 30
0.0
  0
SPLINE
  5
1d5
100
AcDbEntity
  8
Layer_1
 62
7
100
AcDbSpline
 70
8
 71
3
 72
8
 73
4
 74
0
 40
0
 40
0
 40
0
 40
0
 40
1
 40
1
 40
1
 40
1
 10
59.536885
 20
49.395558
 30
0.0
 10
59.193181
 20
49.197120
 30
0.0
 10
58.853423
 20
49.148945
 30
0.0
 10
58.517611
 20
49.251031
 30
0.0
  0
SPLINE
  5
1d6
100
AcDbEntity
  8
Layer_1
 62
7
100
AcDbSpline
 70
8
 71
3
 72
8
 73
4
 74
0
 40
0
 40
0
 40
0
 40
0
 40
1
 40
1
 40
1
 40
1
 10
58.517611
 20
49.251031
 30
0.0
 10
58.184826
 20
49.364412
 30
0.0
 10
57.913013
 20
49.603695
 30
0.0
 10
57.702174
 20
49.968880
 30
0.0
  0
SPLINE
  5
1d7
100
AcDbEntity
  8
Layer_1
 62
7
100
AcDbSpline
 70
8
 71
3
 72
8
 73
4
 74
0
 40
0
 40
0
 40
0
 40
0
 40
1
 40
1
 40
1
 40
1
 10
57.702174
 20
49.968880
 30
0.0
 10
57.545077
 20
50.240978
 30
0.0
 10
57.371405
 20
50.665812
 30
0.0
 10
57.181156
 20
51.243379
 30
0.0
  0
LWPOLYLINE
  5
1d8
100
AcDbEntity
  8
Layer_1
 62
7
100
AcDbPolyline
 90
3
 70
0
 10
60.306299
 20
51.758792
 30
0.0
 10
60.360774
 20
51.962095
 30
0.0
 10
60.614902
 20
51.894001
 30
0.0
  0
LWPOLYLINE
  5
1d9
100
AcDbEntity
  8
Layer_1
 62
7
100
AcDbPolyline
 90
11
 70
0
 10
57.181156
 20
51.243379
 30
0.0
 10
55.888727
 20
55.094235
 30
0.0
 10
54.857616
 20
54.498922
 30
0.0
 10
54.721965
 20
54.907517
 30
0.0
 10
55.753076
 20
55.502830
 30
0.0
 10
54.680242
 20
58.750097
 30
0.0
 10
55.475709
 20
59.753558
 30
0.0
 10
56.633818
 20
56.011326
 30
0.0
 10
58.373818
 20
57.015916
 30
0.0
 10
58.509469
 20
56.607321
 30
0.0
 10
56.769468
 20
55.602731
 30
0.0
  0
SPLINE
  5
1da
100
AcDbEntity
  8
Layer_1
 62
7
100
AcDbSpline
 70
8
 71
3
 72
8
 73
4
 74
0
 40
0
 40
0
 40
0
 40
0
 40
1
 40
1
 40
1
 40
1
 10
65.700138
 20
55.116383
 30
0.0
 10
65.595184
 20
54.272908
 30
0.0
 10
65.407954
 20
53.596744
 30
0.0
 10
65.138448
 20
53.087893
 30
0.0
  0
SPLINE
  5
1db
100
AcDbEntity
  8
Layer_1
 62
7
100
AcDbSpline
 70
8
 71
3
 72
8
 73
4
 74
0
 40
0
 40
0
 40
0
 40
0
 40
1
 40
1
 40
1
 40
1
 10
65.138448
 20
53.087893
 30
0.0
 10
64.864806
 20
52.586203
 30
0.0
 10
64.484529
 20
52.194798
 30
0.0
 10
63.997615
 20
51.913678
 30
0.0
  0
SPLINE
  5
1dc
100
AcDbEntity
  8
Layer_1
 62
7
100
AcDbSpline
 70
8
 71
3
 72
8
 73
4
 74
0
 40
0
 40
0
 40
0
 40
0
 40
1
 40
1
 40
1
 40
1
 10
63.997615
 20
51.913678
 30
0.0
 10
63.417614
 20
51.578814
 30
0.0
 10
62.840561
 20
51.503430
 30
0.0
 10
62.266455
 20
51.687525
 30
0.0
  0
SPLINE
  5
1dd
100
AcDbEntity
  8
Layer_1
 62
7
100
AcDbSpline
 70
8
 71
3
 72
8
 73
4
 74
0
 40
0
 40
0
 40
0
 40
0
 40
1
 40
1
 40
1
 40
1
 10
62.266455
 20
51.687525
 30
0.0
 10
61.692349
 20
51.871621
 30
0.0
 10
61.221327
 20
52.282311
 30
0.0
 10
60.853391
 20
52.919595
 30
0.0
  0
SPLINE
  5
1de
100
AcDbEntity
  8
Layer_1
 62
7
100
AcDbSpline
 70
8
 71
3
 72
8
 73
4
 74
0
 40
0
 40
0
 40
0
 40
0
 40
1
 40
1
 40
1
 40
1
 10
60.853391
 20
52.919595
 30
0.0
 10
60.481321
 20
53.564039
 30
0.0
 10
60.273388
 20
54.312796
 30
0.0
 10
60.229593
 20
55.165865
 30
0.0
  0
SPLINE
  5
1df
100
AcDbEntity
  8
Layer_1
 62
7
100
AcDbSpline
 70
8
 71
3
 72
8
 73
4
 74
0
 40
0
 40
0
 40
0
 40
0
 40
1
 40
1
 40
1
 40
1
 10
60.229593
 20
55.165865
 30
0.0
 10
60.188824
 20
56.030229
 30
0.0
 10
60.298613
 20
56.823987
 30
0.0
 10
60.558962
 20
57.547139
 30
0.0
  0
SPLINE
  5
1e0
100
AcDbEntity
  8
Layer_1
 62
7
100
AcDbSpline
 70
8
 71
3
 72
8
 73
4
 74
0
 40
0
 40
0
 40
0
 40
0
 40
1
 40
1
 40
1
 40
1
 10
60.558962
 20
57.547139
 30
0.0
 10
60.822337
 20
58.281586
 30
0.0
 10
61.204642
 20
58.793503
 30
0.0
 10
61.705876
 20
59.082891
 30
0.0
  0
SPLINE
  5
1e1
100
AcDbEntity
  8
Layer_1
 62
7
100
AcDbSpline
 70
8
 71
3
 72
8
 73
4
 74
0
 40
0
 40
0
 40
0
 40
0
 40
1
 40
1
 40
1
 40
1
 10
61.705876
 20
59.082891
 30
0.0
 10
61.999457
 20
59.252390
 30
0.0
 10
62.288943
 20
59.304956
 30
0.0
 10
62.574335
 20
59.240591
 30
0.0
  0
SPLINE
  5
1e2
100
AcDbEntity
  8
Layer_1
 62
7
100
AcDbSpline
 70
8
 71
3
 72
8
 73
4
 74
0
 40
0
 40
0
 40
0
 40
0
 40
1
 40
1
 40
1
 40
1
 10
62.574335
 20
59.240591
 30
0.0
 10
62.866887
 20
59.180360
 30
0.0
 10
63.091711
 20
59.014195
 30
0.0
 10
63.248807
 20
58.742097
 30
0.0
  0
SPLINE
  5
1e3
100
AcDbEntity
  8
Layer_1
 62
7
100
AcDbSpline
 70
8
 71
3
 72
8
 73
4
 74
0
 40
0
 40
0
 40
0
 40
0
 40
1
 40
1
 40
1
 40
1
 10
63.248807
 20
58.742097
 30
0.0
 10
63.567134
 20
58.190739
 30
0.0
 10
63.584720
 20
57.465748
 30
0.0
 10
63.301565
 20
56.567123
 30
0.0
  0
SPLINE
  5
1e4
100
AcDbEntity
  8
Layer_1
 62
7
100
AcDbSpline
 70
8
 71
3
 72
8
 73
4
 74
0
 40
0
 40
0
 40
0
 40
0
 40
1
 40
1
 40
1
 40
1
 10
63.301565
 20
56.567123
 30
0.0
 10
63.018410
 20
55.668500
 30
0.0
 10
62.469317
 20
54.726131
 30
0.0
 10
61.654288
 20
53.740017
 30
0.0
  0
SPLINE
  5
1e5
100
AcDbEntity
  8
Layer_1
 62
7
100
AcDbSpline
 70
8
 71
3
 72
8
 73
4
 74
0
 40
0
 40
0
 40
0
 40
0
 40
1
 40
1
 40
1
 40
1
 10
61.654288
 20
53.740017
 30
0.0
 10
61.680202
 20
53.678599
 30
0.0
 10
61.713829
 20
53.612088
 30
0.0
 10
61.755170
 20
53.540484
 30
0.0
  0
SPLINE
  5
1e6
100
AcDbEntity
  8
Layer_1
 62
7
100
AcDbSpline
 70
8
 71
3
 72
8
 73
4
 74
0
 40
0
 40
0
 40
0
 40
0
 40
1
 40
1
 40
1
 40
1
 10
61.755170
 20
53.540484
 30
0.0
 10
62.040424
 20
53.046410
 30
0.0
 10
62.410051
 20
52.720390
 30
0.0
 10
62.864051
 20
52.562424
 30
0.0
  0
SPLINE
  5
1e7
100
AcDbEntity
  8
Layer_1
 62
7
100
AcDbSpline
 70
8
 71
3
 72
8
 73
4
 74
0
 40
0
 40
0
 40
0
 40
0
 40
1
 40
1
 40
1
 40
1
 10
62.864051
 20
52.562424
 30
0.0
 10
63.313916
 20
52.411619
 30
0.0
 10
63.753664
 20
52.460240
 30
0.0
 10
64.183294
 20
52.708287
 30
0.0
  0
SPLINE
  5
1e8
100
AcDbEntity
  8
Layer_1
 62
7
100
AcDbSpline
 70
8
 71
3
 72
8
 73
4
 74
0
 40
0
 40
0
 40
0
 40
0
 40
1
 40
1
 40
1
 40
1
 10
64.183294
 20
52.708287
 30
0.0
 10
64.519838
 20
52.902590
 30
0.0
 10
64.785696
 20
53.194520
 30
0.0
 10
64.980868
 20
53.584075
 30
0.0
  0
SPLINE
  5
1e9
100
AcDbEntity
  8
Layer_1
 62
7
100
AcDbSpline
 70
8
 71
3
 72
8
 73
4
 74
0
 40
0
 40
0
 40
0
 40
0
 40
1
 40
1
 40
1
 40
1
 10
64.980868
 20
53.584075
 30
0.0
 10
65.171906
 20
53.980791
 30
0.0
 10
65.316213
 20
54.508058
 30
0.0
 10
65.413789
 20
55.165874
 30
0.0
  0
LWPOLYLINE
  5
1ea
100
AcDbEntity
  8
Layer_1
 62
7
100
AcDbPolyline
 90
2
 70
0
 10
65.413787
 20
55.165873
 30
0.0
 10
65.700138
 20
55.116383
 30
0.0
  0
SPLINE
  5
1eb
100
AcDbEntity
  8
Layer_1
 62
7
100
AcDbSpline
 70
8
 71
3
 72
8
 73
4
 74
0
 40
0
 40
0
 40
0
 40
0
 40
1
 40
1
 40
1
 40
1
 10
61.505460
 20
53.997795
 30
0.0
 10
62.080356
 20
54.787983
 30
0.0
 10
62.453502
 20
55.514202
 30
0.0
 10
62.624898
 20
56.176449
 30
0.0
  0
SPLINE
  5
1ec
100
AcDbEntity
  8
Layer_1
 62
7
100
AcDbSpline
 70
8
 71
3
 72
8
 73
4
 74
0
 40
0
 40
0
 40
0
 40
0
 40
1
 40
1
 40
1
 40
1
 10
62.624898
 20
56.176449
 30
0.0
 10
62.738793
 20
56.624100
 30
0.0
 10
62.786581
 20
57.062226
 30
0.0
 10
62.768264
 20
57.490828
 30
0.0
  0
SPLINE
  5
1ed
100
AcDbEntity
  8
Layer_1
 62
7
100
AcDbSpline
 70
8
 71
3
 72
8
 73
4
 74
0
 40
0
 40
0
 40
0
 40
0
 40
1
 40
1
 40
1
 40
1
 10
62.768264
 20
57.490828
 30
0.0
 10
62.749946
 20
57.919429
 30
0.0
 10
62.664307
 20
58.266199
 30
0.0
 10
62.511345
 20
58.531137
 30
0.0
  0
SPLINE
  5
1ee
100
AcDbEntity
  8
Layer_1
 62
7
100
AcDbSpline
 70
8
 71
3
 72
8
 73
4
 74
0
 40
0
 40
0
 40
0
 40
0
 40
1
 40
1
 40
1
 40
1
 10
62.511345
 20
58.531137
 30
0.0
 10
62.317041
 20
58.867680
 30
0.0
 10
62.065939
 20
58.947069
 30
0.0
 10
61.758038
 20
58.769302
 30
0.0
  0
SPLINE
  5
1ef
100
AcDbEntity
  8
Layer_1
 62
7
100
AcDbSpline
 70
8
 71
3
 72
8
 73
4
 74
0
 40
0
 40
0
 40
0
 40
0
 40
1
 40
1
 40
1
 40
1
 10
61.758038
 20
58.769302
 30
0.0
 10
61.292606
 20
58.500584
 30
0.0
 10
61.032919
 20
57.858967
 30
0.0
 10
60.978980
 20
56.844451
 30
0.0
  0
SPLINE
  5
1f0
100
AcDbEntity
  8
Layer_1
 62
7
100
AcDbSpline
 70
8
 71
3
 72
8
 73
4
 74
0
 40
0
 40
0
 40
0
 40
0
 40
1
 40
1
 40
1
 40
1
 10
60.978980
 20
56.844451
 30
0.0
 10
60.928067
 20
55.841228
 30
0.0
 10
61.103560
 20
54.892343
 30
0.0
 10
61.505460
 20
53.997795
 30
0.0
  0
LWPOLYLINE
  5
1f1
100
AcDbEntity
  8
Layer_1
 62
7
100
AcDbPolyline
 90
1
 70
1
 10
65.413789
 20
55.165874
 30
0.0
  0
LWPOLYLINE
  5
1f2
100
AcDbEntity
  8
Layer_1
 62
7
100
AcDbPolyline
 90
1
 70
1
 10
61.505460
 20
53.997795
 30
0.0
  0
SPLINE
  5
1f3
100
AcDbEntity
  8
Layer_1
 62
7
100
AcDbSpline
 70
8
 71
3
 72
8
 73
4
 74
0
 40
0
 40
0
 40
0
 40
0
 40
1
 40
1
 40
1
 40
1
 10
70.773895
 20
56.771151
 30
0.0
 10
71.612346
 20
56.873337
 30
0.0
 10
72.432559
 20
57.155941
 30
0.0
 10
73.234535
 20
57.618962
 30
0.0
  0
SPLINE
  5
1f4
100
AcDbEntity
  8
Layer_1
 62
7
100
AcDbSpline
 70
8
 71
3
 72
8
 73
4
 74
0
 40
0
 40
0
 40
0
 40
0
 40
1
 40
1
 40
1
 40
1
 10
73.234535
 20
57.618962
 30
0.0
 10
74.172560
 20
58.160531
 30
0.0
 10
74.858484
 20
58.890706
 30
0.0
 10
75.292305
 20
59.809486
 30
0.0
  0
SPLINE
  5
1f5
100
AcDbEntity
  8
Layer_1
 62
7
100
AcDbSpline
 70
8
 71
3
 72
8
 73
4
 74
0
 40
0
 40
0
 40
0
 40
0
 40
1
 40
1
 40
1
 40
1
 10
75.292305
 20
59.809486
 30
0.0
 10
75.729154
 20
60.739560
 30
0.0
 10
75.934275
 20
61.889098
 30
0.0
 10
75.907668
 20
63.258100
 30
0.0
  0
SPLINE
  5
1f6
100
AcDbEntity
  8
Layer_1
 62
7
100
AcDbSpline
 70
8
 71
3
 72
8
 73
4
 74
0
 40
0
 40
0
 40
0
 40
0
 40
1
 40
1
 40
1
 40
1
 10
75.907668
 20
63.258100
 30
0.0
 10
75.895404
 20
63.709291
 30
0.0
 10
75.852687
 20
64.204958
 30
0.0
 10
75.779518
 20
64.745101
 30
0.0
  0
SPLINE
  5
1f7
100
AcDbEntity
  8
Layer_1
 62
7
100
AcDbSpline
 70
8
 71
3
 72
8
 73
4
 74
0
 40
0
 40
0
 40
0
 40
0
 40
1
 40
1
 40
1
 40
1
 10
75.779518
 20
64.745101
 30
0.0
 10
75.702215
 20
65.292405
 30
0.0
 10
75.566590
 20
66.039945
 30
0.0
 10
75.372642
 20
66.987722
 30
0.0
  0
SPLINE
  5
1f8
100
AcDbEntity
  8
Layer_1
 62
7
100
AcDbSpline
 70
8
 71
3
 72
8
 73
4
 74
0
 40
0
 40
0
 40
0
 40
0
 40
1
 40
1
 40
1
 40
1
 10
75.372642
 20
66.987722
 30
0.0
 10
75.214278
 20
67.774646
 30
0.0
 10
75.019816
 20
68.607558
 30
0.0
 10
74.789254
 20
69.486460
 30
0.0
  0
SPLINE
  5
1f9
100
AcDbEntity
  8
Layer_1
 62
7
100
AcDbSpline
 70
8
 71
3
 72
8
 73
4
 74
0
 40
0
 40
0
 40
0
 40
0
 40
1
 40
1
 40
1
 40
1
 10
74.789254
 20
69.486460
 30
0.0
 10
74.561719
 20
70.376657
 30
0.0
 10
74.337655
 20
71.178158
 30
0.0
 10
74.117063
 20
71.890964
 30
0.0
  0
SPLINE
  5
1fa
100
AcDbEntity
  8
Layer_1
 62
7
100
AcDbSpline
 70
8
 71
3
 72
8
 73
4
 74
0
 40
0
 40
0
 40
0
 40
0
 40
1
 40
1
 40
1
 40
1
 10
74.117063
 20
71.890964
 30
0.0
 10
73.903632
 20
72.607904
 30
0.0
 10
73.641698
 20
73.392315
 30
0.0
 10
73.331263
 20
74.244196
 30
0.0
  0
LWPOLYLINE
  5
1fb
100
AcDbEntity
  8
Layer_1
 62
7
100
AcDbPolyline
 90
2
 70
0
 10
70.934592
 20
55.575040
 30
0.0
 10
70.773895
 20
56.771151
 30
0.0
  0
SPLINE
  5
1fc
100
AcDbEntity
  8
Layer_1
 62
7
100
AcDbSpline
 70
8
 71
3
 72
8
 73
4
 74
0
 40
0
 40
0
 40
0
 40
0
 40
1
 40
1
 40
1
 40
1
 10
73.868059
 20
75.298808
 30
0.0
 10
72.126871
 20
74.560859
 30
0.0
 10
70.508005
 20
73.759869
 30
0.0
 10
69.011461
 20
72.895839
 30
0.0
  0
SPLINE
  5
1fd
100
AcDbEntity
  8
Layer_1
 62
7
100
AcDbSpline
 70
8
 71
3
 72
8
 73
4
 74
0
 40
0
 40
0
 40
0
 40
0
 40
1
 40
1
 40
1
 40
1
 10
69.011461
 20
72.895839
 30
0.0
 10
68.245288
 20
72.453488
 30
0.0
 10
67.629782
 20
72.031294
 30
0.0
 10
67.164944
 20
71.629257
 30
0.0
  0
SPLINE
  5
1fe
100
AcDbEntity
  8
Layer_1
 62
7
100
AcDbSpline
 70
8
 71
3
 72
8
 73
4
 74
0
 40
0
 40
0
 40
0
 40
0
 40
1
 40
1
 40
1
 40
1
 10
67.164944
 20
71.629257
 30
0.0
 10
66.700105
 20
71.227220
 30
0.0
 10
66.349172
 20
70.809793
 30
0.0
 10
66.112144
 20
70.376978
 30
0.0
  0
SPLINE
  5
1ff
100
AcDbEntity
  8
Layer_1
 62
7
100
AcDbSpline
 70
8
 71
3
 72
8
 73
4
 74
0
 40
0
 40
0
 40
0
 40
0
 40
1
 40
1
 40
1
 40
1
 10
66.112144
 20
70.376978
 30
0.0
 10
65.792810
 20
69.772528
 30
0.0
 10
65.775770
 20
69.223266
 30
0.0
 10
66.061024
 20
68.729192
 30
0.0
  0
SPLINE
  5
200
100
AcDbEntity
  8
Layer_1
 62
7
100
AcDbSpline
 70
8
 71
3
 72
8
 73
4
 74
0
 40
0
 40
0
 40
0
 40
0
 40
1
 40
1
 40
1
 40
1
 10
66.061024
 20
68.729192
 30
0.0
 10
66.643934
 20
67.719562
 30
0.0
 10
68.234911
 20
67.874326
 30
0.0
 10
70.833954
 20
69.193485
 30
0.0
  0
LWPOLYLINE
  5
201
100
AcDbEntity
  8
Layer_1
 62
7
100
AcDbPolyline
 90
4
 70
0
 10
73.331263
 20
74.244196
 30
0.0
 10
74.182867
 20
75.423278
 30
0.0
 10
74.101478
 20
75.390607
 30
0.0
 10
73.868059
 20
75.298808
 30
0.0
  0
SPLINE
  5
202
100
AcDbEntity
  8
Layer_1
 62
7
100
AcDbSpline
 70
8
 71
3
 72
8
 73
4
 74
0
 40
0
 40
0
 40
0
 40
0
 40
1
 40
1
 40
1
 40
1
 10
70.543867
 20
68.009213
 30
0.0
 10
69.831656
 20
67.655298
 30
0.0
 10
69.161407
 20
67.435408
 30
0.0
 10
68.533122
 20
67.349543
 30
0.0
  0
SPLINE
  5
203
100
AcDbEntity
  8
Layer_1
 62
7
100
AcDbSpline
 70
8
 71
3
 72
8
 73
4
 74
0
 40
0
 40
0
 40
0
 40
0
 40
1
 40
1
 40
1
 40
1
 10
68.533122
 20
67.349543
 30
0.0
 10
67.904837
 20
67.263675
 30
0.0
 10
67.351846
 20
67.311978
 30
0.0
 10
66.874149
 20
67.494452
 30
0.0
  0
SPLINE
  5
204
100
AcDbEntity
  8
Layer_1
 62
7
100
AcDbSpline
 70
8
 71
3
 72
8
 73
4
 74
0
 40
0
 40
0
 40
0
 40
0
 40
1
 40
1
 40
1
 40
1
 10
66.874149
 20
67.494452
 30
0.0
 10
66.403613
 20
67.681059
 30
0.0
 10
66.042254
 20
67.992758
 30
0.0
 10
65.790073
 20
68.429548
 30
0.0
  0
SPLINE
  5
205
100
AcDbEntity
  8
Layer_1
 62
7
100
AcDbSpline
 70
8
 71
3
 72
8
 73
4
 74
0
 40
0
 40
0
 40
0
 40
0
 40
1
 40
1
 40
1
 40
1
 10
65.790073
 20
68.429548
 30
0.0
 10
65.281577
 20
69.310290
 30
0.0
 10
65.427238
 20
70.339573
 30
0.0
 10
66.227057
 20
71.517397
 30
0.0
  0
SPLINE
  5
206
100
AcDbEntity
  8
Layer_1
 62
7
100
AcDbSpline
 70
8
 71
3
 72
8
 73
4
 74
0
 40
0
 40
0
 40
0
 40
0
 40
1
 40
1
 40
1
 40
1
 10
66.227057
 20
71.517397
 30
0.0
 10
66.904632
 20
72.510078
 30
0.0
 10
68.152803
 20
73.531450
 30
0.0
 10
69.971569
 20
74.581515
 30
0.0
  0
SPLINE
  5
207
100
AcDbEntity
  8
Layer_1
 62
7
100
AcDbSpline
 70
8
 71
3
 72
8
 73
4
 74
0
 40
0
 40
0
 40
0
 40
0
 40
1
 40
1
 40
1
 40
1
 10
69.971569
 20
74.581515
 30
0.0
 10
70.465643
 20
74.866769
 30
0.0
 10
71.112304
 20
75.201929
 30
0.0
 10
71.911551
 20
75.586995
 30
0.0
  0
SPLINE
  5
208
100
AcDbEntity
  8
Layer_1
 62
7
100
AcDbSpline
 70
8
 71
3
 72
8
 73
4
 74
0
 40
0
 40
0
 40
0
 40
0
 40
1
 40
1
 40
1
 40
1
 10
71.911551
 20
75.586995
 30
0.0
 10
72.717957
 20
75.976194
 30
0.0
 10
73.559761
 20
76.361963
 30
0.0
 10
74.436961
 20
76.744300
 30
0.0
  0
SPLINE
  5
209
100
AcDbEntity
  8
Layer_1
 62
7
100
AcDbSpline
 70
8
 71
3
 72
8
 73
4
 74
0
 40
0
 40
0
 40
0
 40
0
 40
1
 40
1
 40
1
 40
1
 10
74.436961
 20
76.744300
 30
0.0
 10
75.310027
 20
77.133798
 30
0.0
 10
76.047598
 20
77.435519
 30
0.0
 10
76.649674
 20
77.649465
 30
0.0
  0
LWPOLYLINE
  5
20a
100
AcDbEntity
  8
Layer_1
 62
7
100
AcDbPolyline
 90
2
 70
0
 10
70.833954
 20
69.193485
 30
0.0
 10
70.543867
 20
68.009213
 30
0.0
  0
SPLINE
  5
20b
100
AcDbEntity
  8
Layer_1
 62
7
100
AcDbSpline
 70
8
 71
3
 72
8
 73
4
 74
0
 40
0
 40
0
 40
0
 40
0
 40
1
 40
1
 40
1
 40
1
 10
76.724445
 20
76.403745
 30
0.0
 10
76.028176
 20
76.154511
 30
0.0
 10
75.226012
 20
75.848912
 30
0.0
 10
74.317954
 20
75.486949
 30
0.0
  0
LWPOLYLINE
  5
20c
100
AcDbEntity
  8
Layer_1
 62
7
100
AcDbPolyline
 90
4
 70
0
 10
76.649674
 20
77.649465
 30
0.0
 10
76.861612
 20
77.728861
 30
0.0
 10
76.936384
 20
76.483142
 30
0.0
 10
76.724445
 20
76.403745
 30
0.0
  0
SPLINE
  5
20d
100
AcDbEntity
  8
Layer_1
 62
7
100
AcDbSpline
 70
8
 71
3
 72
8
 73
4
 74
0
 40
0
 40
0
 40
0
 40
0
 40
1
 40
1
 40
1
 40
1
 10
74.345749
 20
75.116327
 30
0.0
 10
75.272485
 20
72.204792
 30
0.0
 10
75.918804
 20
69.737614
 30
0.0
 10
76.284705
 20
67.714793
 30
0.0
  0
SPLINE
  5
20e
100
AcDbEntity
  8
Layer_1
 62
7
100
AcDbSpline
 70
8
 71
3
 72
8
 73
4
 74
0
 40
0
 40
0
 40
0
 40
0
 40
1
 40
1
 40
1
 40
1
 10
76.284705
 20
67.714793
 30
0.0
 10
76.646472
 20
65.699132
 30
0.0
 10
76.740817
 20
63.973025
 30
0.0
 10
76.567741
 20
62.536474
 30
0.0
  0
SPLINE
  5
20f
100
AcDbEntity
  8
Layer_1
 62
7
100
AcDbSpline
 70
8
 71
3
 72
8
 73
4
 74
0
 40
0
 40
0
 40
0
 40
0
 40
1
 40
1
 40
1
 40
1
 10
76.567741
 20
62.536474
 30
0.0
 10
76.394665
 20
61.099922
 30
0.0
 10
75.937117
 20
59.866703
 30
0.0
 10
75.195096
 20
58.836815
 30
0.0
  0
SPLINE
  5
210
100
AcDbEntity
  8
Layer_1
 62
7
100
AcDbSpline
 70
8
 71
3
 72
8
 73
4
 74
0
 40
0
 40
0
 40
0
 40
0
 40
1
 40
1
 40
1
 40
1
 10
75.195096
 20
58.836815
 30
0.0
 10
74.460237
 20
57.811062
 30
0.0
 10
73.412560
 20
56.905444
 30
0.0
 10
72.052065
 20
56.119962
 30
0.0
  0
SPLINE
  5
211
100
AcDbEntity
  8
Layer_1
 62
7
100
AcDbSpline
 70
8
 71
3
 72
8
 73
4
 74
0
 40
0
 40
0
 40
0
 40
0
 40
1
 40
1
 40
1
 40
1
 10
72.052065
 20
56.119962
 30
0.0
 10
71.694040
 20
55.913257
 30
0.0
 10
71.321546
 20
55.731614
 30
0.0
 10
70.934581
 20
55.575034
 30
0.0
  0
LWPOLYLINE
  5
212
100
AcDbEntity
  8
Layer_1
 62
7
100
AcDbPolyline
 90
4
 70
0
 10
74.317954
 20
75.486949
 30
0.0
 10
74.236566
 20
75.454278
 30
0.0
 10
74.291158
 20
75.285302
 30
0.0
 10
74.345749
 20
75.116327
 30
0.0
  0
LWPOLYLINE
  5
213
100
AcDbEntity
  8
Layer_1
 62
7
100
AcDbPolyline
 90
1
 70
1
 10
70.934581
 20
55.575034
 30
0.0
  0
SPLINE
  5
214
100
AcDbEntity
  8
Layer_1
 62
7
100
AcDbSpline
 70
8
 71
3
 72
8
 73
4
 74
0
 40
0
 40
0
 40
0
 40
0
 40
1
 40
1
 40
1
 40
1
 10
82.472404
 20
65.530227
 30
0.0
 10
82.472107
 20
65.596890
 30
0.0
 10
82.467824
 20
65.637380
 30
0.0
 10
82.459557
 20
65.651699
 30
0.0
  0
LWPOLYLINE
  5
215
100
AcDbEntity
  8
Layer_1
 62
7
100
AcDbPolyline
 90
4
 70
0
 10
82.709210
 20
62.788428
 30
0.0
 10
77.083045
 20
79.131278
 30
0.0
 10
77.894564
 20
80.330178
 30
0.0
 10
82.472404
 20
65.530227
 30
0.0
  0
SPLINE
  5
216
100
AcDbEntity
  8
Layer_1
 62
7
100
AcDbSpline
 70
8
 71
3
 72
8
 73
4
 74
0
 40
0
 40
0
 40
0
 40
0
 40
1
 40
1
 40
1
 40
1
 10
82.384134
 20
66.352845
 30
0.0
 10
82.252632
 20
67.556264
 30
0.0
 10
82.302952
 20
68.692806
 30
0.0
 10
82.535092
 20
69.762470
 30
0.0
  0
SPLINE
  5
217
100
AcDbEntity
  8
Layer_1
 62
7
100
AcDbSpline
 70
8
 71
3
 72
8
 73
4
 74
0
 40
0
 40
0
 40
0
 40
0
 40
1
 40
1
 40
1
 40
1
 10
82.535092
 20
69.762470
 30
0.0
 10
82.760370
 20
70.761342
 30
0.0
 10
83.127206
 20
71.407538
 30
0.0
 10
83.635601
 20
71.701060
 30
0.0
  0
SPLINE
  5
218
100
AcDbEntity
  8
Layer_1
 62
7
100
AcDbSpline
 70
8
 71
3
 72
8
 73
4
 74
0
 40
0
 40
0
 40
0
 40
0
 40
1
 40
1
 40
1
 40
1
 10
83.635601
 20
71.701060
 30
0.0
 10
83.907700
 20
71.858157
 30
0.0
 10
84.177771
 20
71.894741
 30
0.0
 10
84.445816
 20
71.810813
 30
0.0
  0
SPLINE
  5
219
100
AcDbEntity
  8
Layer_1
 62
7
100
AcDbSpline
 70
8
 71
3
 72
8
 73
4
 74
0
 40
0
 40
0
 40
0
 40
0
 40
1
 40
1
 40
1
 40
1
 10
84.445816
 20
71.810813
 30
0.0
 10
84.709726
 20
71.734046
 30
0.0
 10
84.926430
 20
71.548872
 30
0.0
 10
85.095929
 20
71.255292
 30
0.0
  0
SPLINE
  5
21a
100
AcDbEntity
  8
Layer_1
 62
7
100
AcDbSpline
 70
8
 71
3
 72
8
 73
4
 74
0
 40
0
 40
0
 40
0
 40
0
 40
1
 40
1
 40
1
 40
1
 10
85.095929
 20
71.255292
 30
0.0
 10
85.191014
 20
71.090600
 30
0.0
 10
85.285990
 20
70.835146
 30
0.0
 10
85.380857
 20
70.488930
 30
0.0
  0
LWPOLYLINE
  5
21b
100
AcDbEntity
  8
Layer_1
 62
7
100
AcDbPolyline
 90
2
 70
0
 10
82.459557
 20
65.651699
 30
0.0
 10
82.384134
 20
66.352845
 30
0.0
  0
SPLINE
  5
21c
100
AcDbEntity
  8
Layer_1
 62
7
100
AcDbSpline
 70
8
 71
3
 72
8
 73
4
 74
0
 40
0
 40
0
 40
0
 40
0
 40
1
 40
1
 40
1
 40
1
 10
86.102657
 20
67.998501
 30
0.0
 10
86.243297
 20
67.506859
 30
0.0
 10
86.379763
 20
67.146470
 30
0.0
 10
86.512054
 20
66.917334
 30
0.0
  0
SPLINE
  5
21d
100
AcDbEntity
  8
Layer_1
 62
7
100
AcDbSpline
 70
8
 71
3
 72
8
 73
4
 74
0
 40
0
 40
0
 40
0
 40
0
 40
1
 40
1
 40
1
 40
1
 10
86.512054
 20
66.917334
 30
0.0
 10
86.644346
 20
66.688199
 30
0.0
 10
86.791216
 20
66.524763
 30
0.0
 10
86.952664
 20
66.427029
 30
0.0
  0
SPLINE
  5
21e
100
AcDbEntity
  8
Layer_1
 62
7
100
AcDbSpline
 70
8
 71
3
 72
8
 73
4
 74
0
 40
0
 40
0
 40
0
 40
0
 40
1
 40
1
 40
1
 40
1
 10
86.952664
 20
66.427029
 30
0.0
 10
87.109977
 20
66.336455
 30
0.0
 10
87.253079
 20
66.328375
 30
0.0
 10
87.381967
 20
66.402789
 30
0.0
  0
SPLINE
  5
21f
100
AcDbEntity
  8
Layer_1
 62
7
100
AcDbSpline
 70
8
 71
3
 72
8
 73
4
 74
0
 40
0
 40
0
 40
0
 40
0
 40
1
 40
1
 40
1
 40
1
 10
87.381967
 20
66.402789
 30
0.0
 10
87.603943
 20
66.530947
 30
0.0
 10
87.805425
 20
67.000523
 30
0.0
 10
87.986415
 20
67.811520
 30
0.0
  0
LWPOLYLINE
  5
220
100
AcDbEntity
  8
Layer_1
 62
7
100
AcDbPolyline
 90
4
 70
0
 10
85.380857
 20
70.488930
 30
0.0
 10
85.533899
 20
69.975807
 30
0.0
 10
85.957479
 20
68.473200
 30
0.0
 10
86.102657
 20
67.998501
 30
0.0
  0
SPLINE
  5
221
100
AcDbEntity
  8
Layer_1
 62
7
100
AcDbSpline
 70
8
 71
3
 72
8
 73
4
 74
0
 40
0
 40
0
 40
0
 40
0
 40
1
 40
1
 40
1
 40
1
 10
88.205888
 20
67.580208
 30
0.0
 10
88.074726
 20
66.864810
 30
0.0
 10
87.958507
 20
66.363307
 30
0.0
 10
87.857232
 20
66.075701
 30
0.0
  0
SPLINE
  5
222
100
AcDbEntity
  8
Layer_1
 62
7
100
AcDbSpline
 70
8
 71
3
 72
8
 73
4
 74
0
 40
0
 40
0
 40
0
 40
0
 40
1
 40
1
 40
1
 40
1
 10
87.857232
 20
66.075701
 30
0.0
 10
87.758983
 20
65.799388
 30
0.0
 10
87.631093
 20
65.615756
 30
0.0
 10
87.473562
 20
65.524806
 30
0.0
  0
SPLINE
  5
223
100
AcDbEntity
  8
Layer_1
 62
7
100
AcDbSpline
 70
8
 71
3
 72
8
 73
4
 74
0
 40
0
 40
0
 40
0
 40
0
 40
1
 40
1
 40
1
 40
1
 10
87.473562
 20
65.524806
 30
0.0
 10
87.251587
 20
65.396648
 30
0.0
 10
86.993621
 20
65.405243
 30
0.0
 10
86.699664
 20
65.550589
 30
0.0
  0
SPLINE
  5
224
100
AcDbEntity
  8
Layer_1
 62
7
100
AcDbSpline
 70
8
 71
3
 72
8
 73
4
 74
0
 40
0
 40
0
 40
0
 40
0
 40
1
 40
1
 40
1
 40
1
 10
86.699664
 20
65.550589
 30
0.0
 10
86.405707
 20
65.695935
 30
0.0
 10
86.167778
 20
65.926138
 30
0.0
 10
85.985877
 20
66.241200
 30
0.0
  0
SPLINE
  5
225
100
AcDbEntity
  8
Layer_1
 62
7
100
AcDbSpline
 70
8
 71
3
 72
8
 73
4
 74
0
 40
0
 40
0
 40
0
 40
0
 40
1
 40
1
 40
1
 40
1
 10
85.985877
 20
66.241200
 30
0.0
 10
85.874256
 20
66.434533
 30
0.0
 10
85.724429
 20
66.801529
 30
0.0
 10
85.536396
 20
67.342187
 30
0.0
  0
LWPOLYLINE
  5
226
100
AcDbEntity
  8
Layer_1
 62
7
100
AcDbPolyline
 90
3
 70
0
 10
87.986415
 20
67.811520
 30
0.0
 10
88.234342
 20
67.754167
 30
0.0
 10
88.205888
 20
67.580208
 30
0.0
  0
SPLINE
  5
227
100
AcDbEntity
  8
Layer_1
 62
7
100
AcDbSpline
 70
8
 71
3
 72
8
 73
4
 74
0
 40
0
 40
0
 40
0
 40
0
 40
1
 40
1
 40
1
 40
1
 10
84.629896
 20
69.854869
 30
0.0
 10
84.500037
 20
70.228619
 30
0.0
 10
84.387565
 20
70.497840
 30
0.0
 10
84.292480
 20
70.662532
 30
0.0
  0
SPLINE
  5
228
100
AcDbEntity
  8
Layer_1
 62
7
100
AcDbSpline
 70
8
 71
3
 72
8
 73
4
 74
0
 40
0
 40
0
 40
0
 40
0
 40
1
 40
1
 40
1
 40
1
 10
84.292480
 20
70.662532
 30
0.0
 10
84.205664
 20
70.812902
 30
0.0
 10
84.100135
 20
70.904732
 30
0.0
 10
83.975894
 20
70.938022
 30
0.0
  0
SPLINE
  5
229
100
AcDbEntity
  8
Layer_1
 62
7
100
AcDbSpline
 70
8
 71
3
 72
8
 73
4
 74
0
 40
0
 40
0
 40
0
 40
0
 40
1
 40
1
 40
1
 40
1
 10
83.975894
 20
70.938022
 30
0.0
 10
83.851654
 20
70.971312
 30
0.0
 10
83.721509
 20
70.948683
 30
0.0
 10
83.585460
 20
70.870135
 30
0.0
  0
SPLINE
  5
22a
100
AcDbEntity
  8
Layer_1
 62
7
100
AcDbSpline
 70
8
 71
3
 72
8
 73
4
 74
0
 40
0
 40
0
 40
0
 40
0
 40
1
 40
1
 40
1
 40
1
 10
83.585460
 20
70.870135
 30
0.0
 10
83.320521
 20
70.717173
 30
0.0
 10
83.107150
 20
70.383942
 30
0.0
 10
82.945347
 20
69.870442
 30
0.0
  0
SPLINE
  5
22b
100
AcDbEntity
  8
Layer_1
 62
7
100
AcDbSpline
 70
8
 71
3
 72
8
 73
4
 74
0
 40
0
 40
0
 40
0
 40
0
 40
1
 40
1
 40
1
 40
1
 10
82.945347
 20
69.870442
 30
0.0
 10
82.779411
 20
69.364103
 30
0.0
 10
82.680174
 20
68.733969
 30
0.0
 10
82.647636
 20
67.980040
 30
0.0
  0
SPLINE
  5
22c
100
AcDbEntity
  8
Layer_1
 62
7
100
AcDbSpline
 70
8
 71
3
 72
8
 73
4
 74
0
 40
0
 40
0
 40
0
 40
0
 40
1
 40
1
 40
1
 40
1
 10
82.647636
 20
67.980040
 30
0.0
 10
82.622259
 20
67.230244
 30
0.0
 10
82.662583
 20
66.465870
 30
0.0
 10
82.768607
 20
65.686918
 30
0.0
  0
SPLINE
  5
22d
100
AcDbEntity
  8
Layer_1
 62
7
100
AcDbSpline
 70
8
 71
3
 72
8
 73
4
 74
0
 40
0
 40
0
 40
0
 40
0
 40
1
 40
1
 40
1
 40
1
 10
82.768607
 20
65.686918
 30
0.0
 10
82.870497
 20
64.915127
 30
0.0
 10
83.047167
 20
64.162641
 30
0.0
 10
83.298616
 20
63.429462
 30
0.0
  0
LWPOLYLINE
  5
22e
100
AcDbEntity
  8
Layer_1
 62
7
100
AcDbPolyline
 90
2
 70
0
 10
85.536396
 20
67.342187
 30
0.0
 10
84.629896
 20
69.854869
 30
0.0
  0
SPLINE
  5
22f
100
AcDbEntity
  8
Layer_1
 62
7
100
AcDbSpline
 70
8
 71
3
 72
8
 73
4
 74
0
 40
0
 40
0
 40
0
 40
0
 40
1
 40
1
 40
1
 40
1
 10
85.965324
 20
78.803166
 30
0.0
 10
86.151497
 20
78.910653
 30
0.0
 10
86.334940
 20
78.940185
 30
0.0
 10
86.515654
 20
78.891762
 30
0.0
  0
SPLINE
  5
230
100
AcDbEntity
  8
Layer_1
 62
7
100
AcDbSpline
 70
8
 71
3
 72
8
 73
4
 74
0
 40
0
 40
0
 40
0
 40
0
 40
1
 40
1
 40
1
 40
1
 10
86.515654
 20
78.891762
 30
0.0
 10
86.696368
 20
78.843341
 30
0.0
 10
86.840468
 20
78.726043
 30
0.0
 10
86.947955
 20
78.539870
 30
0.0
  0
SPLINE
  5
231
100
AcDbEntity
  8
Layer_1
 62
7
100
AcDbSpline
 70
8
 71
3
 72
8
 73
4
 74
0
 40
0
 40
0
 40
0
 40
0
 40
1
 40
1
 40
1
 40
1
 10
86.947955
 20
78.539870
 30
0.0
 10
87.051308
 20
78.360858
 30
0.0
 10
87.077260
 20
78.175347
 30
0.0
 10
87.025812
 20
77.983339
 30
0.0
  0
SPLINE
  5
232
100
AcDbEntity
  8
Layer_1
 62
7
100
AcDbSpline
 70
8
 71
3
 72
8
 73
4
 74
0
 40
0
 40
0
 40
0
 40
0
 40
1
 40
1
 40
1
 40
1
 10
87.025812
 20
77.983339
 30
0.0
 10
86.974363
 20
77.791331
 30
0.0
 10
86.862713
 20
77.645717
 30
0.0
 10
86.690861
 20
77.546499
 30
0.0
  0
SPLINE
  5
233
100
AcDbEntity
  8
Layer_1
 62
7
100
AcDbSpline
 70
8
 71
3
 72
8
 73
4
 74
0
 40
0
 40
0
 40
0
 40
0
 40
1
 40
1
 40
1
 40
1
 10
86.690861
 20
77.546499
 30
0.0
 10
86.526169
 20
77.451414
 30
0.0
 10
86.342172
 20
77.431109
 30
0.0
 10
86.138869
 20
77.485584
 30
0.0
  0
SPLINE
  5
234
100
AcDbEntity
  8
Layer_1
 62
7
100
AcDbSpline
 70
8
 71
3
 72
8
 73
4
 74
0
 40
0
 40
0
 40
0
 40
0
 40
1
 40
1
 40
1
 40
1
 10
86.138869
 20
77.485584
 30
0.0
 10
85.935566
 20
77.540058
 30
0.0
 10
85.786372
 20
77.649641
 30
0.0
 10
85.691287
 20
77.814333
 30
0.0
  0
SPLINE
  5
235
100
AcDbEntity
  8
Layer_1
 62
7
100
AcDbSpline
 70
8
 71
3
 72
8
 73
4
 74
0
 40
0
 40
0
 40
0
 40
0
 40
1
 40
1
 40
1
 40
1
 10
85.691287
 20
77.814333
 30
0.0
 10
85.592069
 20
77.986185
 30
0.0
 10
85.568183
 20
78.168115
 30
0.0
 10
85.619632
 20
78.360123
 30
0.0
  0
SPLINE
  5
236
100
AcDbEntity
  8
Layer_1
 62
7
100
AcDbSpline
 70
8
 71
3
 72
8
 73
4
 74
0
 40
0
 40
0
 40
0
 40
0
 40
1
 40
1
 40
1
 40
1
 10
85.619632
 20
78.360123
 30
0.0
 10
85.671081
 20
78.552132
 30
0.0
 10
85.786311
 20
78.699813
 30
0.0
 10
85.965324
 20
78.803166
 30
0.0
  0
LWPOLYLINE
  5
237
100
AcDbEntity
  8
Layer_1
 62
7
100
AcDbPolyline
 90
2
 70
0
 10
83.298616
 20
63.429462
 30
0.0
 10
82.709210
 20
62.788428
 30
0.0
  0
LWPOLYLINE
  5
238
100
AcDbEntity
  8
Layer_1
 62
7
100
AcDbPolyline
 90
1
 70
1
 10
85.965324
 20
78.803166
 30
0.0
  0
SPLINE
  5
239
100
AcDbEntity
  8
Layer_1
 62
7
100
AcDbSpline
 70
8
 71
3
 72
8
 73
4
 74
0
 40
0
 40
0
 40
0
 40
0
 40
1
 40
1
 40
1
 40
1
 10
89.179702
 20
70.333551
 30
0.0
 10
89.357034
 20
69.662600
 30
0.0
 10
89.546986
 20
69.151693
 30
0.0
 10
89.749558
 20
68.800828
 30
0.0
  0
SPLINE
  5
23a
100
AcDbEntity
  8
Layer_1
 62
7
100
AcDbSpline
 70
8
 71
3
 72
8
 73
4
 74
0
 40
0
 40
0
 40
0
 40
0
 40
1
 40
1
 40
1
 40
1
 10
89.749558
 20
68.800828
 30
0.0
 10
89.881849
 20
68.571692
 30
0.0
 10
90.028719
 20
68.408257
 30
0.0
 10
90.190167
 20
68.310523
 30
0.0
  0
SPLINE
  5
23b
100
AcDbEntity
  8
Layer_1
 62
7
100
AcDbSpline
 70
8
 71
3
 72
8
 73
4
 74
0
 40
0
 40
0
 40
0
 40
0
 40
1
 40
1
 40
1
 40
1
 10
90.190167
 20
68.310523
 30
0.0
 10
90.351615
 20
68.212788
 30
0.0
 10
90.496783
 20
68.201128
 30
0.0
 10
90.625672
 20
68.275542
 30
0.0
  0
SPLINE
  5
23c
100
AcDbEntity
  8
Layer_1
 62
7
100
AcDbSpline
 70
8
 71
3
 72
8
 73
4
 74
0
 40
0
 40
0
 40
0
 40
0
 40
1
 40
1
 40
1
 40
1
 10
90.625672
 20
68.275542
 30
0.0
 10
90.847647
 20
68.403700
 30
0.0
 10
91.049129
 20
68.873277
 30
0.0
 10
91.230119
 20
69.684273
 30
0.0
  0
LWPOLYLINE
  5
23d
100
AcDbEntity
  8
Layer_1
 62
7
100
AcDbPolyline
 90
2
 70
0
 10
88.084702
 20
74.412959
 30
0.0
 10
89.179702
 20
70.333551
 30
0.0
  0
SPLINE
  5
23e
100
AcDbEntity
  8
Layer_1
 62
7
100
AcDbSpline
 70
8
 71
3
 72
8
 73
4
 74
0
 40
0
 40
0
 40
0
 40
0
 40
1
 40
1
 40
1
 40
1
 10
91.449593
 20
69.452961
 30
0.0
 10
91.318430
 20
68.737563
 30
0.0
 10
91.205791
 20
68.238128
 30
0.0
 10
91.111677
 20
67.954655
 30
0.0
  0
SPLINE
  5
23f
100
AcDbEntity
  8
Layer_1
 62
7
100
AcDbSpline
 70
8
 71
3
 72
8
 73
4
 74
0
 40
0
 40
0
 40
0
 40
0
 40
1
 40
1
 40
1
 40
1
 10
91.111677
 20
67.954655
 30
0.0
 10
91.013428
 20
67.678343
 30
0.0
 10
90.881958
 20
67.492644
 30
0.0
 10
90.717266
 20
67.397559
 30
0.0
  0
SPLINE
  5
240
100
AcDbEntity
  8
Layer_1
 62
7
100
AcDbSpline
 70
8
 71
3
 72
8
 73
4
 74
0
 40
0
 40
0
 40
0
 40
0
 40
1
 40
1
 40
1
 40
1
 10
90.717266
 20
67.397559
 30
0.0
 10
90.495291
 20
67.269402
 30
0.0
 10
90.241459
 20
67.270836
 30
0.0
 10
89.955771
 20
67.401861
 30
0.0
  0
SPLINE
  5
241
100
AcDbEntity
  8
Layer_1
 62
7
100
AcDbSpline
 70
8
 71
3
 72
8
 73
4
 74
0
 40
0
 40
0
 40
0
 40
0
 40
1
 40
1
 40
1
 40
1
 10
89.955771
 20
67.401861
 30
0.0
 10
89.673108
 20
67.544180
 30
0.0
 10
89.434625
 20
67.783611
 30
0.0
 10
89.240322
 20
68.120154
 30
0.0
  0
SPLINE
  5
242
100
AcDbEntity
  8
Layer_1
 62
7
100
AcDbSpline
 70
8
 71
3
 72
8
 73
4
 74
0
 40
0
 40
0
 40
0
 40
0
 40
1
 40
1
 40
1
 40
1
 10
89.240322
 20
68.120154
 30
0.0
 10
89.116299
 20
68.334969
 30
0.0
 10
88.962891
 20
68.699898
 30
0.0
 10
88.780099
 20
69.214940
 30
0.0
  0
LWPOLYLINE
  5
243
100
AcDbEntity
  8
Layer_1
 62
7
100
AcDbPolyline
 90
3
 70
0
 10
91.230119
 20
69.684273
 30
0.0
 10
91.488787
 20
69.633121
 30
0.0
 10
91.449593
 20
69.452961
 30
0.0
  0
LWPOLYLINE
  5
244
100
AcDbEntity
  8
Layer_1
 62
7
100
AcDbPolyline
 90
3
 70
0
 10
88.780099
 20
69.214940
 30
0.0
 10
87.286356
 20
73.364874
 30
0.0
 10
88.084702
 20
74.412959
 30
0.0
  0
SPLINE
  5
245
100
AcDbEntity
  8
Layer_1
 62
7
100
AcDbSpline
 70
8
 71
3
 72
8
 73
4
 74
0
 40
0
 40
0
 40
0
 40
0
 40
1
 40
1
 40
1
 40
1
 10
91.948083
 20
70.127432
 30
0.0
 10
92.693093
 20
69.564642
 30
0.0
 10
93.409302
 20
69.481684
 30
0.0
 10
94.096709
 20
69.878559
 30
0.0
  0
SPLINE
  5
246
100
AcDbEntity
  8
Layer_1
 62
7
100
AcDbSpline
 70
8
 71
3
 72
8
 73
4
 74
0
 40
0
 40
0
 40
0
 40
0
 40
1
 40
1
 40
1
 40
1
 10
94.096709
 20
69.878559
 30
0.0
 10
94.454734
 20
70.085264
 30
0.0
 10
94.692909
 20
70.375532
 30
0.0
 10
94.811235
 20
70.749362
 30
0.0
  0
SPLINE
  5
247
100
AcDbEntity
  8
Layer_1
 62
7
100
AcDbSpline
 70
8
 71
3
 72
8
 73
4
 74
0
 40
0
 40
0
 40
0
 40
0
 40
1
 40
1
 40
1
 40
1
 10
94.811235
 20
70.749362
 30
0.0
 10
94.932587
 20
71.134486
 30
0.0
 10
94.904379
 20
71.480999
 30
0.0
 10
94.726612
 20
71.788901
 30
0.0
  0
SPLINE
  5
248
100
AcDbEntity
  8
Layer_1
 62
7
100
AcDbSpline
 70
8
 71
3
 72
8
 73
4
 74
0
 40
0
 40
0
 40
0
 40
0
 40
1
 40
1
 40
1
 40
1
 10
94.726612
 20
71.788901
 30
0.0
 10
94.598455
 20
72.010876
 30
0.0
 10
94.428036
 20
72.165489
 30
0.0
 10
94.215358
 20
72.252740
 30
0.0
  0
SPLINE
  5
249
100
AcDbEntity
  8
Layer_1
 62
7
100
AcDbSpline
 70
8
 71
3
 72
8
 73
4
 74
0
 40
0
 40
0
 40
0
 40
0
 40
1
 40
1
 40
1
 40
1
 10
94.215358
 20
72.252740
 30
0.0
 10
94.002679
 20
72.339991
 30
0.0
 10
93.559717
 20
72.437498
 30
0.0
 10
92.886471
 20
72.545261
 30
0.0
  0
SPLINE
  5
24a
100
AcDbEntity
  8
Layer_1
 62
7
100
AcDbSpline
 70
8
 71
3
 72
8
 73
4
 74
0
 40
0
 40
0
 40
0
 40
0
 40
1
 40
1
 40
1
 40
1
 10
92.886471
 20
72.545261
 30
0.0
 10
92.265564
 20
72.645051
 30
0.0
 10
91.824115
 20
72.748205
 30
0.0
 10
91.562123
 20
72.854722
 30
0.0
  0
SPLINE
  5
24b
100
AcDbEntity
  8
Layer_1
 62
7
100
AcDbSpline
 70
8
 71
3
 72
8
 73
4
 74
0
 40
0
 40
0
 40
0
 40
0
 40
1
 40
1
 40
1
 40
1
 10
91.562123
 20
72.854722
 30
0.0
 10
91.303158
 20
72.972534
 30
0.0
 10
91.099261
 20
73.160329
 30
0.0
 10
90.950433
 20
73.418106
 30
0.0
  0
SPLINE
  5
24c
100
AcDbEntity
  8
Layer_1
 62
7
100
AcDbSpline
 70
8
 71
3
 72
8
 73
4
 74
0
 40
0
 40
0
 40
0
 40
0
 40
1
 40
1
 40
1
 40
1
 10
90.950433
 20
73.418106
 30
0.0
 10
90.756130
 20
73.754650
 30
0.0
 10
90.672963
 20
74.121942
 30
0.0
 10
90.700932
 20
74.519983
 30
0.0
  0
SPLINE
  5
24d
100
AcDbEntity
  8
Layer_1
 62
7
100
AcDbSpline
 70
8
 71
3
 72
8
 73
4
 74
0
 40
0
 40
0
 40
0
 40
0
 40
1
 40
1
 40
1
 40
1
 10
90.700932
 20
74.519983
 30
0.0
 10
90.736061
 20
74.922158
 30
0.0
 10
90.868708
 20
75.304256
 30
0.0
 10
91.098872
 20
75.666277
 30
0.0
  0
SPLINE
  5
24e
100
AcDbEntity
  8
Layer_1
 62
7
100
AcDbSpline
 70
8
 71
3
 72
8
 73
4
 74
0
 40
0
 40
0
 40
0
 40
0
 40
1
 40
1
 40
1
 40
1
 10
91.098872
 20
75.666277
 30
0.0
 10
91.324902
 20
76.035459
 30
0.0
 10
91.620509
 20
76.325470
 30
0.0
 10
91.985694
 20
76.536310
 30
0.0
  0
SPLINE
  5
24f
100
AcDbEntity
  8
Layer_1
 62
7
100
AcDbSpline
 70
8
 71
3
 72
8
 73
4
 74
0
 40
0
 40
0
 40
0
 40
0
 40
1
 40
1
 40
1
 40
1
 10
91.985694
 20
76.536310
 30
0.0
 10
92.307917
 20
76.722345
 30
0.0
 10
92.623978
 20
76.795029
 30
0.0
 10
92.933877
 20
76.754361
 30
0.0
  0
SPLINE
  5
250
100
AcDbEntity
  8
Layer_1
 62
7
100
AcDbSpline
 70
8
 71
3
 72
8
 73
4
 74
0
 40
0
 40
0
 40
0
 40
0
 40
1
 40
1
 40
1
 40
1
 10
92.933877
 20
76.754361
 30
0.0
 10
93.246804
 20
76.724987
 30
0.0
 10
93.475614
 20
76.584992
 30
0.0
 10
93.620308
 20
76.334374
 30
0.0
  0
SPLINE
  5
251
100
AcDbEntity
  8
Layer_1
 62
7
100
AcDbSpline
 70
8
 71
3
 72
8
 73
4
 74
0
 40
0
 40
0
 40
0
 40
0
 40
1
 40
1
 40
1
 40
1
 10
93.620308
 20
76.334374
 30
0.0
 10
93.810477
 20
76.004992
 30
0.0
 10
93.801071
 20
75.698821
 30
0.0
 10
93.592092
 20
75.415862
 30
0.0
  0
SPLINE
  5
252
100
AcDbEntity
  8
Layer_1
 62
7
100
AcDbSpline
 70
8
 71
3
 72
8
 73
4
 74
0
 40
0
 40
0
 40
0
 40
0
 40
1
 40
1
 40
1
 40
1
 10
93.592092
 20
75.415862
 30
0.0
 10
93.354828
 20
75.727602
 30
0.0
 10
93.075044
 20
75.914546
 30
0.0
 10
92.752740
 20
75.976694
 30
0.0
  0
SPLINE
  5
253
100
AcDbEntity
  8
Layer_1
 62
7
100
AcDbSpline
 70
8
 71
3
 72
8
 73
4
 74
0
 40
0
 40
0
 40
0
 40
0
 40
1
 40
1
 40
1
 40
1
 10
92.752740
 20
75.976694
 30
0.0
 10
92.433464
 20
76.050138
 30
0.0
 10
92.109135
 20
75.991775
 30
0.0
 10
91.779752
 20
75.801606
 30
0.0
  0
SPLINE
  5
254
100
AcDbEntity
  8
Layer_1
 62
7
100
AcDbSpline
 70
8
 71
3
 72
8
 73
4
 74
0
 40
0
 40
0
 40
0
 40
0
 40
1
 40
1
 40
1
 40
1
 10
91.779752
 20
75.801606
 30
0.0
 10
91.486172
 20
75.632107
 30
0.0
 10
91.284204
 20
75.386613
 30
0.0
 10
91.173850
 20
75.065122
 30
0.0
  0
SPLINE
  5
255
100
AcDbEntity
  8
Layer_1
 62
7
100
AcDbSpline
 70
8
 71
3
 72
8
 73
4
 74
0
 40
0
 40
0
 40
0
 40
0
 40
1
 40
1
 40
1
 40
1
 10
91.173850
 20
75.065122
 30
0.0
 10
91.066522
 20
74.754925
 30
0.0
 10
91.083138
 20
74.478099
 30
0.0
 10
91.223698
 20
74.234642
 30
0.0
  0
SPLINE
  5
256
100
AcDbEntity
  8
Layer_1
 62
7
100
AcDbSpline
 70
8
 71
3
 72
8
 73
4
 74
0
 40
0
 40
0
 40
0
 40
0
 40
1
 40
1
 40
1
 40
1
 10
91.223698
 20
74.234642
 30
0.0
 10
91.397331
 20
73.933901
 30
0.0
 10
91.755070
 20
73.744228
 30
0.0
 10
92.296914
 20
73.665621
 30
0.0
  0
LWPOLYLINE
  5
257
100
AcDbEntity
  8
Layer_1
 62
7
100
AcDbPolyline
 90
2
 70
0
 10
91.755878
 20
69.071277
 30
0.0
 10
91.948083
 20
70.127432
 30
0.0
  0
SPLINE
  5
258
100
AcDbEntity
  8
Layer_1
 62
7
100
AcDbSpline
 70
8
 71
3
 72
8
 73
4
 74
0
 40
0
 40
0
 40
0
 40
0
 40
1
 40
1
 40
1
 40
1
 10
93.211332
 20
73.520474
 30
0.0
 10
94.096960
 20
73.392121
 30
0.0
 10
94.684468
 20
73.077327
 30
0.0
 10
94.973856
 20
72.576092
 30
0.0
  0
SPLINE
  5
259
100
AcDbEntity
  8
Layer_1
 62
7
100
AcDbSpline
 70
8
 71
3
 72
8
 73
4
 74
0
 40
0
 40
0
 40
0
 40
0
 40
1
 40
1
 40
1
 40
1
 10
94.973856
 20
72.576092
 30
0.0
 10
95.188830
 20
72.203746
 30
0.0
 10
95.283994
 20
71.790870
 30
0.0
 10
95.259349
 20
71.337464
 30
0.0
  0
SPLINE
  5
25a
100
AcDbEntity
  8
Layer_1
 62
7
100
AcDbSpline
 70
8
 71
3
 72
8
 73
4
 74
0
 40
0
 40
0
 40
0
 40
0
 40
1
 40
1
 40
1
 40
1
 10
95.259349
 20
71.337464
 30
0.0
 10
95.237730
 20
70.895352
 30
0.0
 10
95.100138
 20
70.472209
 30
0.0
 10
94.846573
 20
70.068036
 30
0.0
  0
SPLINE
  5
25b
100
AcDbEntity
  8
Layer_1
 62
7
100
AcDbSpline
 70
8
 71
3
 72
8
 73
4
 74
0
 40
0
 40
0
 40
0
 40
0
 40
1
 40
1
 40
1
 40
1
 10
94.846573
 20
70.068036
 30
0.0
 10
94.600170
 20
69.667997
 30
0.0
 10
94.276474
 20
69.352222
 30
0.0
 10
93.875486
 20
69.120712
 30
0.0
  0
SPLINE
  5
25c
100
AcDbEntity
  8
Layer_1
 62
7
100
AcDbSpline
 70
8
 71
3
 72
8
 73
4
 74
0
 40
0
 40
0
 40
0
 40
0
 40
1
 40
1
 40
1
 40
1
 10
93.875486
 20
69.120712
 30
0.0
 10
93.238202
 20
68.752776
 30
0.0
 10
92.531666
 20
68.736297
 30
0.0
 10
91.755878
 20
69.071277
 30
0.0
  0
LWPOLYLINE
  5
25d
100
AcDbEntity
  8
Layer_1
 62
7
100
AcDbPolyline
 90
2
 70
0
 10
92.296914
 20
73.665621
 30
0.0
 10
93.211332
 20
73.520474
 30
0.0
  0
LWPOLYLINE
  5
25e
100
AcDbEntity
  8
Layer_1
 62
7
100
AcDbPolyline
 90
1
 70
1
 10
91.755878
 20
69.071277
 30
0.0
  0
SPLINE
  5
25f
100
AcDbEntity
  8
Layer_1
 62
7
100
AcDbSpline
 70
8
 71
3
 72
8
 73
4
 74
0
 40
0
 40
0
 40
0
 40
0
 40
1
 40
1
 40
1
 40
1
 10
21.681086
 20
23.365078
 30
0.0
 10
21.986551
 20
23.670543
 30
0.0
 10
22.333358
 20
23.823276
 30
0.0
 10
22.721505
 20
23.823276
 30
0.0
  0
SPLINE
  5
260
100
AcDbEntity
  8
Layer_1
 62
7
100
AcDbSpline
 70
8
 71
3
 72
8
 73
4
 74
0
 40
0
 40
0
 40
0
 40
0
 40
1
 40
1
 40
1
 40
1
 10
22.721505
 20
23.823276
 30
0.0
 10
23.183148
 20
23.823276
 30
0.0
 10
23.563257
 20
23.653318
 30
0.0
 10
23.861832
 20
23.313401
 30
0.0
  0
SPLINE
  5
261
100
AcDbEntity
  8
Layer_1
 62
7
100
AcDbSpline
 70
8
 71
3
 72
8
 73
4
 74
0
 40
0
 40
0
 40
0
 40
0
 40
1
 40
1
 40
1
 40
1
 10
23.861832
 20
23.313401
 30
0.0
 10
24.165001
 20
22.975782
 30
0.0
 10
24.316585
 20
22.549738
 30
0.0
 10
24.316585
 20
22.035270
 30
0.0
  0
SPLINE
  5
262
100
AcDbEntity
  8
Layer_1
 62
7
100
AcDbSpline
 70
8
 71
3
 72
8
 73
4
 74
0
 40
0
 40
0
 40
0
 40
0
 40
1
 40
1
 40
1
 40
1
 10
24.316585
 20
22.035270
 30
0.0
 10
24.316585
 20
21.532286
 30
0.0
 10
24.166149
 20
21.113132
 30
0.0
 10
23.865278
 20
20.777809
 30
0.0
  0
SPLINE
  5
263
100
AcDbEntity
  8
Layer_1
 62
7
100
AcDbSpline
 70
8
 71
3
 72
8
 73
4
 74
0
 40
0
 40
0
 40
0
 40
0
 40
1
 40
1
 40
1
 40
1
 10
23.865278
 20
20.777809
 30
0.0
 10
23.566703
 20
20.444783
 30
0.0
 10
23.190038
 20
20.278270
 30
0.0
 10
22.735285
 20
20.278270
 30
0.0
  0
SPLINE
  5
264
100
AcDbEntity
  8
Layer_1
 62
7
100
AcDbSpline
 70
8
 71
3
 72
8
 73
4
 74
0
 40
0
 40
0
 40
0
 40
0
 40
1
 40
1
 40
1
 40
1
 10
22.735285
 20
20.278270
 30
0.0
 10
22.342544
 20
20.278270
 30
0.0
 10
21.991145
 20
20.435596
 30
0.0
 10
21.681086
 20
20.750249
 30
0.0
  0
LWPOLYLINE
  5
265
100
AcDbEntity
  8
Layer_1
 62
7
100
AcDbPolyline
 90
5
 70
0
 10
21.681086
 20
18.548831
 30
0.0
 10
20.905939
 20
18.548831
 30
0.0
 10
20.905939
 20
23.730258
 30
0.0
 10
21.681086
 20
23.730258
 30
0.0
 10
21.681086
 20
23.365078
 30
0.0
  0
SPLINE
  5
266
100
AcDbEntity
  8
Layer_1
 62
7
100
AcDbSpline
 70
8
 71
3
 72
8
 73
4
 74
0
 40
0
 40
0
 40
0
 40
0
 40
1
 40
1
 40
1
 40
1
 10
23.524213
 20
22.031825
 30
0.0
 10
23.524213
 20
22.353368
 30
0.0
 10
23.436937
 20
22.615195
 30
0.0
 10
23.262385
 20
22.817307
 30
0.0
  0
SPLINE
  5
267
100
AcDbEntity
  8
Layer_1
 62
7
100
AcDbSpline
 70
8
 71
3
 72
8
 73
4
 74
0
 40
0
 40
0
 40
0
 40
0
 40
1
 40
1
 40
1
 40
1
 10
23.262385
 20
22.817307
 30
0.0
 10
23.085537
 20
23.021716
 30
0.0
 10
22.862754
 20
23.123921
 30
0.0
 10
22.594036
 20
23.123921
 30
0.0
  0
SPLINE
  5
268
100
AcDbEntity
  8
Layer_1
 62
7
100
AcDbSpline
 70
8
 71
3
 72
8
 73
4
 74
0
 40
0
 40
0
 40
0
 40
0
 40
1
 40
1
 40
1
 40
1
 10
22.594036
 20
23.123921
 30
0.0
 10
22.309241
 20
23.123921
 30
0.0
 10
22.078420
 20
23.025162
 30
0.0
 10
21.901572
 20
22.827643
 30
0.0
  0
SPLINE
  5
269
100
AcDbEntity
  8
Layer_1
 62
7
100
AcDbSpline
 70
8
 71
3
 72
8
 73
4
 74
0
 40
0
 40
0
 40
0
 40
0
 40
1
 40
1
 40
1
 40
1
 10
21.901572
 20
22.827643
 30
0.0
 10
21.724723
 20
22.630124
 30
0.0
 10
21.636299
 20
22.370593
 30
0.0
 10
21.636299
 20
22.049050
 30
0.0
  0
SPLINE
  5
26a
100
AcDbEntity
  8
Layer_1
 62
7
100
AcDbSpline
 70
8
 71
3
 72
8
 73
4
 74
0
 40
0
 40
0
 40
0
 40
0
 40
1
 40
1
 40
1
 40
1
 10
21.636299
 20
22.049050
 30
0.0
 10
21.636299
 20
21.734398
 30
0.0
 10
21.724723
 20
21.474867
 30
0.0
 10
21.901572
 20
21.270458
 30
0.0
  0
SPLINE
  5
26b
100
AcDbEntity
  8
Layer_1
 62
7
100
AcDbSpline
 70
8
 71
3
 72
8
 73
4
 74
0
 40
0
 40
0
 40
0
 40
0
 40
1
 40
1
 40
1
 40
1
 10
21.901572
 20
21.270458
 30
0.0
 10
22.076123
 20
21.070643
 30
0.0
 10
22.305796
 20
20.970735
 30
0.0
 10
22.590591
 20
20.970735
 30
0.0
  0
SPLINE
  5
26c
100
AcDbEntity
  8
Layer_1
 62
7
100
AcDbSpline
 70
8
 71
3
 72
8
 73
4
 74
0
 40
0
 40
0
 40
0
 40
0
 40
1
 40
1
 40
1
 40
1
 10
22.590591
 20
20.970735
 30
0.0
 10
22.859309
 20
20.970735
 30
0.0
 10
23.080944
 20
21.071791
 30
0.0
 10
23.255495
 20
21.273903
 30
0.0
  0
SPLINE
  5
26d
100
AcDbEntity
  8
Layer_1
 62
7
100
AcDbSpline
 70
8
 71
3
 72
8
 73
4
 74
0
 40
0
 40
0
 40
0
 40
0
 40
1
 40
1
 40
1
 40
1
 10
23.255495
 20
21.273903
 30
0.0
 10
23.434640
 20
21.476016
 30
0.0
 10
23.524213
 20
21.728656
 30
0.0
 10
23.524213
 20
22.031825
 30
0.0
  0
LWPOLYLINE
  5
26e
100
AcDbEntity
  8
Layer_1
 62
7
100
AcDbPolyline
 90
2
 70
0
 10
21.681086
 20
20.750249
 30
0.0
 10
21.681086
 20
18.548831
 30
0.0
  0
LWPOLYLINE
  5
26f
100
AcDbEntity
  8
Layer_1
 62
7
100
AcDbPolyline
 90
1
 70
1
 10
23.524213
 20
22.031825
 30
0.0
  0
SPLINE
  5
270
100
AcDbEntity
  8
Layer_1
 62
7
100
AcDbSpline
 70
8
 71
3
 72
8
 73
4
 74
0
 40
0
 40
0
 40
0
 40
0
 40
1
 40
1
 40
1
 40
1
 10
25.911665
 20
23.451205
 30
0.0
 10
26.187273
 20
23.699252
 30
0.0
 10
26.491590
 20
23.823276
 30
0.0
 10
26.824616
 20
23.823276
 30
0.0
  0
SPLINE
  5
271
100
AcDbEntity
  8
Layer_1
 62
7
100
AcDbSpline
 70
8
 71
3
 72
8
 73
4
 74
0
 40
0
 40
0
 40
0
 40
0
 40
1
 40
1
 40
1
 40
1
 10
26.824616
 20
23.823276
 30
0.0
 10
27.203577
 20
23.823276
 30
0.0
 10
27.506745
 20
23.700401
 30
0.0
 10
27.734122
 20
23.454650
 30
0.0
  0
SPLINE
  5
272
100
AcDbEntity
  8
Layer_1
 62
7
100
AcDbSpline
 70
8
 71
3
 72
8
 73
4
 74
0
 40
0
 40
0
 40
0
 40
0
 40
1
 40
1
 40
1
 40
1
 10
27.734122
 20
23.454650
 30
0.0
 10
27.927047
 20
23.241054
 30
0.0
 10
28.023510
 20
22.899989
 30
0.0
 10
28.023510
 20
22.431456
 30
0.0
  0
LWPOLYLINE
  5
273
100
AcDbEntity
  8
Layer_1
 62
7
100
AcDbPolyline
 90
3
 70
0
 10
25.136518
 20
26.193503
 30
0.0
 10
25.911665
 20
26.193503
 30
0.0
 10
25.911665
 20
23.451205
 30
0.0
  0
SPLINE
  5
274
100
AcDbEntity
  8
Layer_1
 62
7
100
AcDbSpline
 70
8
 71
3
 72
8
 73
4
 74
0
 40
0
 40
0
 40
0
 40
0
 40
1
 40
1
 40
1
 40
1
 10
27.248363
 20
22.359109
 30
0.0
 10
27.248363
 20
22.627827
 30
0.0
 10
27.200132
 20
22.821901
 30
0.0
 10
27.103669
 20
22.941331
 30
0.0
  0
SPLINE
  5
275
100
AcDbEntity
  8
Layer_1
 62
7
100
AcDbSpline
 70
8
 71
3
 72
8
 73
4
 74
0
 40
0
 40
0
 40
0
 40
0
 40
1
 40
1
 40
1
 40
1
 10
27.103669
 20
22.941331
 30
0.0
 10
27.009503
 20
23.063058
 30
0.0
 10
26.856770
 20
23.123921
 30
0.0
 10
26.645471
 20
23.123921
 30
0.0
  0
SPLINE
  5
276
100
AcDbEntity
  8
Layer_1
 62
7
100
AcDbSpline
 70
8
 71
3
 72
8
 73
4
 74
0
 40
0
 40
0
 40
0
 40
0
 40
1
 40
1
 40
1
 40
1
 10
26.645471
 20
23.123921
 30
0.0
 10
26.374457
 20
23.123921
 30
0.0
 10
26.183828
 20
23.040090
 30
0.0
 10
26.073585
 20
22.872429
 30
0.0
  0
SPLINE
  5
277
100
AcDbEntity
  8
Layer_1
 62
7
100
AcDbSpline
 70
8
 71
3
 72
8
 73
4
 74
0
 40
0
 40
0
 40
0
 40
0
 40
1
 40
1
 40
1
 40
1
 10
26.073585
 20
22.872429
 30
0.0
 10
25.965638
 20
22.702471
 30
0.0
 10
25.911665
 20
22.410786
 30
0.0
 10
25.911665
 20
21.997374
 30
0.0
  0
LWPOLYLINE
  5
278
100
AcDbEntity
  8
Layer_1
 62
7
100
AcDbPolyline
 90
4
 70
0
 10
28.023510
 20
22.431456
 30
0.0
 10
28.023510
 20
20.374733
 30
0.0
 10
27.248363
 20
20.374733
 30
0.0
 10
27.248363
 20
22.359109
 30
0.0
  0
SPLINE
  5
279
100
AcDbEntity
  8
Layer_1
 62
7
100
AcDbSpline
 70
8
 71
3
 72
8
 73
4
 74
0
 40
0
 40
0
 40
0
 40
0
 40
1
 40
1
 40
1
 40
1
 10
28.850334
 20
22.076611
 30
0.0
 10
28.850334
 20
22.561222
 30
0.0
 10
29.023737
 20
22.973485
 30
0.0
 10
29.370544
 20
23.313401
 30
0.0
  0
SPLINE
  5
27a
100
AcDbEntity
  8
Layer_1
 62
7
100
AcDbSpline
 70
8
 71
3
 72
8
 73
4
 74
0
 40
0
 40
0
 40
0
 40
0
 40
1
 40
1
 40
1
 40
1
 10
29.370544
 20
23.313401
 30
0.0
 10
29.717351
 20
23.653318
 30
0.0
 10
30.139949
 20
23.823276
 30
0.0
 10
30.638340
 20
23.823276
 30
0.0
  0
SPLINE
  5
27b
100
AcDbEntity
  8
Layer_1
 62
7
100
AcDbSpline
 70
8
 71
3
 72
8
 73
4
 74
0
 40
0
 40
0
 40
0
 40
0
 40
1
 40
1
 40
1
 40
1
 10
30.638340
 20
23.823276
 30
0.0
 10
31.139027
 20
23.823276
 30
0.0
 10
31.563923
 20
23.652169
 30
0.0
 10
31.913026
 20
23.309956
 30
0.0
  0
SPLINE
  5
27c
100
AcDbEntity
  8
Layer_1
 62
7
100
AcDbSpline
 70
8
 71
3
 72
8
 73
4
 74
0
 40
0
 40
0
 40
0
 40
0
 40
1
 40
1
 40
1
 40
1
 10
31.913026
 20
23.309956
 30
0.0
 10
32.257536
 20
22.967743
 30
0.0
 10
32.429791
 20
22.547441
 30
0.0
 10
32.429791
 20
22.049050
 30
0.0
  0
SPLINE
  5
27d
100
AcDbEntity
  8
Layer_1
 62
7
100
AcDbSpline
 70
8
 71
3
 72
8
 73
4
 74
0
 40
0
 40
0
 40
0
 40
0
 40
1
 40
1
 40
1
 40
1
 10
32.429791
 20
22.049050
 30
0.0
 10
32.429791
 20
21.546066
 30
0.0
 10
32.256388
 20
21.124616
 30
0.0
 10
31.909581
 20
20.784700
 30
0.0
  0
SPLINE
  5
27e
100
AcDbEntity
  8
Layer_1
 62
7
100
AcDbSpline
 70
8
 71
3
 72
8
 73
4
 74
0
 40
0
 40
0
 40
0
 40
0
 40
1
 40
1
 40
1
 40
1
 10
31.909581
 20
20.784700
 30
0.0
 10
31.560478
 20
20.447080
 30
0.0
 10
31.132137
 20
20.278270
 30
0.0
 10
30.624559
 20
20.278270
 30
0.0
  0
SPLINE
  5
27f
100
AcDbEntity
  8
Layer_1
 62
7
100
AcDbSpline
 70
8
 71
3
 72
8
 73
4
 74
0
 40
0
 40
0
 40
0
 40
0
 40
1
 40
1
 40
1
 40
1
 10
30.624559
 20
20.278270
 30
0.0
 10
30.121575
 20
20.278270
 30
0.0
 10
29.700125
 20
20.450525
 30
0.0
 10
29.360209
 20
20.795035
 30
0.0
  0
SPLINE
  5
280
100
AcDbEntity
  8
Layer_1
 62
7
100
AcDbSpline
 70
8
 71
3
 72
8
 73
4
 74
0
 40
0
 40
0
 40
0
 40
0
 40
1
 40
1
 40
1
 40
1
 10
29.360209
 20
20.795035
 30
0.0
 10
29.020292
 20
21.134951
 30
0.0
 10
28.850334
 20
21.562143
 30
0.0
 10
28.850334
 20
22.076611
 30
0.0
  0
LWPOLYLINE
  5
281
100
AcDbEntity
  8
Layer_1
 62
7
100
AcDbPolyline
 90
4
 70
0
 10
25.911665
 20
21.997374
 30
0.0
 10
25.911665
 20
20.374733
 30
0.0
 10
25.136518
 20
20.374733
 30
0.0
 10
25.136518
 20
26.193503
 30
0.0
  0
SPLINE
  5
282
100
AcDbEntity
  8
Layer_1
 62
7
100
AcDbSpline
 70
8
 71
3
 72
8
 73
4
 74
0
 40
0
 40
0
 40
0
 40
0
 40
1
 40
1
 40
1
 40
1
 10
29.642707
 20
22.062831
 30
0.0
 10
29.642707
 20
21.727508
 30
0.0
 10
29.732279
 20
21.462236
 30
0.0
 10
29.911424
 20
21.267013
 30
0.0
  0
SPLINE
  5
283
100
AcDbEntity
  8
Layer_1
 62
7
100
AcDbSpline
 70
8
 71
3
 72
8
 73
4
 74
0
 40
0
 40
0
 40
0
 40
0
 40
1
 40
1
 40
1
 40
1
 10
29.911424
 20
21.267013
 30
0.0
 10
30.095163
 20
21.069494
 30
0.0
 10
30.337468
 20
20.970735
 30
0.0
 10
30.638340
 20
20.970735
 30
0.0
  0
SPLINE
  5
284
100
AcDbEntity
  8
Layer_1
 62
7
100
AcDbSpline
 70
8
 71
3
 72
8
 73
4
 74
0
 40
0
 40
0
 40
0
 40
0
 40
1
 40
1
 40
1
 40
1
 10
30.638340
 20
20.970735
 30
0.0
 10
30.941509
 20
20.970735
 30
0.0
 10
31.183814
 20
21.068346
 30
0.0
 10
31.365255
 20
21.263568
 30
0.0
  0
SPLINE
  5
285
100
AcDbEntity
  8
Layer_1
 62
7
100
AcDbSpline
 70
8
 71
3
 72
8
 73
4
 74
0
 40
0
 40
0
 40
0
 40
0
 40
1
 40
1
 40
1
 40
1
 10
31.365255
 20
21.263568
 30
0.0
 10
31.546697
 20
21.458790
 30
0.0
 10
31.637418
 20
21.719469
 30
0.0
 10
31.637418
 20
22.045605
 30
0.0
  0
SPLINE
  5
286
100
AcDbEntity
  8
Layer_1
 62
7
100
AcDbSpline
 70
8
 71
3
 72
8
 73
4
 74
0
 40
0
 40
0
 40
0
 40
0
 40
1
 40
1
 40
1
 40
1
 10
31.637418
 20
22.045605
 30
0.0
 10
31.637418
 20
22.371741
 30
0.0
 10
31.546697
 20
22.632420
 30
0.0
 10
31.365255
 20
22.827643
 30
0.0
  0
SPLINE
  5
287
100
AcDbEntity
  8
Layer_1
 62
7
100
AcDbSpline
 70
8
 71
3
 72
8
 73
4
 74
0
 40
0
 40
0
 40
0
 40
0
 40
1
 40
1
 40
1
 40
1
 10
31.365255
 20
22.827643
 30
0.0
 10
31.181517
 20
23.025162
 30
0.0
 10
30.939212
 20
23.123921
 30
0.0
 10
30.638340
 20
23.123921
 30
0.0
  0
SPLINE
  5
288
100
AcDbEntity
  8
Layer_1
 62
7
100
AcDbSpline
 70
8
 71
3
 72
8
 73
4
 74
0
 40
0
 40
0
 40
0
 40
0
 40
1
 40
1
 40
1
 40
1
 10
30.638340
 20
23.123921
 30
0.0
 10
30.342061
 20
23.123921
 30
0.0
 10
30.102053
 20
23.025162
 30
0.0
 10
29.918314
 20
22.827643
 30
0.0
  0
SPLINE
  5
289
100
AcDbEntity
  8
Layer_1
 62
7
100
AcDbSpline
 70
8
 71
3
 72
8
 73
4
 74
0
 40
0
 40
0
 40
0
 40
0
 40
1
 40
1
 40
1
 40
1
 10
29.918314
 20
22.827643
 30
0.0
 10
29.734576
 20
22.630124
 30
0.0
 10
29.642707
 20
22.375186
 30
0.0
 10
29.642707
 20
22.062831
 30
0.0
  0
LWPOLYLINE
  5
28a
100
AcDbEntity
  8
Layer_1
 62
7
100
AcDbPolyline
 90
1
 70
1
 10
28.850334
 20
22.076611
 30
0.0
  0
LWPOLYLINE
  5
28b
100
AcDbEntity
  8
Layer_1
 62
7
100
AcDbPolyline
 90
1
 70
1
 10
29.642707
 20
22.062831
 30
0.0
  0
SPLINE
  5
28c
100
AcDbEntity
  8
Layer_1
 62
7
100
AcDbSpline
 70
8
 71
3
 72
8
 73
4
 74
0
 40
0
 40
0
 40
0
 40
0
 40
1
 40
1
 40
1
 40
1
 10
35.116966
 20
22.076611
 30
0.0
 10
35.116966
 20
22.561222
 30
0.0
 10
35.290369
 20
22.973485
 30
0.0
 10
35.637176
 20
23.313401
 30
0.0
  0
SPLINE
  5
28d
100
AcDbEntity
  8
Layer_1
 62
7
100
AcDbSpline
 70
8
 71
3
 72
8
 73
4
 74
0
 40
0
 40
0
 40
0
 40
0
 40
1
 40
1
 40
1
 40
1
 10
35.637176
 20
23.313401
 30
0.0
 10
35.983983
 20
23.653318
 30
0.0
 10
36.406581
 20
23.823276
 30
0.0
 10
36.904972
 20
23.823276
 30
0.0
  0
SPLINE
  5
28e
100
AcDbEntity
  8
Layer_1
 62
7
100
AcDbSpline
 70
8
 71
3
 72
8
 73
4
 74
0
 40
0
 40
0
 40
0
 40
0
 40
1
 40
1
 40
1
 40
1
 10
36.904972
 20
23.823276
 30
0.0
 10
37.405659
 20
23.823276
 30
0.0
 10
37.830555
 20
23.652169
 30
0.0
 10
38.179658
 20
23.309956
 30
0.0
  0
SPLINE
  5
28f
100
AcDbEntity
  8
Layer_1
 62
7
100
AcDbSpline
 70
8
 71
3
 72
8
 73
4
 74
0
 40
0
 40
0
 40
0
 40
0
 40
1
 40
1
 40
1
 40
1
 10
38.179658
 20
23.309956
 30
0.0
 10
38.524168
 20
22.967743
 30
0.0
 10
38.696423
 20
22.547441
 30
0.0
 10
38.696423
 20
22.049050
 30
0.0
  0
SPLINE
  5
290
100
AcDbEntity
  8
Layer_1
 62
7
100
AcDbSpline
 70
8
 71
3
 72
8
 73
4
 74
0
 40
0
 40
0
 40
0
 40
0
 40
1
 40
1
 40
1
 40
1
 10
38.696423
 20
22.049050
 30
0.0
 10
38.696423
 20
21.546066
 30
0.0
 10
38.523020
 20
21.124616
 30
0.0
 10
38.176213
 20
20.784700
 30
0.0
  0
SPLINE
  5
291
100
AcDbEntity
  8
Layer_1
 62
7
100
AcDbSpline
 70
8
 71
3
 72
8
 73
4
 74
0
 40
0
 40
0
 40
0
 40
0
 40
1
 40
1
 40
1
 40
1
 10
38.176213
 20
20.784700
 30
0.0
 10
37.827110
 20
20.447080
 30
0.0
 10
37.398769
 20
20.278270
 30
0.0
 10
36.891191
 20
20.278270
 30
0.0
  0
SPLINE
  5
292
100
AcDbEntity
  8
Layer_1
 62
7
100
AcDbSpline
 70
8
 71
3
 72
8
 73
4
 74
0
 40
0
 40
0
 40
0
 40
0
 40
1
 40
1
 40
1
 40
1
 10
36.891191
 20
20.278270
 30
0.0
 10
36.388207
 20
20.278270
 30
0.0
 10
35.966757
 20
20.450525
 30
0.0
 10
35.626841
 20
20.795035
 30
0.0
  0
SPLINE
  5
293
100
AcDbEntity
  8
Layer_1
 62
7
100
AcDbSpline
 70
8
 71
3
 72
8
 73
4
 74
0
 40
0
 40
0
 40
0
 40
0
 40
1
 40
1
 40
1
 40
1
 10
35.626841
 20
20.795035
 30
0.0
 10
35.286924
 20
21.134951
 30
0.0
 10
35.116966
 20
21.562143
 30
0.0
 10
35.116966
 20
22.076611
 30
0.0
  0
LWPOLYLINE
  5
294
100
AcDbEntity
  8
Layer_1
 62
7
100
AcDbPolyline
 90
12
 70
1
 10
34.100663
 20
23.006788
 30
0.0
 10
34.100663
 20
20.374733
 30
0.0
 10
33.325516
 20
20.374733
 30
0.0
 10
33.325516
 20
23.006788
 30
0.0
 10
32.994787
 20
23.006788
 30
0.0
 10
32.994787
 20
23.730258
 30
0.0
 10
33.325516
 20
23.730258
 30
0.0
 10
33.325516
 20
24.960158
 30
0.0
 10
34.100663
 20
24.960158
 30
0.0
 10
34.100663
 20
23.730258
 30
0.0
 10
34.703555
 20
23.730258
 30
0.0
 10
34.703555
 20
23.006788
 30
0.0
  0
SPLINE
  5
295
100
AcDbEntity
  8
Layer_1
 62
7
100
AcDbSpline
 70
8
 71
3
 72
8
 73
4
 74
0
 40
0
 40
0
 40
0
 40
0
 40
1
 40
1
 40
1
 40
1
 10
35.909339
 20
22.062831
 30
0.0
 10
35.909339
 20
21.727508
 30
0.0
 10
35.998911
 20
21.462236
 30
0.0
 10
36.178056
 20
21.267013
 30
0.0
  0
SPLINE
  5
296
100
AcDbEntity
  8
Layer_1
 62
7
100
AcDbSpline
 70
8
 71
3
 72
8
 73
4
 74
0
 40
0
 40
0
 40
0
 40
0
 40
1
 40
1
 40
1
 40
1
 10
36.178056
 20
21.267013
 30
0.0
 10
36.361795
 20
21.069494
 30
0.0
 10
36.604100
 20
20.970735
 30
0.0
 10
36.904972
 20
20.970735
 30
0.0
  0
SPLINE
  5
297
100
AcDbEntity
  8
Layer_1
 62
7
100
AcDbSpline
 70
8
 71
3
 72
8
 73
4
 74
0
 40
0
 40
0
 40
0
 40
0
 40
1
 40
1
 40
1
 40
1
 10
36.904972
 20
20.970735
 30
0.0
 10
37.208141
 20
20.970735
 30
0.0
 10
37.450446
 20
21.068346
 30
0.0
 10
37.631887
 20
21.263568
 30
0.0
  0
SPLINE
  5
298
100
AcDbEntity
  8
Layer_1
 62
7
100
AcDbSpline
 70
8
 71
3
 72
8
 73
4
 74
0
 40
0
 40
0
 40
0
 40
0
 40
1
 40
1
 40
1
 40
1
 10
37.631887
 20
21.263568
 30
0.0
 10
37.813329
 20
21.458790
 30
0.0
 10
37.904050
 20
21.719469
 30
0.0
 10
37.904050
 20
22.045605
 30
0.0
  0
SPLINE
  5
299
100
AcDbEntity
  8
Layer_1
 62
7
100
AcDbSpline
 70
8
 71
3
 72
8
 73
4
 74
0
 40
0
 40
0
 40
0
 40
0
 40
1
 40
1
 40
1
 40
1
 10
37.904050
 20
22.045605
 30
0.0
 10
37.904050
 20
22.371741
 30
0.0
 10
37.813329
 20
22.632420
 30
0.0
 10
37.631887
 20
22.827643
 30
0.0
  0
SPLINE
  5
29a
100
AcDbEntity
  8
Layer_1
 62
7
100
AcDbSpline
 70
8
 71
3
 72
8
 73
4
 74
0
 40
0
 40
0
 40
0
 40
0
 40
1
 40
1
 40
1
 40
1
 10
37.631887
 20
22.827643
 30
0.0
 10
37.448149
 20
23.025162
 30
0.0
 10
37.205844
 20
23.123921
 30
0.0
 10
36.904972
 20
23.123921
 30
0.0
  0
SPLINE
  5
29b
100
AcDbEntity
  8
Layer_1
 62
7
100
AcDbSpline
 70
8
 71
3
 72
8
 73
4
 74
0
 40
0
 40
0
 40
0
 40
0
 40
1
 40
1
 40
1
 40
1
 10
36.904972
 20
23.123921
 30
0.0
 10
36.608693
 20
23.123921
 30
0.0
 10
36.368685
 20
23.025162
 30
0.0
 10
36.184946
 20
22.827643
 30
0.0
  0
SPLINE
  5
29c
100
AcDbEntity
  8
Layer_1
 62
7
100
AcDbSpline
 70
8
 71
3
 72
8
 73
4
 74
0
 40
0
 40
0
 40
0
 40
0
 40
1
 40
1
 40
1
 40
1
 10
36.184946
 20
22.827643
 30
0.0
 10
36.001208
 20
22.630124
 30
0.0
 10
35.909339
 20
22.375186
 30
0.0
 10
35.909339
 20
22.062831
 30
0.0
  0
LWPOLYLINE
  5
29d
100
AcDbEntity
  8
Layer_1
 62
7
100
AcDbPolyline
 90
1
 70
1
 10
35.116966
 20
22.076611
 30
0.0
  0
LWPOLYLINE
  5
29e
100
AcDbEntity
  8
Layer_1
 62
7
100
AcDbPolyline
 90
1
 70
1
 10
35.909339
 20
22.062831
 30
0.0
  0
SPLINE
  5
29f
100
AcDbEntity
  8
Layer_1
 62
7
100
AcDbSpline
 70
8
 71
3
 72
8
 73
4
 74
0
 40
0
 40
0
 40
0
 40
0
 40
1
 40
1
 40
1
 40
1
 10
40.301838
 20
23.420199
 30
0.0
 10
40.572853
 20
23.688917
 30
0.0
 10
40.878318
 20
23.823276
 30
0.0
 10
41.218234
 20
23.823276
 30
0.0
  0
SPLINE
  5
2a0
100
AcDbEntity
  8
Layer_1
 62
7
100
AcDbSpline
 70
8
 71
3
 72
8
 73
4
 74
0
 40
0
 40
0
 40
0
 40
0
 40
1
 40
1
 40
1
 40
1
 10
41.218234
 20
23.823276
 30
0.0
 10
41.608679
 20
23.823276
 30
0.0
 10
41.912996
 20
23.700401
 30
0.0
 10
42.131185
 20
23.454650
 30
0.0
  0
SPLINE
  5
2a1
100
AcDbEntity
  8
Layer_1
 62
7
100
AcDbSpline
 70
8
 71
3
 72
8
 73
4
 74
0
 40
0
 40
0
 40
0
 40
0
 40
1
 40
1
 40
1
 40
1
 10
42.131185
 20
23.454650
 30
0.0
 10
42.319517
 20
23.245647
 30
0.0
 10
42.413683
 20
22.904583
 30
0.0
 10
42.413683
 20
22.431456
 30
0.0
  0
LWPOLYLINE
  5
2a2
100
AcDbEntity
  8
Layer_1
 62
7
100
AcDbPolyline
 90
3
 70
0
 10
39.523246
 20
23.730258
 30
0.0
 10
40.301838
 20
23.730258
 30
0.0
 10
40.301838
 20
23.420199
 30
0.0
  0
SPLINE
  5
2a3
100
AcDbEntity
  8
Layer_1
 62
7
100
AcDbSpline
 70
8
 71
3
 72
8
 73
4
 74
0
 40
0
 40
0
 40
0
 40
0
 40
1
 40
1
 40
1
 40
1
 10
41.635091
 20
22.248866
 30
0.0
 10
41.635091
 20
22.579595
 30
0.0
 10
41.589156
 20
22.808120
 30
0.0
 10
41.497287
 20
22.934441
 30
0.0
  0
SPLINE
  5
2a4
100
AcDbEntity
  8
Layer_1
 62
7
100
AcDbSpline
 70
8
 71
3
 72
8
 73
4
 74
0
 40
0
 40
0
 40
0
 40
0
 40
1
 40
1
 40
1
 40
1
 10
41.497287
 20
22.934441
 30
0.0
 10
41.407714
 20
23.063058
 30
0.0
 10
41.244646
 20
23.127366
 30
0.0
 10
41.008083
 20
23.127366
 30
0.0
  0
SPLINE
  5
2a5
100
AcDbEntity
  8
Layer_1
 62
7
100
AcDbSpline
 70
8
 71
3
 72
8
 73
4
 74
0
 40
0
 40
0
 40
0
 40
0
 40
1
 40
1
 40
1
 40
1
 10
41.008083
 20
23.127366
 30
0.0
 10
40.750849
 20
23.127366
 30
0.0
 10
40.568259
 20
23.042387
 30
0.0
 10
40.460313
 20
22.872429
 30
0.0
  0
SPLINE
  5
2a6
100
AcDbEntity
  8
Layer_1
 62
7
100
AcDbSpline
 70
8
 71
3
 72
8
 73
4
 74
0
 40
0
 40
0
 40
0
 40
0
 40
1
 40
1
 40
1
 40
1
 10
40.460313
 20
22.872429
 30
0.0
 10
40.354663
 20
22.704768
 30
0.0
 10
40.301838
 20
22.411934
 30
0.0
 10
40.301838
 20
21.993929
 30
0.0
  0
LWPOLYLINE
  5
2a7
100
AcDbEntity
  8
Layer_1
 62
7
100
AcDbPolyline
 90
4
 70
0
 10
42.413683
 20
22.431456
 30
0.0
 10
42.413683
 20
20.374733
 30
0.0
 10
41.635091
 20
20.374733
 30
0.0
 10
41.635091
 20
22.248866
 30
0.0
  0
LWPOLYLINE
  5
2a8
100
AcDbEntity
  8
Layer_1
 62
7
100
AcDbPolyline
 90
4
 70
0
 10
40.301838
 20
21.993929
 30
0.0
 10
40.301838
 20
20.374733
 30
0.0
 10
39.523246
 20
20.374733
 30
0.0
 10
39.523246
 20
23.730258
 30
0.0
  0
SPLINE
  5
2a9
100
AcDbEntity
  8
Layer_1
 62
7
100
AcDbSpline
 70
8
 71
3
 72
8
 73
4
 74
0
 40
0
 40
0
 40
0
 40
0
 40
1
 40
1
 40
1
 40
1
 10
48.184221
 20
22.555480
 30
0.0
 10
48.007373
 20
22.771373
 30
0.0
 10
47.848899
 20
22.919512
 30
0.0
 10
47.708798
 20
22.999897
 30
0.0
  0
SPLINE
  5
2aa
100
AcDbEntity
  8
Layer_1
 62
7
100
AcDbSpline
 70
8
 71
3
 72
8
 73
4
 74
0
 40
0
 40
0
 40
0
 40
0
 40
1
 40
1
 40
1
 40
1
 10
47.708798
 20
22.999897
 30
0.0
 10
47.570994
 20
23.082580
 30
0.0
 10
47.409074
 20
23.123921
 30
0.0
 10
47.223039
 20
23.123921
 30
0.0
  0
SPLINE
  5
2ab
100
AcDbEntity
  8
Layer_1
 62
7
100
AcDbSpline
 70
8
 71
3
 72
8
 73
4
 74
0
 40
0
 40
0
 40
0
 40
0
 40
1
 40
1
 40
1
 40
1
 10
47.223039
 20
23.123921
 30
0.0
 10
46.931354
 20
23.123921
 30
0.0
 10
46.689049
 20
23.021716
 30
0.0
 10
46.496123
 20
22.817307
 30
0.0
  0
SPLINE
  5
2ac
100
AcDbEntity
  8
Layer_1
 62
7
100
AcDbSpline
 70
8
 71
3
 72
8
 73
4
 74
0
 40
0
 40
0
 40
0
 40
0
 40
1
 40
1
 40
1
 40
1
 10
46.496123
 20
22.817307
 30
0.0
 10
46.303198
 20
22.612898
 30
0.0
 10
46.206735
 20
22.356813
 30
0.0
 10
46.206735
 20
22.049050
 30
0.0
  0
SPLINE
  5
2ad
100
AcDbEntity
  8
Layer_1
 62
7
100
AcDbSpline
 70
8
 71
3
 72
8
 73
4
 74
0
 40
0
 40
0
 40
0
 40
0
 40
1
 40
1
 40
1
 40
1
 10
46.206735
 20
22.049050
 30
0.0
 10
46.206735
 20
21.734398
 30
0.0
 10
46.299753
 20
21.476016
 30
0.0
 10
46.485788
 20
21.273903
 30
0.0
  0
SPLINE
  5
2ae
100
AcDbEntity
  8
Layer_1
 62
7
100
AcDbSpline
 70
8
 71
3
 72
8
 73
4
 74
0
 40
0
 40
0
 40
0
 40
0
 40
1
 40
1
 40
1
 40
1
 10
46.485788
 20
21.273903
 30
0.0
 10
46.674120
 20
21.071791
 30
0.0
 10
46.914129
 20
20.970735
 30
0.0
 10
47.205814
 20
20.970735
 30
0.0
  0
SPLINE
  5
2af
100
AcDbEntity
  8
Layer_1
 62
7
100
AcDbSpline
 70
8
 71
3
 72
8
 73
4
 74
0
 40
0
 40
0
 40
0
 40
0
 40
1
 40
1
 40
1
 40
1
 10
47.205814
 20
20.970735
 30
0.0
 10
47.391849
 20
20.970735
 30
0.0
 10
47.556066
 20
21.010928
 30
0.0
 10
47.698463
 20
21.091313
 30
0.0
  0
SPLINE
  5
2b0
100
AcDbEntity
  8
Layer_1
 62
7
100
AcDbSpline
 70
8
 71
3
 72
8
 73
4
 74
0
 40
0
 40
0
 40
0
 40
0
 40
1
 40
1
 40
1
 40
1
 10
47.698463
 20
21.091313
 30
0.0
 10
47.836266
 20
21.169402
 30
0.0
 10
47.998186
 20
21.320987
 30
0.0
 10
48.184221
 20
21.546066
 30
0.0
  0
LWPOLYLINE
  5
2b1
100
AcDbEntity
  8
Layer_1
 62
7
100
AcDbPolyline
 90
2
 70
0
 10
48.184221
 20
23.585564
 30
0.0
 10
48.184221
 20
22.555480
 30
0.0
  0
SPLINE
  5
2b2
100
AcDbEntity
  8
Layer_1
 62
7
100
AcDbSpline
 70
8
 71
3
 72
8
 73
4
 74
0
 40
0
 40
0
 40
0
 40
0
 40
1
 40
1
 40
1
 40
1
 10
48.184221
 20
20.522872
 30
0.0
 10
47.869569
 20
20.359804
 30
0.0
 10
47.554917
 20
20.278270
 30
0.0
 10
47.240265
 20
20.278270
 30
0.0
  0
SPLINE
  5
2b3
100
AcDbEntity
  8
Layer_1
 62
7
100
AcDbSpline
 70
8
 71
3
 72
8
 73
4
 74
0
 40
0
 40
0
 40
0
 40
0
 40
1
 40
1
 40
1
 40
1
 10
47.240265
 20
20.278270
 30
0.0
 10
46.721204
 20
20.278270
 30
0.0
 10
46.287121
 20
20.445932
 30
0.0
 10
45.938018
 20
20.781255
 30
0.0
  0
SPLINE
  5
2b4
100
AcDbEntity
  8
Layer_1
 62
7
100
AcDbSpline
 70
8
 71
3
 72
8
 73
4
 74
0
 40
0
 40
0
 40
0
 40
0
 40
1
 40
1
 40
1
 40
1
 10
45.938018
 20
20.781255
 30
0.0
 10
45.588915
 20
21.118874
 30
0.0
 10
45.414363
 20
21.538028
 30
0.0
 10
45.414363
 20
22.038715
 30
0.0
  0
SPLINE
  5
2b5
100
AcDbEntity
  8
Layer_1
 62
7
100
AcDbSpline
 70
8
 71
3
 72
8
 73
4
 74
0
 40
0
 40
0
 40
0
 40
0
 40
1
 40
1
 40
1
 40
1
 10
45.414363
 20
22.038715
 30
0.0
 10
45.414363
 20
22.539402
 30
0.0
 10
45.591211
 20
22.962001
 30
0.0
 10
45.944908
 20
23.306511
 30
0.0
  0
SPLINE
  5
2b6
100
AcDbEntity
  8
Layer_1
 62
7
100
AcDbSpline
 70
8
 71
3
 72
8
 73
4
 74
0
 40
0
 40
0
 40
0
 40
0
 40
1
 40
1
 40
1
 40
1
 10
45.944908
 20
23.306511
 30
0.0
 10
46.298605
 20
23.651021
 30
0.0
 10
46.732687
 20
23.823276
 30
0.0
 10
47.247155
 20
23.823276
 30
0.0
  0
SPLINE
  5
2b7
100
AcDbEntity
  8
Layer_1
 62
7
100
AcDbSpline
 70
8
 71
3
 72
8
 73
4
 74
0
 40
0
 40
0
 40
0
 40
0
 40
1
 40
1
 40
1
 40
1
 10
47.247155
 20
23.823276
 30
0.0
 10
47.577884
 20
23.823276
 30
0.0
 10
47.890240
 20
23.744039
 30
0.0
 10
48.184221
 20
23.585564
 30
0.0
  0
LWPOLYLINE
  5
2b8
100
AcDbEntity
  8
Layer_1
 62
7
100
AcDbPolyline
 90
2
 70
0
 10
48.184221
 20
21.546066
 30
0.0
 10
48.184221
 20
20.522872
 30
0.0
  0
LWPOLYLINE
  5
2b9
100
AcDbEntity
  8
Layer_1
 62
7
100
AcDbPolyline
 90
1
 70
1
 10
48.184221
 20
23.585564
 30
0.0
  0
SPLINE
  5
2ba
100
AcDbEntity
  8
Layer_1
 62
7
100
AcDbSpline
 70
8
 71
3
 72
8
 73
4
 74
0
 40
0
 40
0
 40
0
 40
0
 40
1
 40
1
 40
1
 40
1
 10
51.408833
 20
20.726133
 30
0.0
 10
51.089587
 20
20.427558
 30
0.0
 10
50.746226
 20
20.278270
 30
0.0
 10
50.378749
 20
20.278270
 30
0.0
  0
SPLINE
  5
2bb
100
AcDbEntity
  8
Layer_1
 62
7
100
AcDbSpline
 70
8
 71
3
 72
8
 73
4
 74
0
 40
0
 40
0
 40
0
 40
0
 40
1
 40
1
 40
1
 40
1
 10
50.378749
 20
20.278270
 30
0.0
 10
49.914809
 20
20.278270
 30
0.0
 10
49.531255
 20
20.445932
 30
0.0
 10
49.228086
 20
20.781255
 30
0.0
  0
SPLINE
  5
2bc
100
AcDbEntity
  8
Layer_1
 62
7
100
AcDbSpline
 70
8
 71
3
 72
8
 73
4
 74
0
 40
0
 40
0
 40
0
 40
0
 40
1
 40
1
 40
1
 40
1
 10
49.228086
 20
20.781255
 30
0.0
 10
48.927214
 20
21.123468
 30
0.0
 10
48.776778
 20
21.550660
 30
0.0
 10
48.776778
 20
22.062831
 30
0.0
  0
SPLINE
  5
2bd
100
AcDbEntity
  8
Layer_1
 62
7
100
AcDbSpline
 70
8
 71
3
 72
8
 73
4
 74
0
 40
0
 40
0
 40
0
 40
0
 40
1
 40
1
 40
1
 40
1
 10
48.776778
 20
22.062831
 30
0.0
 10
48.776778
 20
22.565815
 30
0.0
 10
48.927214
 20
22.984969
 30
0.0
 10
49.228086
 20
23.320292
 30
0.0
  0
SPLINE
  5
2be
100
AcDbEntity
  8
Layer_1
 62
7
100
AcDbSpline
 70
8
 71
3
 72
8
 73
4
 74
0
 40
0
 40
0
 40
0
 40
0
 40
1
 40
1
 40
1
 40
1
 10
49.228086
 20
23.320292
 30
0.0
 10
49.528958
 20
23.655615
 30
0.0
 10
49.905622
 20
23.823276
 30
0.0
 10
50.358078
 20
23.823276
 30
0.0
  0
SPLINE
  5
2bf
100
AcDbEntity
  8
Layer_1
 62
7
100
AcDbSpline
 70
8
 71
3
 72
8
 73
4
 74
0
 40
0
 40
0
 40
0
 40
0
 40
1
 40
1
 40
1
 40
1
 10
50.358078
 20
23.823276
 30
0.0
 10
50.748523
 20
23.823276
 30
0.0
 10
51.098774
 20
23.662505
 30
0.0
 10
51.408833
 20
23.340962
 30
0.0
  0
LWPOLYLINE
  5
2c0
100
AcDbEntity
  8
Layer_1
 62
7
100
AcDbPolyline
 90
5
 70
0
 10
51.408833
 20
23.730258
 30
0.0
 10
52.187425
 20
23.730258
 30
0.0
 10
52.187425
 20
20.374733
 30
0.0
 10
51.408833
 20
20.374733
 30
0.0
 10
51.408833
 20
20.726133
 30
0.0
  0
SPLINE
  5
2c1
100
AcDbEntity
  8
Layer_1
 62
7
100
AcDbSpline
 70
8
 71
3
 72
8
 73
4
 74
0
 40
0
 40
0
 40
0
 40
0
 40
1
 40
1
 40
1
 40
1
 10
49.569151
 20
22.062831
 30
0.0
 10
49.569151
 20
21.741288
 30
0.0
 10
49.655278
 20
21.479461
 30
0.0
 10
49.827533
 20
21.277349
 30
0.0
  0
SPLINE
  5
2c2
100
AcDbEntity
  8
Layer_1
 62
7
100
AcDbSpline
 70
8
 71
3
 72
8
 73
4
 74
0
 40
0
 40
0
 40
0
 40
0
 40
1
 40
1
 40
1
 40
1
 10
49.827533
 20
21.277349
 30
0.0
 10
50.004381
 20
21.072940
 30
0.0
 10
50.227164
 20
20.970735
 30
0.0
 10
50.495882
 20
20.970735
 30
0.0
  0
SPLINE
  5
2c3
100
AcDbEntity
  8
Layer_1
 62
7
100
AcDbSpline
 70
8
 71
3
 72
8
 73
4
 74
0
 40
0
 40
0
 40
0
 40
0
 40
1
 40
1
 40
1
 40
1
 10
50.495882
 20
20.970735
 30
0.0
 10
50.782973
 20
20.970735
 30
0.0
 10
51.014943
 20
21.069494
 30
0.0
 10
51.191792
 20
21.267013
 30
0.0
  0
SPLINE
  5
2c4
100
AcDbEntity
  8
Layer_1
 62
7
100
AcDbSpline
 70
8
 71
3
 72
8
 73
4
 74
0
 40
0
 40
0
 40
0
 40
0
 40
1
 40
1
 40
1
 40
1
 10
51.191792
 20
21.267013
 30
0.0
 10
51.368640
 20
21.471422
 30
0.0
 10
51.457064
 20
21.730953
 30
0.0
 10
51.457064
 20
22.045605
 30
0.0
  0
SPLINE
  5
2c5
100
AcDbEntity
  8
Layer_1
 62
7
100
AcDbSpline
 70
8
 71
3
 72
8
 73
4
 74
0
 40
0
 40
0
 40
0
 40
0
 40
1
 40
1
 40
1
 40
1
 10
51.457064
 20
22.045605
 30
0.0
 10
51.457064
 20
22.360258
 30
0.0
 10
51.368640
 20
22.619788
 30
0.0
 10
51.191792
 20
22.824197
 30
0.0
  0
SPLINE
  5
2c6
100
AcDbEntity
  8
Layer_1
 62
7
100
AcDbSpline
 70
8
 71
3
 72
8
 73
4
 74
0
 40
0
 40
0
 40
0
 40
0
 40
1
 40
1
 40
1
 40
1
 10
51.191792
 20
22.824197
 30
0.0
 10
51.014943
 20
23.024013
 30
0.0
 10
50.785270
 20
23.123921
 30
0.0
 10
50.502772
 20
23.123921
 30
0.0
  0
SPLINE
  5
2c7
100
AcDbEntity
  8
Layer_1
 62
7
100
AcDbSpline
 70
8
 71
3
 72
8
 73
4
 74
0
 40
0
 40
0
 40
0
 40
0
 40
1
 40
1
 40
1
 40
1
 10
50.502772
 20
23.123921
 30
0.0
 10
50.236351
 20
23.123921
 30
0.0
 10
50.013568
 20
23.022865
 30
0.0
 10
49.834423
 20
22.820752
 30
0.0
  0
SPLINE
  5
2c8
100
AcDbEntity
  8
Layer_1
 62
7
100
AcDbSpline
 70
8
 71
3
 72
8
 73
4
 74
0
 40
0
 40
0
 40
0
 40
0
 40
1
 40
1
 40
1
 40
1
 10
49.834423
 20
22.820752
 30
0.0
 10
49.657575
 20
22.616343
 30
0.0
 10
49.569151
 20
22.363703
 30
0.0
 10
49.569151
 20
22.062831
 30
0.0
  0
LWPOLYLINE
  5
2c9
100
AcDbEntity
  8
Layer_1
 62
7
100
AcDbPolyline
 90
2
 70
0
 10
51.408833
 20
23.340962
 30
0.0
 10
51.408833
 20
23.730258
 30
0.0
  0
LWPOLYLINE
  5
2ca
100
AcDbEntity
  8
Layer_1
 62
7
100
AcDbPolyline
 90
1
 70
1
 10
49.569151
 20
22.062831
 30
0.0
  0
SPLINE
  5
2cb
100
AcDbEntity
  8
Layer_1
 62
7
100
AcDbSpline
 70
8
 71
3
 72
8
 73
4
 74
0
 40
0
 40
0
 40
0
 40
0
 40
1
 40
1
 40
1
 40
1
 10
53.944426
 20
23.420199
 30
0.0
 10
54.215441
 20
23.688917
 30
0.0
 10
54.520906
 20
23.823276
 30
0.0
 10
54.860822
 20
23.823276
 30
0.0
  0
SPLINE
  5
2cc
100
AcDbEntity
  8
Layer_1
 62
7
100
AcDbSpline
 70
8
 71
3
 72
8
 73
4
 74
0
 40
0
 40
0
 40
0
 40
0
 40
1
 40
1
 40
1
 40
1
 10
54.860822
 20
23.823276
 30
0.0
 10
55.251267
 20
23.823276
 30
0.0
 10
55.555584
 20
23.700401
 30
0.0
 10
55.773773
 20
23.454650
 30
0.0
  0
SPLINE
  5
2cd
100
AcDbEntity
  8
Layer_1
 62
7
100
AcDbSpline
 70
8
 71
3
 72
8
 73
4
 74
0
 40
0
 40
0
 40
0
 40
0
 40
1
 40
1
 40
1
 40
1
 10
55.773773
 20
23.454650
 30
0.0
 10
55.962105
 20
23.245647
 30
0.0
 10
56.056271
 20
22.904583
 30
0.0
 10
56.056271
 20
22.431456
 30
0.0
  0
LWPOLYLINE
  5
2ce
100
AcDbEntity
  8
Layer_1
 62
7
100
AcDbPolyline
 90
3
 70
0
 10
53.165834
 20
23.730258
 30
0.0
 10
53.944426
 20
23.730258
 30
0.0
 10
53.944426
 20
23.420199
 30
0.0
  0
SPLINE
  5
2cf
100
AcDbEntity
  8
Layer_1
 62
7
100
AcDbSpline
 70
8
 71
3
 72
8
 73
4
 74
0
 40
0
 40
0
 40
0
 40
0
 40
1
 40
1
 40
1
 40
1
 10
55.277679
 20
22.248866
 30
0.0
 10
55.277679
 20
22.579595
 30
0.0
 10
55.231744
 20
22.808120
 30
0.0
 10
55.139875
 20
22.934441
 30
0.0
  0
SPLINE
  5
2d0
100
AcDbEntity
  8
Layer_1
 62
7
100
AcDbSpline
 70
8
 71
3
 72
8
 73
4
 74
0
 40
0
 40
0
 40
0
 40
0
 40
1
 40
1
 40
1
 40
1
 10
55.139875
 20
22.934441
 30
0.0
 10
55.050302
 20
23.063058
 30
0.0
 10
54.887234
 20
23.127366
 30
0.0
 10
54.650671
 20
23.127366
 30
0.0
  0
SPLINE
  5
2d1
100
AcDbEntity
  8
Layer_1
 62
7
100
AcDbSpline
 70
8
 71
3
 72
8
 73
4
 74
0
 40
0
 40
0
 40
0
 40
0
 40
1
 40
1
 40
1
 40
1
 10
54.650671
 20
23.127366
 30
0.0
 10
54.393437
 20
23.127366
 30
0.0
 10
54.210847
 20
23.042387
 30
0.0
 10
54.102900
 20
22.872429
 30
0.0
  0
SPLINE
  5
2d2
100
AcDbEntity
  8
Layer_1
 62
7
100
AcDbSpline
 70
8
 71
3
 72
8
 73
4
 74
0
 40
0
 40
0
 40
0
 40
0
 40
1
 40
1
 40
1
 40
1
 10
54.102900
 20
22.872429
 30
0.0
 10
53.997251
 20
22.704768
 30
0.0
 10
53.944426
 20
22.411934
 30
0.0
 10
53.944426
 20
21.993929
 30
0.0
  0
LWPOLYLINE
  5
2d3
100
AcDbEntity
  8
Layer_1
 62
7
100
AcDbPolyline
 90
4
 70
0
 10
56.056271
 20
22.431456
 30
0.0
 10
56.056271
 20
20.374733
 30
0.0
 10
55.277679
 20
20.374733
 30
0.0
 10
55.277679
 20
22.248866
 30
0.0
  0
LWPOLYLINE
  5
2d4
100
AcDbEntity
  8
Layer_1
 62
7
100
AcDbPolyline
 90
4
 70
0
 10
53.944426
 20
21.993929
 30
0.0
 10
53.944426
 20
20.374733
 30
0.0
 10
53.165834
 20
20.374733
 30
0.0
 10
53.165834
 20
23.730258
 30
0.0
  0
SPLINE
  5
2d5
100
AcDbEntity
  8
Layer_1
 62
7
100
AcDbSpline
 70
8
 71
3
 72
8
 73
4
 74
0
 40
0
 40
0
 40
0
 40
0
 40
1
 40
1
 40
1
 40
1
 10
57.816714
 20
23.420199
 30
0.0
 10
58.087728
 20
23.688917
 30
0.0
 10
58.393193
 20
23.823276
 30
0.0
 10
58.733110
 20
23.823276
 30
0.0
  0
SPLINE
  5
2d6
100
AcDbEntity
  8
Layer_1
 62
7
100
AcDbSpline
 70
8
 71
3
 72
8
 73
4
 74
0
 40
0
 40
0
 40
0
 40
0
 40
1
 40
1
 40
1
 40
1
 10
58.733110
 20
23.823276
 30
0.0
 10
59.123554
 20
23.823276
 30
0.0
 10
59.427871
 20
23.700401
 30
0.0
 10
59.646061
 20
23.454650
 30
0.0
  0
SPLINE
  5
2d7
100
AcDbEntity
  8
Layer_1
 62
7
100
AcDbSpline
 70
8
 71
3
 72
8
 73
4
 74
0
 40
0
 40
0
 40
0
 40
0
 40
1
 40
1
 40
1
 40
1
 10
59.646061
 20
23.454650
 30
0.0
 10
59.834393
 20
23.245647
 30
0.0
 10
59.928559
 20
22.904583
 30
0.0
 10
59.928559
 20
22.431456
 30
0.0
  0
LWPOLYLINE
  5
2d8
100
AcDbEntity
  8
Layer_1
 62
7
100
AcDbPolyline
 90
3
 70
0
 10
57.038122
 20
23.730258
 30
0.0
 10
57.816714
 20
23.730258
 30
0.0
 10
57.816714
 20
23.420199
 30
0.0
  0
SPLINE
  5
2d9
100
AcDbEntity
  8
Layer_1
 62
7
100
AcDbSpline
 70
8
 71
3
 72
8
 73
4
 74
0
 40
0
 40
0
 40
0
 40
0
 40
1
 40
1
 40
1
 40
1
 10
59.149967
 20
22.248866
 30
0.0
 10
59.149967
 20
22.579595
 30
0.0
 10
59.104032
 20
22.808120
 30
0.0
 10
59.012163
 20
22.934441
 30
0.0
  0
SPLINE
  5
2da
100
AcDbEntity
  8
Layer_1
 62
7
100
AcDbSpline
 70
8
 71
3
 72
8
 73
4
 74
0
 40
0
 40
0
 40
0
 40
0
 40
1
 40
1
 40
1
 40
1
 10
59.012163
 20
22.934441
 30
0.0
 10
58.922590
 20
23.063058
 30
0.0
 10
58.759522
 20
23.127366
 30
0.0
 10
58.522959
 20
23.127366
 30
0.0
  0
SPLINE
  5
2db
100
AcDbEntity
  8
Layer_1
 62
7
100
AcDbSpline
 70
8
 71
3
 72
8
 73
4
 74
0
 40
0
 40
0
 40
0
 40
0
 40
1
 40
1
 40
1
 40
1
 10
58.522959
 20
23.127366
 30
0.0
 10
58.265725
 20
23.127366
 30
0.0
 10
58.083135
 20
23.042387
 30
0.0
 10
57.975188
 20
22.872429
 30
0.0
  0
SPLINE
  5
2dc
100
AcDbEntity
  8
Layer_1
 62
7
100
AcDbSpline
 70
8
 71
3
 72
8
 73
4
 74
0
 40
0
 40
0
 40
0
 40
0
 40
1
 40
1
 40
1
 40
1
 10
57.975188
 20
22.872429
 30
0.0
 10
57.869539
 20
22.704768
 30
0.0
 10
57.816714
 20
22.411934
 30
0.0
 10
57.816714
 20
21.993929
 30
0.0
  0
LWPOLYLINE
  5
2dd
100
AcDbEntity
  8
Layer_1
 62
7
100
AcDbPolyline
 90
4
 70
0
 10
59.928559
 20
22.431456
 30
0.0
 10
59.928559
 20
20.374733
 30
0.0
 10
59.149967
 20
20.374733
 30
0.0
 10
59.149967
 20
22.248866
 30
0.0
  0
SPLINE
  5
2de
100
AcDbEntity
  8
Layer_1
 62
7
100
AcDbSpline
 70
8
 71
3
 72
8
 73
4
 74
0
 40
0
 40
0
 40
0
 40
0
 40
1
 40
1
 40
1
 40
1
 10
60.751939
 20
22.076611
 30
0.0
 10
60.751939
 20
22.561222
 30
0.0
 10
60.925342
 20
22.973485
 30
0.0
 10
61.272148
 20
23.313401
 30
0.0
  0
SPLINE
  5
2df
100
AcDbEntity
  8
Layer_1
 62
7
100
AcDbSpline
 70
8
 71
3
 72
8
 73
4
 74
0
 40
0
 40
0
 40
0
 40
0
 40
1
 40
1
 40
1
 40
1
 10
61.272148
 20
23.313401
 30
0.0
 10
61.618955
 20
23.653318
 30
0.0
 10
62.041553
 20
23.823276
 30
0.0
 10
62.539944
 20
23.823276
 30
0.0
  0
SPLINE
  5
2e0
100
AcDbEntity
  8
Layer_1
 62
7
100
AcDbSpline
 70
8
 71
3
 72
8
 73
4
 74
0
 40
0
 40
0
 40
0
 40
0
 40
1
 40
1
 40
1
 40
1
 10
62.539944
 20
23.823276
 30
0.0
 10
63.040632
 20
23.823276
 30
0.0
 10
63.465528
 20
23.652169
 30
0.0
 10
63.814631
 20
23.309956
 30
0.0
  0
SPLINE
  5
2e1
100
AcDbEntity
  8
Layer_1
 62
7
100
AcDbSpline
 70
8
 71
3
 72
8
 73
4
 74
0
 40
0
 40
0
 40
0
 40
0
 40
1
 40
1
 40
1
 40
1
 10
63.814631
 20
23.309956
 30
0.0
 10
64.159140
 20
22.967743
 30
0.0
 10
64.331395
 20
22.547441
 30
0.0
 10
64.331395
 20
22.049050
 30
0.0
  0
SPLINE
  5
2e2
100
AcDbEntity
  8
Layer_1
 62
7
100
AcDbSpline
 70
8
 71
3
 72
8
 73
4
 74
0
 40
0
 40
0
 40
0
 40
0
 40
1
 40
1
 40
1
 40
1
 10
64.331395
 20
22.049050
 30
0.0
 10
64.331395
 20
21.546066
 30
0.0
 10
64.157992
 20
21.124616
 30
0.0
 10
63.811185
 20
20.784700
 30
0.0
  0
SPLINE
  5
2e3
100
AcDbEntity
  8
Layer_1
 62
7
100
AcDbSpline
 70
8
 71
3
 72
8
 73
4
 74
0
 40
0
 40
0
 40
0
 40
0
 40
1
 40
1
 40
1
 40
1
 10
63.811185
 20
20.784700
 30
0.0
 10
63.462082
 20
20.447080
 30
0.0
 10
63.033742
 20
20.278270
 30
0.0
 10
62.526164
 20
20.278270
 30
0.0
  0
SPLINE
  5
2e4
100
AcDbEntity
  8
Layer_1
 62
7
100
AcDbSpline
 70
8
 71
3
 72
8
 73
4
 74
0
 40
0
 40
0
 40
0
 40
0
 40
1
 40
1
 40
1
 40
1
 10
62.526164
 20
20.278270
 30
0.0
 10
62.023180
 20
20.278270
 30
0.0
 10
61.601730
 20
20.450525
 30
0.0
 10
61.261813
 20
20.795035
 30
0.0
  0
SPLINE
  5
2e5
100
AcDbEntity
  8
Layer_1
 62
7
100
AcDbSpline
 70
8
 71
3
 72
8
 73
4
 74
0
 40
0
 40
0
 40
0
 40
0
 40
1
 40
1
 40
1
 40
1
 10
61.261813
 20
20.795035
 30
0.0
 10
60.921897
 20
21.134951
 30
0.0
 10
60.751939
 20
21.562143
 30
0.0
 10
60.751939
 20
22.076611
 30
0.0
  0
LWPOLYLINE
  5
2e6
100
AcDbEntity
  8
Layer_1
 62
7
100
AcDbPolyline
 90
4
 70
0
 10
57.816714
 20
21.993929
 30
0.0
 10
57.816714
 20
20.374733
 30
0.0
 10
57.038122
 20
20.374733
 30
0.0
 10
57.038122
 20
23.730258
 30
0.0
  0
SPLINE
  5
2e7
100
AcDbEntity
  8
Layer_1
 62
7
100
AcDbSpline
 70
8
 71
3
 72
8
 73
4
 74
0
 40
0
 40
0
 40
0
 40
0
 40
1
 40
1
 40
1
 40
1
 10
61.544311
 20
22.062831
 30
0.0
 10
61.544311
 20
21.727508
 30
0.0
 10
61.633884
 20
21.462236
 30
0.0
 10
61.813029
 20
21.267013
 30
0.0
  0
SPLINE
  5
2e8
100
AcDbEntity
  8
Layer_1
 62
7
100
AcDbSpline
 70
8
 71
3
 72
8
 73
4
 74
0
 40
0
 40
0
 40
0
 40
0
 40
1
 40
1
 40
1
 40
1
 10
61.813029
 20
21.267013
 30
0.0
 10
61.996768
 20
21.069494
 30
0.0
 10
62.239073
 20
20.970735
 30
0.0
 10
62.539944
 20
20.970735
 30
0.0
  0
SPLINE
  5
2e9
100
AcDbEntity
  8
Layer_1
 62
7
100
AcDbSpline
 70
8
 71
3
 72
8
 73
4
 74
0
 40
0
 40
0
 40
0
 40
0
 40
1
 40
1
 40
1
 40
1
 10
62.539944
 20
20.970735
 30
0.0
 10
62.843113
 20
20.970735
 30
0.0
 10
63.085418
 20
21.068346
 30
0.0
 10
63.266860
 20
21.263568
 30
0.0
  0
SPLINE
  5
2ea
100
AcDbEntity
  8
Layer_1
 62
7
100
AcDbSpline
 70
8
 71
3
 72
8
 73
4
 74
0
 40
0
 40
0
 40
0
 40
0
 40
1
 40
1
 40
1
 40
1
 10
63.266860
 20
21.263568
 30
0.0
 10
63.448302
 20
21.458790
 30
0.0
 10
63.539023
 20
21.719469
 30
0.0
 10
63.539023
 20
22.045605
 30
0.0
  0
SPLINE
  5
2eb
100
AcDbEntity
  8
Layer_1
 62
7
100
AcDbSpline
 70
8
 71
3
 72
8
 73
4
 74
0
 40
0
 40
0
 40
0
 40
0
 40
1
 40
1
 40
1
 40
1
 10
63.539023
 20
22.045605
 30
0.0
 10
63.539023
 20
22.371741
 30
0.0
 10
63.448302
 20
22.632420
 30
0.0
 10
63.266860
 20
22.827643
 30
0.0
  0
SPLINE
  5
2ec
100
AcDbEntity
  8
Layer_1
 62
7
100
AcDbSpline
 70
8
 71
3
 72
8
 73
4
 74
0
 40
0
 40
0
 40
0
 40
0
 40
1
 40
1
 40
1
 40
1
 10
63.266860
 20
22.827643
 30
0.0
 10
63.083121
 20
23.025162
 30
0.0
 10
62.840816
 20
23.123921
 30
0.0
 10
62.539944
 20
23.123921
 30
0.0
  0
SPLINE
  5
2ed
100
AcDbEntity
  8
Layer_1
 62
7
100
AcDbSpline
 70
8
 71
3
 72
8
 73
4
 74
0
 40
0
 40
0
 40
0
 40
0
 40
1
 40
1
 40
1
 40
1
 10
62.539944
 20
23.123921
 30
0.0
 10
62.243666
 20
23.123921
 30
0.0
 10
62.003658
 20
23.025162
 30
0.0
 10
61.819919
 20
22.827643
 30
0.0
  0
SPLINE
  5
2ee
100
AcDbEntity
  8
Layer_1
 62
7
100
AcDbSpline
 70
8
 71
3
 72
8
 73
4
 74
0
 40
0
 40
0
 40
0
 40
0
 40
1
 40
1
 40
1
 40
1
 10
61.819919
 20
22.827643
 30
0.0
 10
61.636180
 20
22.630124
 30
0.0
 10
61.544311
 20
22.375186
 30
0.0
 10
61.544311
 20
22.062831
 30
0.0
  0
LWPOLYLINE
  5
2ef
100
AcDbEntity
  8
Layer_1
 62
7
100
AcDbPolyline
 90
1
 70
1
 10
60.751939
 20
22.076611
 30
0.0
  0
LWPOLYLINE
  5
2f0
100
AcDbEntity
  8
Layer_1
 62
7
100
AcDbPolyline
 90
1
 70
1
 10
61.544311
 20
22.062831
 30
0.0
  0
SPLINE
  5
2f1
100
AcDbEntity
  8
Layer_1
 62
7
100
AcDbSpline
 70
8
 71
3
 72
8
 73
4
 74
0
 40
0
 40
0
 40
0
 40
0
 40
1
 40
1
 40
1
 40
1
 10
65.933367
 20
23.420199
 30
0.0
 10
66.204382
 20
23.688917
 30
0.0
 10
66.509847
 20
23.823276
 30
0.0
 10
66.849763
 20
23.823276
 30
0.0
  0
SPLINE
  5
2f2
100
AcDbEntity
  8
Layer_1
 62
7
100
AcDbSpline
 70
8
 71
3
 72
8
 73
4
 74
0
 40
0
 40
0
 40
0
 40
0
 40
1
 40
1
 40
1
 40
1
 10
66.849763
 20
23.823276
 30
0.0
 10
67.240208
 20
23.823276
 30
0.0
 10
67.544525
 20
23.700401
 30
0.0
 10
67.762714
 20
23.454650
 30
0.0
  0
SPLINE
  5
2f3
100
AcDbEntity
  8
Layer_1
 62
7
100
AcDbSpline
 70
8
 71
3
 72
8
 73
4
 74
0
 40
0
 40
0
 40
0
 40
0
 40
1
 40
1
 40
1
 40
1
 10
67.762714
 20
23.454650
 30
0.0
 10
67.951046
 20
23.245647
 30
0.0
 10
68.045212
 20
22.904583
 30
0.0
 10
68.045212
 20
22.431456
 30
0.0
  0
LWPOLYLINE
  5
2f4
100
AcDbEntity
  8
Layer_1
 62
7
100
AcDbPolyline
 90
3
 70
0
 10
65.154775
 20
23.730258
 30
0.0
 10
65.933367
 20
23.730258
 30
0.0
 10
65.933367
 20
23.420199
 30
0.0
  0
SPLINE
  5
2f5
100
AcDbEntity
  8
Layer_1
 62
7
100
AcDbSpline
 70
8
 71
3
 72
8
 73
4
 74
0
 40
0
 40
0
 40
0
 40
0
 40
1
 40
1
 40
1
 40
1
 10
67.266620
 20
22.248866
 30
0.0
 10
67.266620
 20
22.579595
 30
0.0
 10
67.220685
 20
22.808120
 30
0.0
 10
67.128816
 20
22.934441
 30
0.0
  0
SPLINE
  5
2f6
100
AcDbEntity
  8
Layer_1
 62
7
100
AcDbSpline
 70
8
 71
3
 72
8
 73
4
 74
0
 40
0
 40
0
 40
0
 40
0
 40
1
 40
1
 40
1
 40
1
 10
67.128816
 20
22.934441
 30
0.0
 10
67.039243
 20
23.063058
 30
0.0
 10
66.876175
 20
23.127366
 30
0.0
 10
66.639612
 20
23.127366
 30
0.0
  0
SPLINE
  5
2f7
100
AcDbEntity
  8
Layer_1
 62
7
100
AcDbSpline
 70
8
 71
3
 72
8
 73
4
 74
0
 40
0
 40
0
 40
0
 40
0
 40
1
 40
1
 40
1
 40
1
 10
66.639612
 20
23.127366
 30
0.0
 10
66.382378
 20
23.127366
 30
0.0
 10
66.199788
 20
23.042387
 30
0.0
 10
66.091842
 20
22.872429
 30
0.0
  0
SPLINE
  5
2f8
100
AcDbEntity
  8
Layer_1
 62
7
100
AcDbSpline
 70
8
 71
3
 72
8
 73
4
 74
0
 40
0
 40
0
 40
0
 40
0
 40
1
 40
1
 40
1
 40
1
 10
66.091842
 20
22.872429
 30
0.0
 10
65.986192
 20
22.704768
 30
0.0
 10
65.933367
 20
22.411934
 30
0.0
 10
65.933367
 20
21.993929
 30
0.0
  0
LWPOLYLINE
  5
2f9
100
AcDbEntity
  8
Layer_1
 62
7
100
AcDbPolyline
 90
4
 70
0
 10
68.045212
 20
22.431456
 30
0.0
 10
68.045212
 20
20.374733
 30
0.0
 10
67.266620
 20
20.374733
 30
0.0
 10
67.266620
 20
22.248866
 30
0.0
  0
LWPOLYLINE
  5
2fa
100
AcDbEntity
  8
Layer_1
 62
7
100
AcDbPolyline
 90
4
 70
0
 10
65.933367
 20
21.993929
 30
0.0
 10
65.933367
 20
20.374733
 30
0.0
 10
65.154775
 20
20.374733
 30
0.0
 10
65.154775
 20
23.730258
 30
0.0
  0
SPLINE
  5
2fb
100
AcDbEntity
  8
Layer_1
 62
7
100
AcDbSpline
 70
8
 71
3
 72
8
 73
4
 74
0
 40
0
 40
0
 40
0
 40
0
 40
1
 40
1
 40
1
 40
1
 10
71.855490
 20
21.869905
 30
0.0
 10
71.876157
 20
21.594298
 30
0.0
 10
71.965729
 20
21.374960
 30
0.0
 10
72.124207
 20
21.211892
 30
0.0
  0
SPLINE
  5
2fc
100
AcDbEntity
  8
Layer_1
 62
7
100
AcDbSpline
 70
8
 71
3
 72
8
 73
4
 74
0
 40
0
 40
0
 40
0
 40
0
 40
1
 40
1
 40
1
 40
1
 10
72.124207
 20
21.211892
 30
0.0
 10
72.282682
 20
21.051121
 30
0.0
 10
72.485943
 20
20.970735
 30
0.0
 10
72.733990
 20
20.970735
 30
0.0
  0
SPLINE
  5
2fd
100
AcDbEntity
  8
Layer_1
 62
7
100
AcDbSpline
 70
8
 71
3
 72
8
 73
4
 74
0
 40
0
 40
0
 40
0
 40
0
 40
1
 40
1
 40
1
 40
1
 10
72.733990
 20
20.970735
 30
0.0
 10
72.926915
 20
20.970735
 30
0.0
 10
73.086538
 20
21.016670
 30
0.0
 10
73.212858
 20
21.108539
 30
0.0
  0
SPLINE
  5
2fe
100
AcDbEntity
  8
Layer_1
 62
7
100
AcDbSpline
 70
8
 71
3
 72
8
 73
4
 74
0
 40
0
 40
0
 40
0
 40
0
 40
1
 40
1
 40
1
 40
1
 10
73.212858
 20
21.108539
 30
0.0
 10
73.336881
 20
21.200408
 30
0.0
 10
73.478130
 20
21.370366
 30
0.0
 10
73.636605
 20
21.618413
 30
0.0
  0
LWPOLYLINE
  5
2ff
100
AcDbEntity
  8
Layer_1
 62
7
100
AcDbPolyline
 90
2
 70
0
 10
74.260168
 20
21.869905
 30
0.0
 10
71.855490
 20
21.869905
 30
0.0
  0
SPLINE
  5
300
100
AcDbEntity
  8
Layer_1
 62
7
100
AcDbSpline
 70
8
 71
3
 72
8
 73
4
 74
0
 40
0
 40
0
 40
0
 40
0
 40
1
 40
1
 40
1
 40
1
 10
74.291174
 20
21.253233
 30
0.0
 10
74.190117
 20
21.080978
 30
0.0
 10
74.083319
 20
20.932839
 30
0.0
 10
73.970780
 20
20.808815
 30
0.0
  0
SPLINE
  5
301
100
AcDbEntity
  8
Layer_1
 62
7
100
AcDbSpline
 70
8
 71
3
 72
8
 73
4
 74
0
 40
0
 40
0
 40
0
 40
0
 40
1
 40
1
 40
1
 40
1
 10
73.970780
 20
20.808815
 30
0.0
 10
73.858240
 20
20.687088
 30
0.0
 10
73.737661
 20
20.586032
 30
0.0
 10
73.609044
 20
20.505647
 30
0.0
  0
SPLINE
  5
302
100
AcDbEntity
  8
Layer_1
 62
7
100
AcDbSpline
 70
8
 71
3
 72
8
 73
4
 74
0
 40
0
 40
0
 40
0
 40
0
 40
1
 40
1
 40
1
 40
1
 10
73.609044
 20
20.505647
 30
0.0
 10
73.480427
 20
20.427558
 30
0.0
 10
73.341475
 20
20.370139
 30
0.0
 10
73.192188
 20
20.333392
 30
0.0
  0
SPLINE
  5
303
100
AcDbEntity
  8
Layer_1
 62
7
100
AcDbSpline
 70
8
 71
3
 72
8
 73
4
 74
0
 40
0
 40
0
 40
0
 40
0
 40
1
 40
1
 40
1
 40
1
 10
73.192188
 20
20.333392
 30
0.0
 10
73.042900
 20
20.296645
 30
0.0
 10
72.880980
 20
20.278272
 30
0.0
 10
72.706429
 20
20.278272
 30
0.0
  0
SPLINE
  5
304
100
AcDbEntity
  8
Layer_1
 62
7
100
AcDbSpline
 70
8
 71
3
 72
8
 73
4
 74
0
 40
0
 40
0
 40
0
 40
0
 40
1
 40
1
 40
1
 40
1
 10
72.706429
 20
20.278272
 30
0.0
 10
72.205741
 20
20.278272
 30
0.0
 10
71.803813
 20
20.439043
 30
0.0
 10
71.500645
 20
20.760586
 30
0.0
  0
SPLINE
  5
305
100
AcDbEntity
  8
Layer_1
 62
7
100
AcDbSpline
 70
8
 71
3
 72
8
 73
4
 74
0
 40
0
 40
0
 40
0
 40
0
 40
1
 40
1
 40
1
 40
1
 10
71.500645
 20
20.760586
 30
0.0
 10
71.197476
 20
21.084425
 30
0.0
 10
71.045892
 20
21.513914
 30
0.0
 10
71.045892
 20
22.049052
 30
0.0
  0
SPLINE
  5
306
100
AcDbEntity
  8
Layer_1
 62
7
100
AcDbSpline
 70
8
 71
3
 72
8
 73
4
 74
0
 40
0
 40
0
 40
0
 40
0
 40
1
 40
1
 40
1
 40
1
 10
71.045892
 20
22.049052
 30
0.0
 10
71.045892
 20
22.579597
 30
0.0
 10
71.192883
 20
23.009086
 30
0.0
 10
71.486864
 20
23.337519
 30
0.0
  0
SPLINE
  5
307
100
AcDbEntity
  8
Layer_1
 62
7
100
AcDbSpline
 70
8
 71
3
 72
8
 73
4
 74
0
 40
0
 40
0
 40
0
 40
0
 40
1
 40
1
 40
1
 40
1
 10
71.486864
 20
23.337519
 30
0.0
 10
71.783143
 20
23.661358
 30
0.0
 10
72.175884
 20
23.823278
 30
0.0
 10
72.665088
 20
23.823278
 30
0.0
  0
SPLINE
  5
308
100
AcDbEntity
  8
Layer_1
 62
7
100
AcDbSpline
 70
8
 71
3
 72
8
 73
4
 74
0
 40
0
 40
0
 40
0
 40
0
 40
1
 40
1
 40
1
 40
1
 10
72.665088
 20
23.823278
 30
0.0
 10
73.158885
 20
23.823278
 30
0.0
 10
73.549330
 20
23.665952
 30
0.0
 10
73.836421
 20
23.351299
 30
0.0
  0
SPLINE
  5
309
100
AcDbEntity
  8
Layer_1
 62
7
100
AcDbSpline
 70
8
 71
3
 72
8
 73
4
 74
0
 40
0
 40
0
 40
0
 40
0
 40
1
 40
1
 40
1
 40
1
 10
73.836421
 20
23.351299
 30
0.0
 10
74.121216
 20
23.038944
 30
0.0
 10
74.263613
 20
22.606010
 30
0.0
 10
74.263613
 20
22.052498
 30
0.0
  0
LWPOLYLINE
  5
30a
100
AcDbEntity
  8
Layer_1
 62
7
100
AcDbPolyline
 90
2
 70
0
 10
73.636605
 20
21.618413
 30
0.0
 10
74.291174
 20
21.253233
 30
0.0
  0
SPLINE
  5
30b
100
AcDbEntity
  8
Layer_1
 62
7
100
AcDbSpline
 70
8
 71
3
 72
8
 73
4
 74
0
 40
0
 40
0
 40
0
 40
0
 40
1
 40
1
 40
1
 40
1
 10
73.464350
 20
22.503803
 30
0.0
 10
73.356404
 20
22.917215
 30
0.0
 10
73.095725
 20
23.123921
 30
0.0
 10
72.682313
 20
23.123921
 30
0.0
  0
SPLINE
  5
30c
100
AcDbEntity
  8
Layer_1
 62
7
100
AcDbSpline
 70
8
 71
3
 72
8
 73
4
 74
0
 40
0
 40
0
 40
0
 40
0
 40
1
 40
1
 40
1
 40
1
 10
72.682313
 20
23.123921
 30
0.0
 10
72.588147
 20
23.123921
 30
0.0
 10
72.499723
 20
23.108991
 30
0.0
 10
72.417041
 20
23.079131
 30
0.0
  0
SPLINE
  5
30d
100
AcDbEntity
  8
Layer_1
 62
7
100
AcDbSpline
 70
8
 71
3
 72
8
 73
4
 74
0
 40
0
 40
0
 40
0
 40
0
 40
1
 40
1
 40
1
 40
1
 10
72.417041
 20
23.079131
 30
0.0
 10
72.334358
 20
23.051571
 30
0.0
 10
72.258566
 20
23.010230
 30
0.0
 10
72.189664
 20
22.955107
 30
0.0
  0
SPLINE
  5
30e
100
AcDbEntity
  8
Layer_1
 62
7
100
AcDbSpline
 70
8
 71
3
 72
8
 73
4
 74
0
 40
0
 40
0
 40
0
 40
0
 40
1
 40
1
 40
1
 40
1
 10
72.189664
 20
22.955107
 30
0.0
 10
72.123057
 20
22.902280
 30
0.0
 10
72.065639
 20
22.837972
 30
0.0
 10
72.017409
 20
22.762182
 30
0.0
  0
SPLINE
  5
30f
100
AcDbEntity
  8
Layer_1
 62
7
100
AcDbSpline
 70
8
 71
3
 72
8
 73
4
 74
0
 40
0
 40
0
 40
0
 40
0
 40
1
 40
1
 40
1
 40
1
 10
72.017409
 20
22.762182
 30
0.0
 10
71.969176
 20
22.686389
 30
0.0
 10
71.932428
 20
22.600262
 30
0.0
 10
71.907166
 20
22.503799
 30
0.0
  0
LWPOLYLINE
  5
310
100
AcDbEntity
  8
Layer_1
 62
7
100
AcDbPolyline
 90
2
 70
0
 10
74.263613
 20
22.052498
 30
0.0
 10
74.260168
 20
21.869905
 30
0.0
  0
LWPOLYLINE
  5
311
100
AcDbEntity
  8
Layer_1
 62
7
100
AcDbPolyline
 90
2
 70
0
 10
71.907166
 20
22.503799
 30
0.0
 10
73.464350
 20
22.503803
 30
0.0
  0
SPLINE
  5
312
100
AcDbEntity
  8
Layer_1
 62
7
100
AcDbSpline
 70
8
 71
3
 72
8
 73
4
 74
0
 40
0
 40
0
 40
0
 40
0
 40
1
 40
1
 40
1
 40
1
 10
77.577795
 20
20.726133
 30
0.0
 10
77.272330
 20
20.427558
 30
0.0
 10
76.926672
 20
20.278270
 30
0.0
 10
76.540821
 20
20.278270
 30
0.0
  0
SPLINE
  5
313
100
AcDbEntity
  8
Layer_1
 62
7
100
AcDbSpline
 70
8
 71
3
 72
8
 73
4
 74
0
 40
0
 40
0
 40
0
 40
0
 40
1
 40
1
 40
1
 40
1
 10
76.540821
 20
20.278270
 30
0.0
 10
76.081474
 20
20.278270
 30
0.0
 10
75.700217
 20
20.445932
 30
0.0
 10
75.397048
 20
20.781255
 30
0.0
  0
SPLINE
  5
314
100
AcDbEntity
  8
Layer_1
 62
7
100
AcDbSpline
 70
8
 71
3
 72
8
 73
4
 74
0
 40
0
 40
0
 40
0
 40
0
 40
1
 40
1
 40
1
 40
1
 10
75.397048
 20
20.781255
 30
0.0
 10
75.096177
 20
21.123468
 30
0.0
 10
74.945741
 20
21.550660
 30
0.0
 10
74.945741
 20
22.062831
 30
0.0
  0
SPLINE
  5
315
100
AcDbEntity
  8
Layer_1
 62
7
100
AcDbSpline
 70
8
 71
3
 72
8
 73
4
 74
0
 40
0
 40
0
 40
0
 40
0
 40
1
 40
1
 40
1
 40
1
 10
74.945741
 20
22.062831
 30
0.0
 10
74.945741
 20
22.563518
 30
0.0
 10
75.096177
 20
22.981523
 30
0.0
 10
75.397048
 20
23.316846
 30
0.0
  0
SPLINE
  5
316
100
AcDbEntity
  8
Layer_1
 62
7
100
AcDbSpline
 70
8
 71
3
 72
8
 73
4
 74
0
 40
0
 40
0
 40
0
 40
0
 40
1
 40
1
 40
1
 40
1
 10
75.397048
 20
23.316846
 30
0.0
 10
75.695623
 20
23.654466
 30
0.0
 10
76.071139
 20
23.823276
 30
0.0
 10
76.523595
 20
23.823276
 30
0.0
  0
SPLINE
  5
317
100
AcDbEntity
  8
Layer_1
 62
7
100
AcDbSpline
 70
8
 71
3
 72
8
 73
4
 74
0
 40
0
 40
0
 40
0
 40
0
 40
1
 40
1
 40
1
 40
1
 10
76.523595
 20
23.823276
 30
0.0
 10
76.916336
 20
23.823276
 30
0.0
 10
77.267736
 20
23.662505
 30
0.0
 10
77.577795
 20
23.340962
 30
0.0
  0
LWPOLYLINE
  5
318
100
AcDbEntity
  8
Layer_1
 62
7
100
AcDbPolyline
 90
5
 70
0
 10
77.577795
 20
26.193503
 30
0.0
 10
78.356387
 20
26.193503
 30
0.0
 10
78.356387
 20
20.374733
 30
0.0
 10
77.577795
 20
20.374733
 30
0.0
 10
77.577795
 20
20.726133
 30
0.0
  0
SPLINE
  5
319
100
AcDbEntity
  8
Layer_1
 62
7
100
AcDbSpline
 70
8
 71
3
 72
8
 73
4
 74
0
 40
0
 40
0
 40
0
 40
0
 40
1
 40
1
 40
1
 40
1
 10
75.738113
 20
22.062831
 30
0.0
 10
75.738113
 20
21.741288
 30
0.0
 10
75.824240
 20
21.479461
 30
0.0
 10
75.996495
 20
21.277349
 30
0.0
  0
SPLINE
  5
31a
100
AcDbEntity
  8
Layer_1
 62
7
100
AcDbSpline
 70
8
 71
3
 72
8
 73
4
 74
0
 40
0
 40
0
 40
0
 40
0
 40
1
 40
1
 40
1
 40
1
 10
75.996495
 20
21.277349
 30
0.0
 10
76.173344
 20
21.072940
 30
0.0
 10
76.396127
 20
20.970735
 30
0.0
 10
76.664844
 20
20.970735
 30
0.0
  0
SPLINE
  5
31b
100
AcDbEntity
  8
Layer_1
 62
7
100
AcDbSpline
 70
8
 71
3
 72
8
 73
4
 74
0
 40
0
 40
0
 40
0
 40
0
 40
1
 40
1
 40
1
 40
1
 10
76.664844
 20
20.970735
 30
0.0
 10
76.951936
 20
20.970735
 30
0.0
 10
77.183906
 20
21.069494
 30
0.0
 10
77.360754
 20
21.267013
 30
0.0
  0
SPLINE
  5
31c
100
AcDbEntity
  8
Layer_1
 62
7
100
AcDbSpline
 70
8
 71
3
 72
8
 73
4
 74
0
 40
0
 40
0
 40
0
 40
0
 40
1
 40
1
 40
1
 40
1
 10
77.360754
 20
21.267013
 30
0.0
 10
77.537603
 20
21.471422
 30
0.0
 10
77.626027
 20
21.730953
 30
0.0
 10
77.626027
 20
22.045605
 30
0.0
  0
SPLINE
  5
31d
100
AcDbEntity
  8
Layer_1
 62
7
100
AcDbSpline
 70
8
 71
3
 72
8
 73
4
 74
0
 40
0
 40
0
 40
0
 40
0
 40
1
 40
1
 40
1
 40
1
 10
77.626027
 20
22.045605
 30
0.0
 10
77.626027
 20
22.360258
 30
0.0
 10
77.537603
 20
22.619788
 30
0.0
 10
77.360754
 20
22.824197
 30
0.0
  0
SPLINE
  5
31e
100
AcDbEntity
  8
Layer_1
 62
7
100
AcDbSpline
 70
8
 71
3
 72
8
 73
4
 74
0
 40
0
 40
0
 40
0
 40
0
 40
1
 40
1
 40
1
 40
1
 10
77.360754
 20
22.824197
 30
0.0
 10
77.183906
 20
23.024013
 30
0.0
 10
76.954233
 20
23.123921
 30
0.0
 10
76.671735
 20
23.123921
 30
0.0
  0
SPLINE
  5
31f
100
AcDbEntity
  8
Layer_1
 62
7
100
AcDbSpline
 70
8
 71
3
 72
8
 73
4
 74
0
 40
0
 40
0
 40
0
 40
0
 40
1
 40
1
 40
1
 40
1
 10
76.671735
 20
23.123921
 30
0.0
 10
76.405314
 20
23.123921
 30
0.0
 10
76.182531
 20
23.022865
 30
0.0
 10
76.003386
 20
22.820752
 30
0.0
  0
SPLINE
  5
320
100
AcDbEntity
  8
Layer_1
 62
7
100
AcDbSpline
 70
8
 71
3
 72
8
 73
4
 74
0
 40
0
 40
0
 40
0
 40
0
 40
1
 40
1
 40
1
 40
1
 10
76.003386
 20
22.820752
 30
0.0
 10
75.826537
 20
22.616343
 30
0.0
 10
75.738113
 20
22.363703
 30
0.0
 10
75.738113
 20
22.062831
 30
0.0
  0
LWPOLYLINE
  5
321
100
AcDbEntity
  8
Layer_1
 62
7
100
AcDbPolyline
 90
2
 70
0
 10
77.577795
 20
23.340962
 30
0.0
 10
77.577795
 20
26.193503
 30
0.0
  0
LWPOLYLINE
  5
322
100
AcDbEntity
  8
Layer_1
 62
7
100
AcDbPolyline
 90
1
 70
1
 10
75.738113
 20
22.062831
 30
0.0
  0
SPLINE
  5
323
100
AcDbEntity
  8
Layer_1
 62
7
100
AcDbSpline
 70
8
 71
3
 72
8
 73
4
 74
0
 40
0
 40
0
 40
0
 40
0
 40
1
 40
1
 40
1
 40
1
 10
79.217661
 20
25.125523
 30
0.0
 10
79.217661
 20
25.261030
 30
0.0
 10
79.267041
 20
25.378163
 30
0.0
 10
79.365800
 20
25.476923
 30
0.0
  0
SPLINE
  5
324
100
AcDbEntity
  8
Layer_1
 62
7
100
AcDbSpline
 70
8
 71
3
 72
8
 73
4
 74
0
 40
0
 40
0
 40
0
 40
0
 40
1
 40
1
 40
1
 40
1
 10
79.365800
 20
25.476923
 30
0.0
 10
79.464560
 20
25.575682
 30
0.0
 10
79.582842
 20
25.625062
 30
0.0
 10
79.720645
 20
25.625062
 30
0.0
  0
SPLINE
  5
325
100
AcDbEntity
  8
Layer_1
 62
7
100
AcDbSpline
 70
8
 71
3
 72
8
 73
4
 74
0
 40
0
 40
0
 40
0
 40
0
 40
1
 40
1
 40
1
 40
1
 10
79.720645
 20
25.625062
 30
0.0
 10
79.860746
 20
25.625062
 30
0.0
 10
79.980176
 20
25.575682
 30
0.0
 10
80.078936
 20
25.476923
 30
0.0
  0
SPLINE
  5
326
100
AcDbEntity
  8
Layer_1
 62
7
100
AcDbSpline
 70
8
 71
3
 72
8
 73
4
 74
0
 40
0
 40
0
 40
0
 40
0
 40
1
 40
1
 40
1
 40
1
 10
80.078936
 20
25.476923
 30
0.0
 10
80.177695
 20
25.380460
 30
0.0
 10
80.227075
 20
25.262179
 30
0.0
 10
80.227075
 20
25.122078
 30
0.0
  0
SPLINE
  5
327
100
AcDbEntity
  8
Layer_1
 62
7
100
AcDbSpline
 70
8
 71
3
 72
8
 73
4
 74
0
 40
0
 40
0
 40
0
 40
0
 40
1
 40
1
 40
1
 40
1
 10
80.227075
 20
25.122078
 30
0.0
 10
80.227075
 20
24.981977
 30
0.0
 10
80.177695
 20
24.862547
 30
0.0
 10
80.078936
 20
24.763787
 30
0.0
  0
SPLINE
  5
328
100
AcDbEntity
  8
Layer_1
 62
7
100
AcDbSpline
 70
8
 71
3
 72
8
 73
4
 74
0
 40
0
 40
0
 40
0
 40
0
 40
1
 40
1
 40
1
 40
1
 10
80.078936
 20
24.763787
 30
0.0
 10
79.982473
 20
24.665028
 30
0.0
 10
79.864191
 20
24.615648
 30
0.0
 10
79.724091
 20
24.615648
 30
0.0
  0
SPLINE
  5
329
100
AcDbEntity
  8
Layer_1
 62
7
100
AcDbSpline
 70
8
 71
3
 72
8
 73
4
 74
0
 40
0
 40
0
 40
0
 40
0
 40
1
 40
1
 40
1
 40
1
 10
79.724091
 20
24.615648
 30
0.0
 10
79.583990
 20
24.615648
 30
0.0
 10
79.464560
 20
24.665028
 30
0.0
 10
79.365800
 20
24.763787
 30
0.0
  0
SPLINE
  5
32a
100
AcDbEntity
  8
Layer_1
 62
7
100
AcDbSpline
 70
8
 71
3
 72
8
 73
4
 74
0
 40
0
 40
0
 40
0
 40
0
 40
1
 40
1
 40
1
 40
1
 10
79.365800
 20
24.763787
 30
0.0
 10
79.267041
 20
24.862547
 30
0.0
 10
79.217661
 20
24.983126
 30
0.0
 10
79.217661
 20
25.125523
 30
0.0
  0
LWPOLYLINE
  5
32b
100
AcDbEntity
  8
Layer_1
 62
7
100
AcDbPolyline
 90
4
 70
1
 10
80.109941
 20
23.730258
 30
0.0
 10
80.109941
 20
20.374733
 30
0.0
 10
79.334794
 20
20.374733
 30
0.0
 10
79.334794
 20
23.730258
 30
0.0
  0
LWPOLYLINE
  5
32c
100
AcDbEntity
  8
Layer_1
 62
7
100
AcDbPolyline
 90
1
 70
1
 10
79.217661
 20
25.125523
 30
0.0
  0
LWPOLYLINE
  5
32d
100
AcDbEntity
  8
Layer_1
 62
7
100
AcDbPolyline
 90
12
 70
1
 10
81.897946
 20
23.006788
 30
0.0
 10
81.897946
 20
20.374733
 30
0.0
 10
81.122799
 20
20.374733
 30
0.0
 10
81.122799
 20
23.006788
 30
0.0
 10
80.792070
 20
23.006788
 30
0.0
 10
80.792070
 20
23.730258
 30
0.0
 10
81.122799
 20
23.730258
 30
0.0
 10
81.122799
 20
24.960158
 30
0.0
 10
81.897946
 20
24.960158
 30
0.0
 10
81.897946
 20
23.730258
 30
0.0
 10
82.500839
 20
23.730258
 30
0.0
 10
82.500839
 20
23.006788
 30
0.0
  0
SPLINE
  5
32e
100
AcDbEntity
  8
Layer_1
 62
7
100
AcDbSpline
 70
8
 71
3
 72
8
 73
4
 74
0
 40
0
 40
0
 40
0
 40
0
 40
1
 40
1
 40
1
 40
1
 10
82.910807
 20
25.125523
 30
0.0
 10
82.910807
 20
25.261030
 30
0.0
 10
82.960187
 20
25.378163
 30
0.0
 10
83.058946
 20
25.476923
 30
0.0
  0
SPLINE
  5
32f
100
AcDbEntity
  8
Layer_1
 62
7
100
AcDbSpline
 70
8
 71
3
 72
8
 73
4
 74
0
 40
0
 40
0
 40
0
 40
0
 40
1
 40
1
 40
1
 40
1
 10
83.058946
 20
25.476923
 30
0.0
 10
83.157705
 20
25.575682
 30
0.0
 10
83.275987
 20
25.625062
 30
0.0
 10
83.413791
 20
25.625062
 30
0.0
  0
SPLINE
  5
330
100
AcDbEntity
  8
Layer_1
 62
7
100
AcDbSpline
 70
8
 71
3
 72
8
 73
4
 74
0
 40
0
 40
0
 40
0
 40
0
 40
1
 40
1
 40
1
 40
1
 10
83.413791
 20
25.625062
 30
0.0
 10
83.553892
 20
25.625062
 30
0.0
 10
83.673322
 20
25.575682
 30
0.0
 10
83.772081
 20
25.476923
 30
0.0
  0
SPLINE
  5
331
100
AcDbEntity
  8
Layer_1
 62
7
100
AcDbSpline
 70
8
 71
3
 72
8
 73
4
 74
0
 40
0
 40
0
 40
0
 40
0
 40
1
 40
1
 40
1
 40
1
 10
83.772081
 20
25.476923
 30
0.0
 10
83.870841
 20
25.380460
 30
0.0
 10
83.920221
 20
25.262179
 30
0.0
 10
83.920221
 20
25.122078
 30
0.0
  0
SPLINE
  5
332
100
AcDbEntity
  8
Layer_1
 62
7
100
AcDbSpline
 70
8
 71
3
 72
8
 73
4
 74
0
 40
0
 40
0
 40
0
 40
0
 40
1
 40
1
 40
1
 40
1
 10
83.920221
 20
25.122078
 30
0.0
 10
83.920221
 20
24.981977
 30
0.0
 10
83.870841
 20
24.862547
 30
0.0
 10
83.772081
 20
24.763787
 30
0.0
  0
SPLINE
  5
333
100
AcDbEntity
  8
Layer_1
 62
7
100
AcDbSpline
 70
8
 71
3
 72
8
 73
4
 74
0
 40
0
 40
0
 40
0
 40
0
 40
1
 40
1
 40
1
 40
1
 10
83.772081
 20
24.763787
 30
0.0
 10
83.675618
 20
24.665028
 30
0.0
 10
83.557337
 20
24.615648
 30
0.0
 10
83.417236
 20
24.615648
 30
0.0
  0
SPLINE
  5
334
100
AcDbEntity
  8
Layer_1
 62
7
100
AcDbSpline
 70
8
 71
3
 72
8
 73
4
 74
0
 40
0
 40
0
 40
0
 40
0
 40
1
 40
1
 40
1
 40
1
 10
83.417236
 20
24.615648
 30
0.0
 10
83.277135
 20
24.615648
 30
0.0
 10
83.157705
 20
24.665028
 30
0.0
 10
83.058946
 20
24.763787
 30
0.0
  0
SPLINE
  5
335
100
AcDbEntity
  8
Layer_1
 62
7
100
AcDbSpline
 70
8
 71
3
 72
8
 73
4
 74
0
 40
0
 40
0
 40
0
 40
0
 40
1
 40
1
 40
1
 40
1
 10
83.058946
 20
24.763787
 30
0.0
 10
82.960187
 20
24.862547
 30
0.0
 10
82.910807
 20
24.983126
 30
0.0
 10
82.910807
 20
25.125523
 30
0.0
  0
LWPOLYLINE
  5
336
100
AcDbEntity
  8
Layer_1
 62
7
100
AcDbPolyline
 90
4
 70
1
 10
83.803087
 20
23.730258
 30
0.0
 10
83.803087
 20
20.374733
 30
0.0
 10
83.027940
 20
20.374733
 30
0.0
 10
83.027940
 20
23.730258
 30
0.0
  0
SPLINE
  5
337
100
AcDbEntity
  8
Layer_1
 62
7
100
AcDbSpline
 70
8
 71
3
 72
8
 73
4
 74
0
 40
0
 40
0
 40
0
 40
0
 40
1
 40
1
 40
1
 40
1
 10
84.633355
 20
22.076611
 30
0.0
 10
84.633355
 20
22.561222
 30
0.0
 10
84.806758
 20
22.973485
 30
0.0
 10
85.153565
 20
23.313401
 30
0.0
  0
SPLINE
  5
338
100
AcDbEntity
  8
Layer_1
 62
7
100
AcDbSpline
 70
8
 71
3
 72
8
 73
4
 74
0
 40
0
 40
0
 40
0
 40
0
 40
1
 40
1
 40
1
 40
1
 10
85.153565
 20
23.313401
 30
0.0
 10
85.500372
 20
23.653318
 30
0.0
 10
85.922970
 20
23.823276
 30
0.0
 10
86.421361
 20
23.823276
 30
0.0
  0
SPLINE
  5
339
100
AcDbEntity
  8
Layer_1
 62
7
100
AcDbSpline
 70
8
 71
3
 72
8
 73
4
 74
0
 40
0
 40
0
 40
0
 40
0
 40
1
 40
1
 40
1
 40
1
 10
86.421361
 20
23.823276
 30
0.0
 10
86.922048
 20
23.823276
 30
0.0
 10
87.346944
 20
23.652169
 30
0.0
 10
87.696047
 20
23.309956
 30
0.0
  0
SPLINE
  5
33a
100
AcDbEntity
  8
Layer_1
 62
7
100
AcDbSpline
 70
8
 71
3
 72
8
 73
4
 74
0
 40
0
 40
0
 40
0
 40
0
 40
1
 40
1
 40
1
 40
1
 10
87.696047
 20
23.309956
 30
0.0
 10
88.040557
 20
22.967743
 30
0.0
 10
88.212812
 20
22.547441
 30
0.0
 10
88.212812
 20
22.049050
 30
0.0
  0
SPLINE
  5
33b
100
AcDbEntity
  8
Layer_1
 62
7
100
AcDbSpline
 70
8
 71
3
 72
8
 73
4
 74
0
 40
0
 40
0
 40
0
 40
0
 40
1
 40
1
 40
1
 40
1
 10
88.212812
 20
22.049050
 30
0.0
 10
88.212812
 20
21.546066
 30
0.0
 10
88.039409
 20
21.124616
 30
0.0
 10
87.692602
 20
20.784700
 30
0.0
  0
SPLINE
  5
33c
100
AcDbEntity
  8
Layer_1
 62
7
100
AcDbSpline
 70
8
 71
3
 72
8
 73
4
 74
0
 40
0
 40
0
 40
0
 40
0
 40
1
 40
1
 40
1
 40
1
 10
87.692602
 20
20.784700
 30
0.0
 10
87.343499
 20
20.447080
 30
0.0
 10
86.915158
 20
20.278270
 30
0.0
 10
86.407580
 20
20.278270
 30
0.0
  0
SPLINE
  5
33d
100
AcDbEntity
  8
Layer_1
 62
7
100
AcDbSpline
 70
8
 71
3
 72
8
 73
4
 74
0
 40
0
 40
0
 40
0
 40
0
 40
1
 40
1
 40
1
 40
1
 10
86.407580
 20
20.278270
 30
0.0
 10
85.904596
 20
20.278270
 30
0.0
 10
85.483146
 20
20.450525
 30
0.0
 10
85.143229
 20
20.795035
 30
0.0
  0
SPLINE
  5
33e
100
AcDbEntity
  8
Layer_1
 62
7
100
AcDbSpline
 70
8
 71
3
 72
8
 73
4
 74
0
 40
0
 40
0
 40
0
 40
0
 40
1
 40
1
 40
1
 40
1
 10
85.143229
 20
20.795035
 30
0.0
 10
84.803313
 20
21.134951
 30
0.0
 10
84.633355
 20
21.562143
 30
0.0
 10
84.633355
 20
22.076611
 30
0.0
  0
LWPOLYLINE
  5
33f
100
AcDbEntity
  8
Layer_1
 62
7
100
AcDbPolyline
 90
1
 70
1
 10
82.910807
 20
25.125523
 30
0.0
  0
SPLINE
  5
340
100
AcDbEntity
  8
Layer_1
 62
7
100
AcDbSpline
 70
8
 71
3
 72
8
 73
4
 74
0
 40
0
 40
0
 40
0
 40
0
 40
1
 40
1
 40
1
 40
1
 10
85.425728
 20
22.062831
 30
0.0
 10
85.425728
 20
21.727508
 30
0.0
 10
85.515300
 20
21.462236
 30
0.0
 10
85.694445
 20
21.267013
 30
0.0
  0
SPLINE
  5
341
100
AcDbEntity
  8
Layer_1
 62
7
100
AcDbSpline
 70
8
 71
3
 72
8
 73
4
 74
0
 40
0
 40
0
 40
0
 40
0
 40
1
 40
1
 40
1
 40
1
 10
85.694445
 20
21.267013
 30
0.0
 10
85.878184
 20
21.069494
 30
0.0
 10
86.120489
 20
20.970735
 30
0.0
 10
86.421361
 20
20.970735
 30
0.0
  0
SPLINE
  5
342
100
AcDbEntity
  8
Layer_1
 62
7
100
AcDbSpline
 70
8
 71
3
 72
8
 73
4
 74
0
 40
0
 40
0
 40
0
 40
0
 40
1
 40
1
 40
1
 40
1
 10
86.421361
 20
20.970735
 30
0.0
 10
86.724530
 20
20.970735
 30
0.0
 10
86.966835
 20
21.068346
 30
0.0
 10
87.148276
 20
21.263568
 30
0.0
  0
SPLINE
  5
343
100
AcDbEntity
  8
Layer_1
 62
7
100
AcDbSpline
 70
8
 71
3
 72
8
 73
4
 74
0
 40
0
 40
0
 40
0
 40
0
 40
1
 40
1
 40
1
 40
1
 10
87.148276
 20
21.263568
 30
0.0
 10
87.329718
 20
21.458790
 30
0.0
 10
87.420439
 20
21.719469
 30
0.0
 10
87.420439
 20
22.045605
 30
0.0
  0
SPLINE
  5
344
100
AcDbEntity
  8
Layer_1
 62
7
100
AcDbSpline
 70
8
 71
3
 72
8
 73
4
 74
0
 40
0
 40
0
 40
0
 40
0
 40
1
 40
1
 40
1
 40
1
 10
87.420439
 20
22.045605
 30
0.0
 10
87.420439
 20
22.371741
 30
0.0
 10
87.329718
 20
22.632420
 30
0.0
 10
87.148276
 20
22.827643
 30
0.0
  0
SPLINE
  5
345
100
AcDbEntity
  8
Layer_1
 62
7
100
AcDbSpline
 70
8
 71
3
 72
8
 73
4
 74
0
 40
0
 40
0
 40
0
 40
0
 40
1
 40
1
 40
1
 40
1
 10
87.148276
 20
22.827643
 30
0.0
 10
86.964538
 20
23.025162
 30
0.0
 10
86.722233
 20
23.123921
 30
0.0
 10
86.421361
 20
23.123921
 30
0.0
  0
SPLINE
  5
346
100
AcDbEntity
  8
Layer_1
 62
7
100
AcDbSpline
 70
8
 71
3
 72
8
 73
4
 74
0
 40
0
 40
0
 40
0
 40
0
 40
1
 40
1
 40
1
 40
1
 10
86.421361
 20
23.123921
 30
0.0
 10
86.125082
 20
23.123921
 30
0.0
 10
85.885074
 20
23.025162
 30
0.0
 10
85.701335
 20
22.827643
 30
0.0
  0
SPLINE
  5
347
100
AcDbEntity
  8
Layer_1
 62
7
100
AcDbSpline
 70
8
 71
3
 72
8
 73
4
 74
0
 40
0
 40
0
 40
0
 40
0
 40
1
 40
1
 40
1
 40
1
 10
85.701335
 20
22.827643
 30
0.0
 10
85.517597
 20
22.630124
 30
0.0
 10
85.425728
 20
22.375186
 30
0.0
 10
85.425728
 20
22.062831
 30
0.0
  0
LWPOLYLINE
  5
348
100
AcDbEntity
  8
Layer_1
 62
7
100
AcDbPolyline
 90
1
 70
1
 10
84.633355
 20
22.076611
 30
0.0
  0
LWPOLYLINE
  5
349
100
AcDbEntity
  8
Layer_1
 62
7
100
AcDbPolyline
 90
1
 70
1
 10
85.425728
 20
22.062831
 30
0.0
  0
SPLINE
  5
34a
100
AcDbEntity
  8
Layer_1
 62
7
100
AcDbSpline
 70
8
 71
3
 72
8
 73
4
 74
0
 40
0
 40
0
 40
0
 40
0
 40
1
 40
1
 40
1
 40
1
 10
89.814780
 20
23.420199
 30
0.0
 10
90.085794
 20
23.688917
 30
0.0
 10
90.391259
 20
23.823276
 30
0.0
 10
90.731176
 20
23.823276
 30
0.0
  0
SPLINE
  5
34b
100
AcDbEntity
  8
Layer_1
 62
7
100
AcDbSpline
 70
8
 71
3
 72
8
 73
4
 74
0
 40
0
 40
0
 40
0
 40
0
 40
1
 40
1
 40
1
 40
1
 10
90.731176
 20
23.823276
 30
0.0
 10
91.121620
 20
23.823276
 30
0.0
 10
91.425937
 20
23.700401
 30
0.0
 10
91.644127
 20
23.454650
 30
0.0
  0
SPLINE
  5
34c
100
AcDbEntity
  8
Layer_1
 62
7
100
AcDbSpline
 70
8
 71
3
 72
8
 73
4
 74
0
 40
0
 40
0
 40
0
 40
0
 40
1
 40
1
 40
1
 40
1
 10
91.644127
 20
23.454650
 30
0.0
 10
91.832459
 20
23.245647
 30
0.0
 10
91.926625
 20
22.904583
 30
0.0
 10
91.926625
 20
22.431456
 30
0.0
  0
LWPOLYLINE
  5
34d
100
AcDbEntity
  8
Layer_1
 62
7
100
AcDbPolyline
 90
3
 70
0
 10
89.036188
 20
23.730258
 30
0.0
 10
89.814780
 20
23.730258
 30
0.0
 10
89.814780
 20
23.420199
 30
0.0
  0
SPLINE
  5
34e
100
AcDbEntity
  8
Layer_1
 62
7
100
AcDbSpline
 70
8
 71
3
 72
8
 73
4
 74
0
 40
0
 40
0
 40
0
 40
0
 40
1
 40
1
 40
1
 40
1
 10
91.148032
 20
22.248866
 30
0.0
 10
91.148032
 20
22.579595
 30
0.0
 10
91.102098
 20
22.808120
 30
0.0
 10
91.010229
 20
22.934441
 30
0.0
  0
SPLINE
  5
34f
100
AcDbEntity
  8
Layer_1
 62
7
100
AcDbSpline
 70
8
 71
3
 72
8
 73
4
 74
0
 40
0
 40
0
 40
0
 40
0
 40
1
 40
1
 40
1
 40
1
 10
91.010229
 20
22.934441
 30
0.0
 10
90.920656
 20
23.063058
 30
0.0
 10
90.757588
 20
23.127366
 30
0.0
 10
90.521025
 20
23.127366
 30
0.0
  0
SPLINE
  5
350
100
AcDbEntity
  8
Layer_1
 62
7
100
AcDbSpline
 70
8
 71
3
 72
8
 73
4
 74
0
 40
0
 40
0
 40
0
 40
0
 40
1
 40
1
 40
1
 40
1
 10
90.521025
 20
23.127366
 30
0.0
 10
90.263791
 20
23.127366
 30
0.0
 10
90.081201
 20
23.042387
 30
0.0
 10
89.973254
 20
22.872429
 30
0.0
  0
SPLINE
  5
351
100
AcDbEntity
  8
Layer_1
 62
7
100
AcDbSpline
 70
8
 71
3
 72
8
 73
4
 74
0
 40
0
 40
0
 40
0
 40
0
 40
1
 40
1
 40
1
 40
1
 10
89.973254
 20
22.872429
 30
0.0
 10
89.867605
 20
22.704768
 30
0.0
 10
89.814780
 20
22.411934
 30
0.0
 10
89.814780
 20
21.993929
 30
0.0
  0
LWPOLYLINE
  5
352
100
AcDbEntity
  8
Layer_1
 62
7
100
AcDbPolyline
 90
4
 70
0
 10
91.926625
 20
22.431456
 30
0.0
 10
91.926625
 20
20.374733
 30
0.0
 10
91.148032
 20
20.374733
 30
0.0
 10
91.148032
 20
22.248866
 30
0.0
  0
LWPOLYLINE
  5
353
100
AcDbEntity
  8
Layer_1
 62
7
100
AcDbPolyline
 90
4
 70
0
 10
89.814780
 20
21.993929
 30
0.0
 10
89.814780
 20
20.374733
 30
0.0
 10
89.036188
 20
20.374733
 30
0.0
 10
89.036188
 20
23.730258
 30
0.0
  0
LWPOLYLINE
  5
354
100
AcDbEntity
  8
Layer_1
 62
7
100
AcDbPolyline
 90
6
 70
1
 10
76.220444
 20
10.435727
 30
0.0
 10
77.522686
 20
7.609035
 30
0.0
 10
78.819761
 20
10.435727
 30
0.0
 10
80.127170
 20
10.435727
 30
0.0
 10
77.512351
 20
5.056227
 30
0.0
 10
74.918203
 20
10.435727
 30
0.0
  0
SPLINE
  5
355
100
AcDbEntity
  8
Layer_1
 62
7
100
AcDbSpline
 70
8
 71
3
 72
8
 73
4
 74
0
 40
0
 40
0
 40
0
 40
0
 40
1
 40
1
 40
1
 40
1
 10
82.912521
 20
10.136004
 30
0.0
 10
83.422394
 20
10.136004
 30
0.0
 10
83.765180
 20
10.192848
 30
0.0
 10
83.940879
 20
10.306536
 30
0.0
  0
SPLINE
  5
356
100
AcDbEntity
  8
Layer_1
 62
7
100
AcDbSpline
 70
8
 71
3
 72
8
 73
4
 74
0
 40
0
 40
0
 40
0
 40
0
 40
1
 40
1
 40
1
 40
1
 10
83.940879
 20
10.306536
 30
0.0
 10
84.254382
 20
10.506351
 30
0.0
 10
84.411133
 20
10.826744
 30
0.0
 10
84.411133
 20
11.267715
 30
0.0
  0
SPLINE
  5
357
100
AcDbEntity
  8
Layer_1
 62
7
100
AcDbSpline
 70
8
 71
3
 72
8
 73
4
 74
0
 40
0
 40
0
 40
0
 40
0
 40
1
 40
1
 40
1
 40
1
 10
84.411133
 20
11.267715
 30
0.0
 10
84.411133
 20
11.608778
 30
0.0
 10
84.297445
 20
11.886107
 30
0.0
 10
84.070069
 20
12.099702
 30
0.0
  0
SPLINE
  5
358
100
AcDbEntity
  8
Layer_1
 62
7
100
AcDbSpline
 70
8
 71
3
 72
8
 73
4
 74
0
 40
0
 40
0
 40
0
 40
0
 40
1
 40
1
 40
1
 40
1
 10
84.070069
 20
12.099702
 30
0.0
 10
83.846139
 20
12.316743
 30
0.0
 10
83.555030
 20
12.425263
 30
0.0
 10
83.196741
 20
12.425263
 30
0.0
  0
SPLINE
  5
359
100
AcDbEntity
  8
Layer_1
 62
7
100
AcDbSpline
 70
8
 71
3
 72
8
 73
4
 74
0
 40
0
 40
0
 40
0
 40
0
 40
1
 40
1
 40
1
 40
1
 10
83.196741
 20
12.425263
 30
0.0
 10
82.862568
 20
12.425263
 30
0.0
 10
82.604186
 20
12.344304
 30
0.0
 10
82.421597
 20
12.182385
 30
0.0
  0
SPLINE
  5
35a
100
AcDbEntity
  8
Layer_1
 62
7
100
AcDbSpline
 70
8
 71
3
 72
8
 73
4
 74
0
 40
0
 40
0
 40
0
 40
0
 40
1
 40
1
 40
1
 40
1
 10
82.421597
 20
12.182385
 30
0.0
 10
82.245898
 20
12.017020
 30
0.0
 10
82.114984
 20
11.737968
 30
0.0
 10
82.028857
 20
11.345229
 30
0.0
  0
LWPOLYLINE
  5
35b
100
AcDbEntity
  8
Layer_1
 62
7
100
AcDbPolyline
 90
2
 70
0
 10
82.912521
 20
9.107647
 30
0.0
 10
82.912521
 20
10.136004
 30
0.0
  0
SPLINE
  5
35c
100
AcDbEntity
  8
Layer_1
 62
7
100
AcDbSpline
 70
8
 71
3
 72
8
 73
4
 74
0
 40
0
 40
0
 40
0
 40
0
 40
1
 40
1
 40
1
 40
1
 10
80.829967
 20
11.345229
 30
0.0
 10
80.953990
 20
12.096258
 30
0.0
 10
81.208927
 20
12.645749
 30
0.0
 10
81.594776
 20
12.993702
 30
0.0
  0
SPLINE
  5
35d
100
AcDbEntity
  8
Layer_1
 62
7
100
AcDbSpline
 70
8
 71
3
 72
8
 73
4
 74
0
 40
0
 40
0
 40
0
 40
0
 40
1
 40
1
 40
1
 40
1
 10
81.594776
 20
12.993702
 30
0.0
 10
81.980625
 20
13.345101
 30
0.0
 10
82.519781
 20
13.520800
 30
0.0
 10
83.212243
 20
13.520800
 30
0.0
  0
SPLINE
  5
35e
100
AcDbEntity
  8
Layer_1
 62
7
100
AcDbSpline
 70
8
 71
3
 72
8
 73
4
 74
0
 40
0
 40
0
 40
0
 40
0
 40
1
 40
1
 40
1
 40
1
 10
83.212243
 20
13.520800
 30
0.0
 10
83.911596
 20
13.520800
 30
0.0
 10
84.481757
 20
13.314095
 30
0.0
 10
84.922728
 20
12.900685
 30
0.0
  0
SPLINE
  5
35f
100
AcDbEntity
  8
Layer_1
 62
7
100
AcDbSpline
 70
8
 71
3
 72
8
 73
4
 74
0
 40
0
 40
0
 40
0
 40
0
 40
1
 40
1
 40
1
 40
1
 10
84.922728
 20
12.900685
 30
0.0
 10
85.363699
 20
12.490720
 30
0.0
 10
85.584184
 20
11.961899
 30
0.0
 10
85.584184
 20
11.314223
 30
0.0
  0
SPLINE
  5
360
100
AcDbEntity
  8
Layer_1
 62
7
100
AcDbSpline
 70
8
 71
3
 72
8
 73
4
 74
0
 40
0
 40
0
 40
0
 40
0
 40
1
 40
1
 40
1
 40
1
 10
85.584184
 20
11.314223
 30
0.0
 10
85.584184
 20
10.583865
 30
0.0
 10
85.294797
 20
10.015426
 30
0.0
 10
84.716023
 20
9.608906
 30
0.0
  0
SPLINE
  5
361
100
AcDbEntity
  8
Layer_1
 62
7
100
AcDbSpline
 70
8
 71
3
 72
8
 73
4
 74
0
 40
0
 40
0
 40
0
 40
0
 40
1
 40
1
 40
1
 40
1
 10
84.716023
 20
9.608906
 30
0.0
 10
85.377479
 20
9.219612
 30
0.0
 10
85.708207
 20
8.587439
 30
0.0
 10
85.708207
 20
7.712387
 30
0.0
  0
SPLINE
  5
362
100
AcDbEntity
  8
Layer_1
 62
7
100
AcDbSpline
 70
8
 71
3
 72
8
 73
4
 74
0
 40
0
 40
0
 40
0
 40
0
 40
1
 40
1
 40
1
 40
1
 10
85.708207
 20
7.712387
 30
0.0
 10
85.708207
 20
6.995810
 30
0.0
 10
85.467051
 20
6.410145
 30
0.0
 10
84.984739
 20
5.955394
 30
0.0
  0
SPLINE
  5
363
100
AcDbEntity
  8
Layer_1
 62
7
100
AcDbSpline
 70
8
 71
3
 72
8
 73
4
 74
0
 40
0
 40
0
 40
0
 40
0
 40
1
 40
1
 40
1
 40
1
 10
84.984739
 20
5.955394
 30
0.0
 10
84.502428
 20
5.500643
 30
0.0
 10
83.884035
 20
5.273268
 30
0.0
 10
83.129561
 20
5.273268
 30
0.0
  0
SPLINE
  5
364
100
AcDbEntity
  8
Layer_1
 62
7
100
AcDbSpline
 70
8
 71
3
 72
8
 73
4
 74
0
 40
0
 40
0
 40
0
 40
0
 40
1
 40
1
 40
1
 40
1
 10
83.129561
 20
5.273268
 30
0.0
 10
82.168383
 20
5.273268
 30
0.0
 10
81.455251
 20
5.626389
 30
0.0
 10
80.990164
 20
6.332631
 30
0.0
  0
SPLINE
  5
365
100
AcDbEntity
  8
Layer_1
 62
7
100
AcDbSpline
 70
8
 71
3
 72
8
 73
4
 74
0
 40
0
 40
0
 40
0
 40
0
 40
1
 40
1
 40
1
 40
1
 10
80.990164
 20
6.332631
 30
0.0
 10
80.797239
 20
6.628908
 30
0.0
 10
80.674939
 20
7.038873
 30
0.0
 10
80.623262
 20
7.562526
 30
0.0
  0
LWPOLYLINE
  5
366
100
AcDbEntity
  8
Layer_1
 62
7
100
AcDbPolyline
 90
2
 70
0
 10
82.028857
 20
11.345229
 30
0.0
 10
80.829967
 20
11.345229
 30
0.0
  0
SPLINE
  5
367
100
AcDbEntity
  8
Layer_1
 62
7
100
AcDbSpline
 70
8
 71
3
 72
8
 73
4
 74
0
 40
0
 40
0
 40
0
 40
0
 40
1
 40
1
 40
1
 40
1
 10
81.785978
 20
7.562526
 30
0.0
 10
81.847991
 20
7.176677
 30
0.0
 10
81.997853
 20
6.880399
 30
0.0
 10
82.235562
 20
6.673694
 30
0.0
  0
SPLINE
  5
368
100
AcDbEntity
  8
Layer_1
 62
7
100
AcDbSpline
 70
8
 71
3
 72
8
 73
4
 74
0
 40
0
 40
0
 40
0
 40
0
 40
1
 40
1
 40
1
 40
1
 10
82.235562
 20
6.673694
 30
0.0
 10
82.476718
 20
6.470434
 30
0.0
 10
82.790221
 20
6.368804
 30
0.0
 10
83.176070
 20
6.368804
 30
0.0
  0
SPLINE
  5
369
100
AcDbEntity
  8
Layer_1
 62
7
100
AcDbSpline
 70
8
 71
3
 72
8
 73
4
 74
0
 40
0
 40
0
 40
0
 40
0
 40
1
 40
1
 40
1
 40
1
 10
83.176070
 20
6.368804
 30
0.0
 10
83.565365
 20
6.368804
 30
0.0
 10
83.887480
 20
6.497995
 30
0.0
 10
84.142416
 20
6.756376
 30
0.0
  0
SPLINE
  5
36a
100
AcDbEntity
  8
Layer_1
 62
7
100
AcDbSpline
 70
8
 71
3
 72
8
 73
4
 74
0
 40
0
 40
0
 40
0
 40
0
 40
1
 40
1
 40
1
 40
1
 10
84.142416
 20
6.756376
 30
0.0
 10
84.397353
 20
7.021648
 30
0.0
 10
84.524821
 20
7.357544
 30
0.0
 10
84.524821
 20
7.764064
 30
0.0
  0
SPLINE
  5
36b
100
AcDbEntity
  8
Layer_1
 62
7
100
AcDbSpline
 70
8
 71
3
 72
8
 73
4
 74
0
 40
0
 40
0
 40
0
 40
0
 40
1
 40
1
 40
1
 40
1
 10
84.524821
 20
7.764064
 30
0.0
 10
84.524821
 20
8.301497
 30
0.0
 10
84.333619
 20
8.683901
 30
0.0
 10
83.951214
 20
8.911277
 30
0.0
  0
SPLINE
  5
36c
100
AcDbEntity
  8
Layer_1
 62
7
100
AcDbSpline
 70
8
 71
3
 72
8
 73
4
 74
0
 40
0
 40
0
 40
0
 40
0
 40
1
 40
1
 40
1
 40
1
 10
83.951214
 20
8.911277
 30
0.0
 10
83.727283
 20
9.042190
 30
0.0
 10
83.381052
 20
9.107647
 30
0.0
 10
82.912521
 20
9.107647
 30
0.0
  0
LWPOLYLINE
  5
36d
100
AcDbEntity
  8
Layer_1
 62
7
100
AcDbPolyline
 90
2
 70
0
 10
80.623262
 20
7.562526
 30
0.0
 10
81.785978
 20
7.562526
 30
0.0
  0
SPLINE
  5
36e
100
AcDbEntity
  8
Layer_1
 62
7
100
AcDbSpline
 70
8
 71
3
 72
8
 73
4
 74
0
 40
0
 40
0
 40
0
 40
0
 40
1
 40
1
 40
1
 40
1
 10
87.620229
 20
5.981232
 30
0.0
 10
87.620229
 20
6.174157
 30
0.0
 10
87.690853
 20
6.341243
 30
0.0
 10
87.832101
 20
6.482492
 30
0.0
  0
SPLINE
  5
36f
100
AcDbEntity
  8
Layer_1
 62
7
100
AcDbSpline
 70
8
 71
3
 72
8
 73
4
 74
0
 40
0
 40
0
 40
0
 40
0
 40
1
 40
1
 40
1
 40
1
 10
87.832101
 20
6.482492
 30
0.0
 10
87.973350
 20
6.623741
 30
0.0
 10
88.142159
 20
6.694365
 30
0.0
 10
88.338529
 20
6.694365
 30
0.0
  0
SPLINE
  5
370
100
AcDbEntity
  8
Layer_1
 62
7
100
AcDbSpline
 70
8
 71
3
 72
8
 73
4
 74
0
 40
0
 40
0
 40
0
 40
0
 40
1
 40
1
 40
1
 40
1
 10
88.338529
 20
6.694365
 30
0.0
 10
88.534899
 20
6.694365
 30
0.0
 10
88.703708
 20
6.623741
 30
0.0
 10
88.844956
 20
6.482492
 30
0.0
  0
SPLINE
  5
371
100
AcDbEntity
  8
Layer_1
 62
7
100
AcDbSpline
 70
8
 71
3
 72
8
 73
4
 74
0
 40
0
 40
0
 40
0
 40
0
 40
1
 40
1
 40
1
 40
1
 10
88.844956
 20
6.482492
 30
0.0
 10
88.986205
 20
6.341243
 30
0.0
 10
89.056829
 20
6.172434
 30
0.0
 10
89.056829
 20
5.976065
 30
0.0
  0
SPLINE
  5
372
100
AcDbEntity
  8
Layer_1
 62
7
100
AcDbSpline
 70
8
 71
3
 72
8
 73
4
 74
0
 40
0
 40
0
 40
0
 40
0
 40
1
 40
1
 40
1
 40
1
 10
89.056829
 20
5.976065
 30
0.0
 10
89.056829
 20
5.776250
 30
0.0
 10
88.986205
 20
5.605718
 30
0.0
 10
88.844956
 20
5.464470
 30
0.0
  0
SPLINE
  5
373
100
AcDbEntity
  8
Layer_1
 62
7
100
AcDbSpline
 70
8
 71
3
 72
8
 73
4
 74
0
 40
0
 40
0
 40
0
 40
0
 40
1
 40
1
 40
1
 40
1
 10
88.844956
 20
5.464470
 30
0.0
 10
88.707153
 20
5.326667
 30
0.0
 10
88.538344
 20
5.257765
 30
0.0
 10
88.338529
 20
5.257765
 30
0.0
  0
SPLINE
  5
374
100
AcDbEntity
  8
Layer_1
 62
7
100
AcDbSpline
 70
8
 71
3
 72
8
 73
4
 74
0
 40
0
 40
0
 40
0
 40
0
 40
1
 40
1
 40
1
 40
1
 10
88.338529
 20
5.257765
 30
0.0
 10
88.135269
 20
5.257765
 30
0.0
 10
87.964737
 20
5.326667
 30
0.0
 10
87.826934
 20
5.464470
 30
0.0
  0
SPLINE
  5
375
100
AcDbEntity
  8
Layer_1
 62
7
100
AcDbSpline
 70
8
 71
3
 72
8
 73
4
 74
0
 40
0
 40
0
 40
0
 40
0
 40
1
 40
1
 40
1
 40
1
 10
87.826934
 20
5.464470
 30
0.0
 10
87.689131
 20
5.602273
 30
0.0
 10
87.620229
 20
5.774527
 30
0.0
 10
87.620229
 20
5.981232
 30
0.0
  0
LWPOLYLINE
  5
376
100
AcDbEntity
  8
Layer_1
 62
7
100
AcDbPolyline
 90
1
 70
1
 10
82.912521
 20
9.107647
 30
0.0
  0
SPLINE
  5
377
100
AcDbEntity
  8
Layer_1
 62
7
100
AcDbSpline
 70
8
 71
3
 72
8
 73
4
 74
0
 40
0
 40
0
 40
0
 40
0
 40
1
 40
1
 40
1
 40
1
 10
90.421083
 20
9.443542
 30
0.0
 10
90.421083
 20
10.714779
 30
0.0
 10
90.717360
 20
11.729356
 30
0.0
 10
91.309915
 20
12.487275
 30
0.0
  0
SPLINE
  5
378
100
AcDbEntity
  8
Layer_1
 62
7
100
AcDbSpline
 70
8
 71
3
 72
8
 73
4
 74
0
 40
0
 40
0
 40
0
 40
0
 40
1
 40
1
 40
1
 40
1
 10
91.309915
 20
12.487275
 30
0.0
 10
91.840458
 20
13.172846
 30
0.0
 10
92.482966
 20
13.515632
 30
0.0
 10
93.237440
 20
13.515632
 30
0.0
  0
SPLINE
  5
379
100
AcDbEntity
  8
Layer_1
 62
7
100
AcDbSpline
 70
8
 71
3
 72
8
 73
4
 74
0
 40
0
 40
0
 40
0
 40
0
 40
1
 40
1
 40
1
 40
1
 10
93.237440
 20
13.515632
 30
0.0
 10
93.991913
 20
13.515632
 30
0.0
 10
94.634421
 20
13.172846
 30
0.0
 10
95.164964
 20
12.487275
 30
0.0
  0
SPLINE
  5
37a
100
AcDbEntity
  8
Layer_1
 62
7
100
AcDbSpline
 70
8
 71
3
 72
8
 73
4
 74
0
 40
0
 40
0
 40
0
 40
0
 40
1
 40
1
 40
1
 40
1
 10
95.164964
 20
12.487275
 30
0.0
 10
95.757519
 20
11.729356
 30
0.0
 10
96.053796
 20
10.697553
 30
0.0
 10
96.053796
 20
9.391866
 30
0.0
  0
SPLINE
  5
37b
100
AcDbEntity
  8
Layer_1
 62
7
100
AcDbSpline
 70
8
 71
3
 72
8
 73
4
 74
0
 40
0
 40
0
 40
0
 40
0
 40
1
 40
1
 40
1
 40
1
 10
96.053796
 20
9.391866
 30
0.0
 10
96.053796
 20
8.089624
 30
0.0
 10
95.757519
 20
7.059544
 30
0.0
 10
95.164964
 20
6.301625
 30
0.0
  0
SPLINE
  5
37c
100
AcDbEntity
  8
Layer_1
 62
7
100
AcDbSpline
 70
8
 71
3
 72
8
 73
4
 74
0
 40
0
 40
0
 40
0
 40
0
 40
1
 40
1
 40
1
 40
1
 10
95.164964
 20
6.301625
 30
0.0
 10
94.634421
 20
5.616054
 30
0.0
 10
93.993636
 20
5.273268
 30
0.0
 10
93.242607
 20
5.273268
 30
0.0
  0
SPLINE
  5
37d
100
AcDbEntity
  8
Layer_1
 62
7
100
AcDbSpline
 70
8
 71
3
 72
8
 73
4
 74
0
 40
0
 40
0
 40
0
 40
0
 40
1
 40
1
 40
1
 40
1
 10
93.242607
 20
5.273268
 30
0.0
 10
92.491579
 20
5.273268
 30
0.0
 10
91.847348
 20
5.616054
 30
0.0
 10
91.309915
 20
6.301625
 30
0.0
  0
SPLINE
  5
37e
100
AcDbEntity
  8
Layer_1
 62
7
100
AcDbSpline
 70
8
 71
3
 72
8
 73
4
 74
0
 40
0
 40
0
 40
0
 40
0
 40
1
 40
1
 40
1
 40
1
 10
91.309915
 20
6.301625
 30
0.0
 10
90.717360
 20
7.059544
 30
0.0
 10
90.421083
 20
8.106849
 30
0.0
 10
90.421083
 20
9.443542
 30
0.0
  0
LWPOLYLINE
  5
37f
100
AcDbEntity
  8
Layer_1
 62
7
100
AcDbPolyline
 90
1
 70
1
 10
87.620229
 20
5.981232
 30
0.0
  0
SPLINE
  5
380
100
AcDbEntity
  8
Layer_1
 62
7
100
AcDbSpline
 70
8
 71
3
 72
8
 73
4
 74
0
 40
0
 40
0
 40
0
 40
0
 40
1
 40
1
 40
1
 40
1
 10
91.604470
 20
9.438342
 30
0.0
 10
91.604470
 20
8.552955
 30
0.0
 10
91.757776
 20
7.817430
 30
0.0
 10
92.064388
 20
7.231765
 30
0.0
  0
SPLINE
  5
381
100
AcDbEntity
  8
Layer_1
 62
7
100
AcDbSpline
 70
8
 71
3
 72
8
 73
4
 74
0
 40
0
 40
0
 40
0
 40
0
 40
1
 40
1
 40
1
 40
1
 10
92.064388
 20
7.231765
 30
0.0
 10
92.371001
 20
6.656436
 30
0.0
 10
92.762018
 20
6.368771
 30
0.0
 10
93.237440
 20
6.368771
 30
0.0
  0
SPLINE
  5
382
100
AcDbEntity
  8
Layer_1
 62
7
100
AcDbSpline
 70
8
 71
3
 72
8
 73
4
 74
0
 40
0
 40
0
 40
0
 40
0
 40
1
 40
1
 40
1
 40
1
 10
93.237440
 20
6.368771
 30
0.0
 10
93.709416
 20
6.368771
 30
0.0
 10
94.100433
 20
6.656436
 30
0.0
 10
94.410491
 20
7.231765
 30
0.0
  0
SPLINE
  5
383
100
AcDbEntity
  8
Layer_1
 62
7
100
AcDbSpline
 70
8
 71
3
 72
8
 73
4
 74
0
 40
0
 40
0
 40
0
 40
0
 40
1
 40
1
 40
1
 40
1
 10
94.410491
 20
7.231765
 30
0.0
 10
94.720548
 20
7.803649
 30
0.0
 10
94.875577
 20
8.525394
 30
0.0
 10
94.875577
 20
9.397001
 30
0.0
  0
SPLINE
  5
384
100
AcDbEntity
  8
Layer_1
 62
7
100
AcDbSpline
 70
8
 71
3
 72
8
 73
4
 74
0
 40
0
 40
0
 40
0
 40
0
 40
1
 40
1
 40
1
 40
1
 10
94.875577
 20
9.397001
 30
0.0
 10
94.875577
 20
10.268607
 30
0.0
 10
94.720548
 20
10.992075
 30
0.0
 10
94.410491
 20
11.567404
 30
0.0
  0
SPLINE
  5
385
100
AcDbEntity
  8
Layer_1
 62
7
100
AcDbSpline
 70
8
 71
3
 72
8
 73
4
 74
0
 40
0
 40
0
 40
0
 40
0
 40
1
 40
1
 40
1
 40
1
 10
94.410491
 20
11.567404
 30
0.0
 10
94.100433
 20
12.139288
 30
0.0
 10
93.709416
 20
12.425230
 30
0.0
 10
93.237440
 20
12.425230
 30
0.0
  0
SPLINE
  5
386
100
AcDbEntity
  8
Layer_1
 62
7
100
AcDbSpline
 70
8
 71
3
 72
8
 73
4
 74
0
 40
0
 40
0
 40
0
 40
0
 40
1
 40
1
 40
1
 40
1
 10
93.237440
 20
12.425230
 30
0.0
 10
92.768908
 20
12.425230
 30
0.0
 10
92.379613
 20
12.139288
 30
0.0
 10
92.069556
 20
11.567404
 30
0.0
  0
SPLINE
  5
387
100
AcDbEntity
  8
Layer_1
 62
7
100
AcDbSpline
 70
8
 71
3
 72
8
 73
4
 74
0
 40
0
 40
0
 40
0
 40
0
 40
1
 40
1
 40
1
 40
1
 10
92.069556
 20
11.567404
 30
0.0
 10
91.759499
 20
10.998965
 30
0.0
 10
91.604470
 20
10.289278
 30
0.0
 10
91.604470
 20
9.438342
 30
0.0
  0
LWPOLYLINE
  5
388
100
AcDbEntity
  8
Layer_1
 62
7
100
AcDbPolyline
 90
1
 70
1
 10
90.421083
 20
9.443542
 30
0.0
  0
LWPOLYLINE
  5
389
100
AcDbEntity
  8
Layer_1
 62
7
100
AcDbPolyline
 90
1
 70
1
 10
91.604470
 20
9.438342
 30
0.0
  0
ENDSEC
  0
SECTION
  2
OBJECTS
  0
DICTIONARY
  5
C
330
0
100
AcDbDictionary
  3
ACAD_GROUP
350
D
  3
ACAD_MLINESTYLE
350
17
  0
DICTIONARY
  5
D
330
C
100
AcDbDictionary
  0
DICTIONARY
  5
1A
330
C
100
AcDbDictionary
  0
DICTIONARY
  5
17
330
C
100
AcDbDictionary
  3
STANDARD
350
18
  0
DICTIONARY
  5
19
330
C
100
AcDbDictionary
  0
ENDSEC
  0
EOF
